<?xml version="1.0" encoding="utf-8"?>
<!-- Generator: Adobe Illustrator 23.0.1, SVG Export Plug-In . SVG Version: 6.00 Build 0)  -->
<svg version="1.1" id="Capa_1" xmlns="http://www.w3.org/2000/svg" xmlns:xlink="http://www.w3.org/1999/xlink" x="0px" y="0px"
	 viewBox="0 0 238.4 465" style="enable-background:new 0 0 238.4 465;" xml:space="preserve">
<style type="text/css">
	.st0{opacity:0.33;fill:url(#SVGID_1_);enable-background:new    ;}
</style>
<linearGradient id="SVGID_1_" gradientUnits="userSpaceOnUse" x1="-353.8754" y1="177.9737" x2="207.4566" y2="177.9737" gradientTransform="matrix(0.995 9.938847e-02 9.938847e-02 -0.995 1.3201 458.4832)">
	<stop  offset="0" style="stop-color:#ECECFB"/>
	<stop  offset="0.1576" style="stop-color:#E7E7FB"/>
	<stop  offset="0.342" style="stop-color:#D9D9FB"/>
	<stop  offset="0.54" style="stop-color:#C1C1FB"/>
	<stop  offset="0.7474" style="stop-color:#A1A1FB"/>
	<stop  offset="0.9601" style="stop-color:#7777FB"/>
	<stop  offset="1" style="stop-color:#6E6EFB"/>
</linearGradient>
<path class="st0" d="M-317,362.9c22.3,17.5,55.4,27.3,76,37.2c22,10.7,44.3,25.8,58.1,47.9c16.8,27.1,17,59,41.9,81.2
	c21.5,19.2,50.5,27.4,76.7,26.5c58.7-2,112-30.9,151.6-72.3c38.9-40.7,52.4-91.1,76.9-141.9c8.9-18.5,19.3-27,35.1-37.8
	c12.4-8.4,26.3-16.7,29.2-33.7c4.7-26.6-16.7-53.9-35.8-70.5c-22.3-19.3-48.9-35.1-62.9-61.5c-20.4-38.1-10.2-83-44.7-116.3
	C59.4-3,21.3-6.3-8.8,5c-42.1,16-43.2,61.7-45,103.9c-2.7,60.6-21.6,101.4-78.8,119.9c-49.8,16.1-116-9.2-160.7,16.1
	c-22.7,12.8-43.7,41.1-46.6,69.4C-342.2,335.7-332.1,351.1-317,362.9z"/>
</svg>
