<?xml version="1.0" encoding="utf-8"?>
<!-- Generator: Adobe Illustrator 23.0.1, SVG Export Plug-In . SVG Version: 6.00 Build 0)  -->
<svg version="1.1" id="Capa_1" xmlns="http://www.w3.org/2000/svg" xmlns:xlink="http://www.w3.org/1999/xlink" x="0px" y="0px"
	 viewBox="0 0 597.2 244.2" style="enable-background:new 0 0 597.2 244.2;" xml:space="preserve">
<style type="text/css">
	.st0{opacity:0.33;fill:url(#SVGID_1_);}
</style>
<linearGradient id="SVGID_1_" gradientUnits="userSpaceOnUse" x1="1022.7797" y1="608.0377" x2="365.5748" y2="-306.4264" gradientTransform="matrix(0.995 9.938847e-02 -9.938847e-02 0.995 21.7583 14.2738)">
	<stop  offset="0" style="stop-color:#6E6EFB"/>
	<stop  offset="0.1454" style="stop-color:#7474FB"/>
	<stop  offset="0.3408" style="stop-color:#8585FB"/>
	<stop  offset="0.5646" style="stop-color:#A1A1FB"/>
	<stop  offset="0.8076" style="stop-color:#C8C8FB"/>
	<stop  offset="1" style="stop-color:#ECECFB"/>
</linearGradient>
<path class="st0" d="M61.4,380.7c53,41.5,131.8,64.8,180.7,88.6c52.4,25.4,105.5,61.3,138.1,114c39.9,64.4,40.3,140.3,99.6,193.2
	c51.2,45.6,120.1,65.2,182.4,63.1c139.5-4.7,266.4-73.6,360.6-171.9c92.6-96.7,124.7-216.6,182.9-337.5c21.2-43.9,46-64.3,83.6-89.8
	c29.6-20.1,62.5-39.8,69.5-80.2c11.1-63.4-39.6-128.1-85.2-167.7c-52.9-45.9-116.2-83.6-149.7-146.3
	c-48.4-90.7-24.2-197.5-106.4-276.6c-61-58.7-151.8-66.7-223.4-39.7c-99.8,37.6-102.5,146.4-106.9,246.7
	C680.9-79.3,635.7,17.8,499.7,61.8c-118.4,38.3-276-21.9-382.3,38.2C63.5,130.4,13.4,197.7,6.5,265C1.2,315.9,25.4,352.5,61.4,380.7
	z"/>
</svg>
