<?xml version="1.0" encoding="utf-8"?>
<!-- Generator: Adobe Illustrator 23.0.1, SVG Export Plug-In . SVG Version: 6.00 Build 0)  -->
<svg version="1.1" id="Capa_1" xmlns="http://www.w3.org/2000/svg" xmlns:xlink="http://www.w3.org/1999/xlink" x="0px" y="0px"
	 viewBox="0 0 1182 585" style="enable-background:new 0 0 1182 585;" xml:space="preserve">
<style type="text/css">
	.st0{opacity:0.33;fill:url(#SVGID_1_);}
	.st1{opacity:0.33;fill:url(#SVGID_2_);}
</style>
<g>
	
		<linearGradient id="SVGID_1_" gradientUnits="userSpaceOnUse" x1="-803.4548" y1="266.018" x2="532.0132" y2="266.018" gradientTransform="matrix(0.995 9.938847e-02 -9.938847e-02 0.995 52.4466 17.2273)">
		<stop  offset="0" style="stop-color:#ECECFB"/>
		<stop  offset="0.1576" style="stop-color:#E7E7FB"/>
		<stop  offset="0.342" style="stop-color:#D9D9FB"/>
		<stop  offset="0.54" style="stop-color:#C1C1FB"/>
		<stop  offset="0.7474" style="stop-color:#A1A1FB"/>
		<stop  offset="0.9601" style="stop-color:#7777FB"/>
		<stop  offset="1" style="stop-color:#6E6EFB"/>
	</linearGradient>
	<path class="st0" d="M458.4,282.2c-52.9-45.9-116.2-83.6-149.7-146.3c-23-43.1-29.6-89.8-39-135.4H1.4v584.9h409.9
		c16.8-22.3,36.8-37.6,62.8-55.3c29.6-20.1,62.5-39.8,69.5-80.2C554.7,386.5,504,321.7,458.4,282.2z"/>
	
		<linearGradient id="SVGID_2_" gradientUnits="userSpaceOnUse" x1="1374.2014" y1="1056.9207" x2="716.9965" y2="142.4565" gradientTransform="matrix(0.995 9.938847e-02 -9.938847e-02 0.995 52.4466 17.2273)">
		<stop  offset="0" style="stop-color:#6E6EFB"/>
		<stop  offset="0.1454" style="stop-color:#7474FB"/>
		<stop  offset="0.3408" style="stop-color:#8585FB"/>
		<stop  offset="0.5646" style="stop-color:#A1A1FB"/>
		<stop  offset="0.8076" style="stop-color:#C8C8FB"/>
		<stop  offset="1" style="stop-color:#ECECFB"/>
	</linearGradient>
	<path class="st1" d="M1182.7,585.3V349.7c-25.7,22.1-58,39.8-98.2,52.8c-118.4,38.3-276-21.9-382.3,38.2
		c-48.4,27.4-93.7,84.5-107.5,144.6H1182.7z"/>
</g>
</svg>
