<svg width="178" height="193" viewBox="0 0 178 193" fill="none" xmlns="http://www.w3.org/2000/svg">
<path d="M166.41 49.8018C163.077 31.9467 151.769 -6.26332 111.773 0.878733C71.8967 8.02078 73.4441 9.09209 46.4233 11.9489C19.4026 14.8057 4.99945 11.9489 5.83269 21.5907C5.83269 21.5907 4.99945 30.3992 17.498 31.7086C17.498 31.7086 27.1398 32.5418 29.6395 47.5401L34.758 78.0129C34.758 78.0129 40.7097 144.315 105.821 135.744C171.052 127.055 169.743 67.6569 166.41 49.8018ZM147.483 73.1325C147.483 73.1325 145.222 101.939 114.749 107.533C84.3953 113.247 69.516 82.06 69.516 82.06L48.0898 41.1123C42.3762 27.0663 49.3992 28.4947 71.8967 26.114C94.2751 23.7333 114.987 22.781 132.009 28.6137C150.935 35.1606 147.483 73.1325 147.483 73.1325Z" fill="url(#paint0_linear)"/>
<path d="M79.5148 141.577C66.7782 136.459 52.137 143.244 46.6614 156.694C41.1858 170.145 47.1375 185.263 59.7552 190.381C72.4918 195.5 87.133 188.715 92.6086 175.264C98.0842 161.694 92.2515 146.696 79.5148 141.577ZM71.6586 177.883C63.6833 179.192 56.1841 173.835 54.7557 165.86C53.4464 157.885 58.8029 150.386 66.7782 148.957C74.7535 147.648 82.2526 153.004 83.681 160.98C84.9904 169.074 79.6339 176.573 71.6586 177.883Z" fill="url(#paint1_linear)"/>
<path d="M165.696 126.222C155.34 122.175 143.436 127.65 139.032 138.363C134.628 149.195 139.389 161.218 149.626 165.265C159.982 169.312 171.885 163.837 176.29 153.123C180.813 142.291 176.052 130.269 165.696 126.222ZM159.268 155.385C152.84 156.456 146.65 152.171 145.579 145.862C144.508 139.435 148.912 133.483 155.34 132.292C161.767 131.221 167.957 135.506 169.029 141.815C170.219 148.243 165.815 154.314 159.268 155.385Z" fill="url(#paint2_linear)"/>
<path d="M18.0932 175.145C1.66648 180.858 0 182.406 0 182.406C0 182.406 2.26165 183.001 19.5216 180.382C36.6625 177.764 33.8057 174.073 33.8057 174.073C33.8057 174.073 34.5199 169.431 18.0932 175.145Z" fill="url(#paint3_linear)"/>
<path d="M31.4251 186.334C17.1409 191.333 15.5935 192.762 15.5935 192.762C15.5935 192.762 17.6171 193.238 32.6154 190.976C47.6137 188.715 44.9949 185.501 44.9949 185.501C44.9949 185.501 45.7092 181.335 31.4251 186.334Z" fill="url(#paint4_linear)"/>
<defs>
<linearGradient id="paint0_linear" x1="5.76948" y1="68.1386" x2="167.618" y2="68.1386" gradientUnits="userSpaceOnUse">
<stop stop-color="#682690"/>
<stop offset="0.0360061" stop-color="#63258E"/>
<stop offset="0.2583" stop-color="#4A2185"/>
<stop offset="0.4886" stop-color="#371E7F"/>
<stop offset="0.73" stop-color="#2D1D7B"/>
<stop offset="1" stop-color="#291C7A"/>
</linearGradient>
<linearGradient id="paint1_linear" x1="44.6682" y1="165.893" x2="94.6824" y2="165.893" gradientUnits="userSpaceOnUse">
<stop stop-color="#682690"/>
<stop offset="0.0360061" stop-color="#63258E"/>
<stop offset="0.2583" stop-color="#4A2185"/>
<stop offset="0.4886" stop-color="#371E7F"/>
<stop offset="0.73" stop-color="#2D1D7B"/>
<stop offset="1" stop-color="#291C7A"/>
</linearGradient>
<linearGradient id="paint2_linear" x1="137.358" y1="145.76" x2="178.032" y2="145.76" gradientUnits="userSpaceOnUse">
<stop stop-color="#682690"/>
<stop offset="0.0360061" stop-color="#63258E"/>
<stop offset="0.2583" stop-color="#4A2185"/>
<stop offset="0.4886" stop-color="#371E7F"/>
<stop offset="0.73" stop-color="#2D1D7B"/>
<stop offset="1" stop-color="#291C7A"/>
</linearGradient>
<linearGradient id="paint3_linear" x1="-0.0410668" y1="177.429" x2="33.8419" y2="177.429" gradientUnits="userSpaceOnUse">
<stop stop-color="#682690"/>
<stop offset="0.0360061" stop-color="#63258E"/>
<stop offset="0.2583" stop-color="#4A2185"/>
<stop offset="0.4886" stop-color="#371E7F"/>
<stop offset="0.73" stop-color="#2D1D7B"/>
<stop offset="1" stop-color="#291C7A"/>
</linearGradient>
<linearGradient id="paint4_linear" x1="15.5855" y1="188.316" x2="45.116" y2="188.316" gradientUnits="userSpaceOnUse">
<stop stop-color="#682690"/>
<stop offset="0.0360061" stop-color="#63258E"/>
<stop offset="0.2583" stop-color="#4A2185"/>
<stop offset="0.4886" stop-color="#371E7F"/>
<stop offset="0.73" stop-color="#2D1D7B"/>
<stop offset="1" stop-color="#291C7A"/>
</linearGradient>
</defs>
</svg>
