<?xml version="1.0" encoding="utf-8"?>
<!-- Generator: Adobe Illustrator 23.0.1, SVG Export Plug-In . SVG Version: 6.00 Build 0)  -->
<svg version="1.1" id="Capa_1" xmlns="http://www.w3.org/2000/svg" xmlns:xlink="http://www.w3.org/1999/xlink" x="0px" y="0px"
	 viewBox="0 0 750 789" style="enable-background:new 0 0 750 789;" xml:space="preserve">
<style type="text/css">
	.st0{opacity:0.2;fill:#A1A1A1;}
	.st1{fill:#8C6BFF;}
	.st2{font-family:'Montserrat-ExtraBold';}
	.st3{font-size:73.0785px;}
	.st4{fill:#4E32B0;}
	.st5{fill:#38247E;}
	.st6{fill:#E69696;}
	.st7{fill:#FFFFFF;}
	.st8{fill:#E9C0A6;}
	.st9{fill:#F0D4C9;}
	.st10{fill:#E6DFDB;}
	.st11{fill:#C9A791;}
	.st12{fill:#DBB59D;}
	.st13{fill:#7FA337;}
	.st14{fill:#9BBA68;}
	.st15{opacity:0.52;}
	.st16{fill:#A2CA98;}
	.st17{fill:#FCF6F1;}
	.st18{fill:#C4A38E;}
	.st19{fill:#C8A690;}
	.st20{fill:#D9B39C;}
	.st21{opacity:0.3;fill:#7FA337;}
	.st22{fill:#CBB48F;}
	.st23{fill:none;}
	.st24{font-family:'Montserrat-Black';}
	.st25{font-size:11.8405px;}
	.st26{font-family:'Montserrat-Bold';}
	.st27{font-size:19px;}
	.st28{fill:#3D3845;}
	.st29{fill:#BBBDF8;}
	.st30{fill:#E6E7E8;}
	.st31{opacity:0.2;fill:#3D3845;}
	.st32{opacity:0.3;fill:#FFFFFF;}
	.st33{fill:#E3A03A;}
	.st34{fill:#272425;}
	.st35{fill:none;stroke:#A1A1A1;stroke-width:4;stroke-linecap:round;stroke-linejoin:round;}
	.st36{fill:none;stroke:#A1A1A1;stroke-width:4;stroke-linecap:round;stroke-linejoin:round;stroke-dasharray:6.902,6.902;}
	.st37{fill:none;stroke:#A1A1A1;stroke-width:4;stroke-linecap:round;stroke-linejoin:round;stroke-miterlimit:10;}
	.st38{fill:none;stroke:#A1A1A1;stroke-width:4;stroke-linecap:round;stroke-linejoin:round;stroke-dasharray:6.9634,6.9634;}
	.st39{fill:#624CB0;}
	.st40{fill:#432C99;}
	.st41{fill:#C1D1DB;}
	.st42{font-size:34.5802px;}
</style>
<g>
	<g>
		<path class="st0" d="M365,497v-3.9C365,494.5,364.7,495.7,365,497z"/>
		<path class="st0" d="M453.2,560.2c-1.5-6.3-2-13-1-20.6c8.5-61.3-35.6-56.9-83.4-49.5c-46,7.1-90.5-40.3-134.4-20.7
			c-19,8.5-19.1,37.9-27.6,54.5c-12.6,24.6-42.7,23.2-63.2,36.4c-69.5,44.6,6.3,139.9,73.8,107.7c52.5-25,82.5,17,122.8,41.7
			c36.7,22.6,89.7,14.3,117.6-14.3c18.9-19.4,30.5-46.9,23.7-74.1C475.6,598.2,458.5,582,453.2,560.2z"/>
	</g>
	<path class="st0" d="M298.8,188.8c2.8-22.8,46.2-57.4,16.4-76.7c-19.9-12.9-44.8,7.5-64.7,10.8c-25.9,4.2-47.2-14.6-70.7-21.7
		c-39.9-11.9-92.3-7.1-123.1,23.3c-25.3,25-30.4,68.8-11.2,98.8c7.9,12.4,19.8,20.3,32,28c4.5,2.8,18.7,9.3,19.6,15.7
		c3.1,20.9-9.3,54.1,14.8,67.2c20.6,11.2,42.5-5.9,57.8-18.4c15.7-12.8,31.7-23.8,52.4-26.2c24.8-2.9,49.7,3.5,74.5,3.4
		c23-0.1,69.6-17.7,55.9-48.7c-9.8-22.2-41.1-21.5-51.4-42C298.8,197.9,298.2,193.4,298.8,188.8z"/>
	<g>
		<text transform="matrix(1 0 0 1 70.3608 218.8413)" class="st1 st2 st3">1</text>
	</g>
	<g>
		<text transform="matrix(1 0 0 1 574.8135 410.0156)" class="st4 st2 st3">2</text>
	</g>
	<g>
		<text transform="matrix(1 0 0 1 144.5444 631.1172)" class="st5 st2 st3">3</text>
	</g>
	<g>
		<g>
			<path class="st6" d="M463.1,578.1c0.4,34.3-47.2,75.1-47.2,75.1s-48.6-40.9-49-73.9c-0.3-26.6,21-48.4,47.5-48.7
				C441,530.2,462.8,551.5,463.1,578.1"/>
		</g>
		<g>
			<path class="st7" d="M451.2,579.5c0.2,20-15.8,36.5-35.8,36.7c-20,0.2-36.5-15.8-36.7-35.8c-0.2-20,15.8-36.4,35.8-36.7
				C434.6,543.5,451,559.5,451.2,579.5"/>
		</g>
		<g>
			<g>
				<path class="st5" d="M440,587.4c0.1-0.2,0.2-0.2,0.3-0.1c0.2,0.3,0.4,0.6,0.5,1c0,0.3-0.1,0.5-0.3,0.6c-0.5,0.3-0.9,0.8-1.4,1.2
					c-0.2,0.2-0.4,0.3-0.6,0.3c-0.5,0.1-0.9,0.4-1.4,0.6c-0.4,0.3-0.9,0.5-1.3,0.8c-0.5,0.3-1,0.4-1.5,0.5c-0.1,0-0.1,0-0.2,0
					c-0.3,0.1-0.6,0-0.8-0.2c-0.2-0.2-0.6-0.2-0.7,0.1c0,0.1,0,0.1-0.1,0.2c-0.1,0.2-0.2,0.3-0.4,0.2c-0.1,0-0.3-0.1-0.4,0
					c-0.3,0.1-0.4,0.3-0.3,0.5c0.1,0.2,0.1,0.5,0.2,0.7c0,0.2,0,0.3,0,0.5c-0.1,0.3-0.3,0.4-0.5,0.2c-0.5-0.3-0.9-0.5-1.3-0.8
					c-0.2-0.1-0.5-0.3-0.7-0.4c-0.1,0-0.2,0-0.3,0c-0.1,0-0.1,0-0.2,0.1c-0.3,0.2-0.6,0.1-0.9-0.1c-0.3-0.2-0.6-0.3-1-0.1
					c-0.1,0.1-0.3,0.1-0.4,0.1c-0.2,0.1-0.3,0-0.4-0.2c-0.1-0.1-0.1-0.3-0.2-0.4c-0.2-0.5-0.4-0.6-0.9-0.5c-0.1,0-0.2,0-0.3,0.1
					c-0.4,0.1-0.7,0-1-0.3c-0.1-0.1-0.3-0.2-0.5-0.2c-0.2,0-0.3,0.1-0.2,0.3c0.2,0.3,0.3,0.6,0.5,0.8c0.4,0.4,0.8,0.8,1.2,1.2
					c0.5,0.5,0.7,1.1,0.8,1.8c0,0.1,0,0.2,0,0.3c0,0.4,0.1,0.8,0.4,1.1c0.4,0.4,0.5,1,0.2,1.6c-0.1,0.3-0.1,0.4,0.1,0.7
					c0.5,0.4,1.3,0.5,1.9,0.2c0.2-0.1,0.3-0.2,0.5-0.2c0.3-0.1,0.6,0.1,0.6,0.4c0,0.4-0.2,0.6-0.4,0.9c-0.4,0.4-0.9,0.6-1.4,0.8
					c-0.2,0.1-0.5,0.2-0.7,0.3c-0.3,0.1-0.4,0.3-0.4,0.6c0,0.1,0,0.2,0,0.3c0,0.3-0.1,0.6-0.4,0.8c-0.3,0.2-0.6,0.4-0.9,0.6
					c0,0-0.1,0-0.1,0.1c-0.1,0-0.2,0-0.3,0c0-0.1,0-0.2,0-0.3c-0.3-0.1-0.7,0-0.9,0.3c-0.1,0.1-0.2,0.2-0.2,0.3
					c-0.1,0.1-0.2,0.2-0.4,0.2c0,0-0.1,0-0.1,0c-0.3,0.1-0.6,0.2-0.9,0.3c-0.2,0.1-0.4,0.1-0.5,0.2c-0.1,0.1-0.1,0.2-0.1,0.3
					c0,0,0,0.1,0,0.2c0,0.3,0,0.4-0.3,0.5c-0.1,0-0.3,0.1-0.4,0.1c-0.2,0-0.4,0.2-0.5,0.4c-0.1,0.1-0.1,0.3-0.2,0.4
					c-0.1,0.2-0.3,0.3-0.5,0.2c-0.2-0.1-0.3-0.3-0.2-0.5c0-0.1,0.1-0.1,0.1-0.2c0.1-0.2,0.2-0.3,0-0.5c-0.2-0.2-0.3-0.2-0.5-0.1
					c-0.3,0.1-0.5,0.3-0.8,0.5c-0.3,0.2-0.6,0.4-1,0.5c-0.2,0-0.4,0-0.6-0.1c-0.6-0.5-1.2-0.9-1.7-1.4c-0.2-0.2-0.4-0.4-0.6-0.5
					c-0.3-0.2-0.5-0.5-0.6-0.8c-0.1-0.3-0.3-0.6-0.4-0.9c-0.1-0.1,0-0.3-0.1-0.4c-0.1-0.2-0.1-0.4-0.2-0.6c-0.1-0.1-0.2-0.2-0.2-0.3
					c-0.1-0.2-0.2-0.3-0.1-0.5c0.1-0.2,0-0.3-0.1-0.4c-0.2-0.1-0.3-0.3-0.2-0.5c0.1-0.3-0.1-0.5-0.2-0.7c-0.3-0.3-0.6-0.6-1-0.7
					c-0.2-0.1-0.4-0.3-0.5-0.4c-0.1-0.1-0.2-0.1-0.3-0.1c0,0-0.1,0-0.1,0c-0.1-0.2-0.3-0.1-0.5-0.1c-0.1,0-0.2-0.1-0.3-0.1
					c0-0.1,0-0.2,0-0.3c0.2-0.2,0.3-0.3,0.5-0.4c0.1-0.1,0.3-0.2,0.4-0.4c0.4-0.3,0.7-0.7,1.1-1c0.1-0.1,0.2-0.2,0.3-0.4
					c0.1-0.2,0-0.4-0.1-0.5c-0.1-0.1-0.2-0.2-0.3-0.3c-0.2-0.2-0.3-0.4-0.5-0.5c-0.3-0.2-0.5-0.4-0.4-0.8c0-0.1,0-0.2-0.1-0.3
					c-0.5-0.4-0.6-0.8-0.6-1.4c0-0.3-0.1-0.5-0.3-0.8c-0.2-0.2-0.2-0.5-0.2-0.7c0.1-0.3,0.1-0.6,0.2-1c0-0.1,0.1-0.3,0.1-0.4
					c0.2-0.4,0.2-0.7-0.1-1.1c-0.1-0.2-0.2-0.3-0.2-0.5c0-0.4,0.2-0.6,0.6-0.7c0.3-0.1,0.5-0.2,0.5-0.5c0-0.5,0.3-1,0.6-1.4
					c0.1-0.1,0.1-0.2,0-0.4c-0.3-0.4-0.6-0.7-1-1c-0.3-0.2-0.7-0.1-1,0.2c-0.2,0.2-0.4,0.3-0.6,0.2c-0.2-0.1-0.4-0.1-0.6,0.1
					c-0.2,0.2-0.5,0.1-0.7,0.1c-0.2,0-0.4,0-0.6,0.1c-0.2,0.1-0.4,0.1-0.6,0c-0.2-0.1-0.4-0.2-0.5-0.3c-0.2-0.1-0.4-0.1-0.6,0
					c-0.2,0.1-0.3,0.3-0.5,0.4c-0.2,0.2-0.5,0.3-0.8,0.1c-0.1-0.1-0.2-0.1-0.4,0c-0.3,0.1-0.4,0-0.6-0.3c-0.2-0.4-0.5-0.7-0.8-1.1
					c-0.5-0.6-0.9-1.2-1.4-1.7c-0.1-0.1-0.3-0.2-0.4-0.3c-0.2-0.1-0.3-0.1-0.5,0c-0.1,0.1-0.3,0.1-0.4,0c0,0-0.1-0.1-0.2-0.1
					c-0.5,0-0.8-0.4-1.3-0.4c-0.2,0-0.4,0-0.5,0c-0.2,0-0.3,0.1-0.4,0.2c-0.2,0.1-0.3,0.2-0.5,0.2c-0.2,0-0.4-0.1-0.6,0.1
					c-0.2,0.1-0.4,0-0.6-0.1c-0.2-0.1-0.4-0.2-0.6-0.1c-0.3,0.1-0.6,0.1-0.9-0.1c0,0-0.2,0-0.3,0c-0.1,0.1-0.2,0.2-0.4,0.2
					c-0.2,0.1-0.4,0.2-0.6,0c-0.2-0.1-0.4-0.3-0.6-0.4c-0.2-0.2-0.3-0.4-0.3-0.7c0-0.1,0-0.2,0-0.3c0-0.2-0.1-0.2-0.3-0.2
					c0,0-0.1,0-0.1,0c-0.5,0.1-0.7,0-0.9-0.5c-0.1-0.2,0-0.4,0-0.6c0.1-0.4,0.1-0.9,0.2-1.3c0-0.2,0.1-0.3,0.2-0.5
					c0.2-0.4,0.2-0.4-0.1-0.8c-0.1-0.1-0.1-0.3-0.2-0.4c0-0.2-0.1-0.4-0.3-0.5c-0.3-0.2-0.5-0.4-0.7-0.6c-0.2-0.2-0.2-0.4-0.1-0.7
					c0-0.1,0-0.2,0-0.3c-0.1-0.3-0.2-0.7-0.4-1c-0.1-0.2-0.2-0.2-0.3-0.2c-0.1,0-0.1,0-0.2,0c-0.3,0-0.3-0.1-0.3-0.4
					c0-0.1,0-0.3-0.1-0.4c0,0-0.1-0.1-0.2,0c-0.1,0.1-0.3,0.2-0.4,0.3c-0.1,0.1-0.3,0.2-0.4,0.3c-0.1,0.1-0.2,0.1-0.4,0
					c-0.2-0.1-0.3-0.2-0.1-0.4c0.3-0.3,0.4-0.7,0.6-1.1c0.2-0.4,0.4-0.7,0.6-1.1c0.4-0.8,0.5-1.7,0.6-2.5c0-0.6,0.2-1.1,0.6-1.6
					c0.3-0.4,0.5-0.8,0.6-1.2c0.2-0.4,0.5-0.6,0.9-0.6c0.5,0,0.9-0.4,1-0.9c0.1-0.3,0.1-0.7,0.3-1c0.2-0.4,0.4-0.7,1-0.7
					c0.4,0,0.8-0.1,1.1-0.4c0.2-0.2,0.5-0.3,0.8-0.2c0.1,0,0.2,0.1,0.3,0.2c0.1,0.1,0,0.3-0.1,0.3c-0.3,0.1-0.6,0.3-0.9,0.4
					c-0.4,0.1-0.8,0.2-1.1,0.4c-0.6,0.2-0.7,0.6-0.4,1.2c0.1,0.2,0.2,0.5,0.3,0.7c0.1,0.2,0.3,0.2,0.4,0.2c0.1,0,0.3,0,0.4,0
					c0.2,0,0.3,0.2,0.1,0.4c-0.4,0.3-0.2,0.5,0,0.8c0,0,0,0,0,0c0.4,0.7,0.4,0.5-0.1,1.2c-0.5,0.7-1,1.3-1.5,2
					c-0.2,0.2-0.3,0.5-0.4,0.7c-0.1,0.2-0.2,0.5,0,0.7c0.2,0.3,0.4,0.5,0.6,0.7c0.1,0.1,0.2,0.2,0.3,0.3c0.1,0.1,0.2,0.2,0.3,0.3
					c0.3,0.2,0.3,0.4,0.2,0.7c-0.1,0.3,0.2,0.8,0.6,0.9c1.3,0.1,2.7-1.2,2.6-2.6c0-0.3-0.1-0.6-0.3-0.9c-0.4-0.7-0.8-1.3-1.2-2
					c-0.1-0.1-0.1-0.2-0.1-0.3c-0.2-0.5-0.3-0.9-0.5-1.4c-0.1-0.3-0.1-0.4,0.2-0.5c0.2-0.1,0.4-0.2,0.5-0.4c0-0.1,0.1-0.2,0.2-0.2
					c0.2-0.2,0.4-0.3,0.6-0.3c0.1,0,0.1,0,0.2,0c0.4,0.1,0.8-0.1,1.1-0.4c0.2-0.2,0.4-0.3,0.7-0.2c0.1,0,0.2,0,0.2-0.1
					c0.2-0.1,0.3-0.3,0.4-0.4c0.2-0.1,0.3-0.1,0.5-0.2c0.2,0,0.4-0.1,0.6-0.3c0.2-0.2,0.3-0.3,0.6-0.2c0.1,0,0.2,0,0.2,0
					c0.1,0,0.2-0.1,0.1-0.3c0,0-0.1-0.1-0.1-0.1c-0.1-0.1,0-0.3,0.1-0.3c0.2,0,0.3,0.1,0.5,0.2c0.2,0.1,0.4,0.2,0.6,0.3
					c0.2,0.1,0.3-0.1,0.2-0.2c-0.1-0.2-0.2-0.4-0.3-0.6c0-0.1-0.2-0.1-0.2-0.1c-0.2,0-0.4,0.1-0.6,0.2c-0.3,0.1-0.6,0.1-0.8-0.1
					c-0.1,0-0.1-0.2-0.2-0.2c-0.1-0.2-0.1-0.5-0.2-0.7c-0.1-0.3-0.1-0.5,0.1-0.7c0.1-0.1,0.1-0.2,0.2-0.3c0.1-0.5,0.6-0.7,1-0.5
					c0.4,0.2,0.7,0.6,0.8,1c0.1,0.5,0.2,1.1,0.5,1.5c0.2,0.3,0.4,0.4,0.8,0.3c1-0.3,1.9-0.1,2.8,0.3c0.6,0.2,1.1,0.6,1.5,1.1
					c0.1,0.2,0.3,0.3,0.5,0.4c0.3,0.2,0.4,0.4,0.4,0.7c0,0.1,0,0.3,0,0.4c0,0.5,0.2,0.8,0.7,1c0.4,0.2,0.8,0.2,1.2,0.2
					c0.6,0,1.3,0,1.9-0.1c0.3,0,0.6-0.1,0.8-0.2c0.5-0.2,1-0.2,1.6-0.2c0.8,0,1.5,0.1,2.3,0.1c0.2,0,0.5,0,0.7,0.1
					c0.1,0,0.2,0.1,0.2,0.2c0,0.6,0.4,0.9,0.9,1.1c0.3,0.1,0.6,0.3,0.9,0.4c0.6,0.3,1.1,0.2,1.7,0.1c0.3,0,0.5,0,0.7,0.2
					c0,0,0.1,0.1,0.2,0.1c0.2-0.2,0.4-0.3,0.7-0.2c0.1,0,0.2-0.1,0.3-0.2c0.1-0.2,0.3-0.3,0.5-0.3c0.4-0.1,0.9-0.2,1.3-0.4
					c0.2-0.1,0.4-0.3,0.5-0.5c0.1-0.1,0.2-0.2,0.3-0.3c0.2-0.2,0.5-0.2,0.7-0.1c0.3,0.2,0.7,0.2,1,0.1c0.1-0.2,0-0.2-0.1-0.2
					c-0.6-0.1-1.2-0.4-1.8-0.1c-0.1,0-0.2,0.1-0.3-0.1c-0.1-0.2,0-0.3,0.2-0.4c0.4,0,0.8-0.2,1.3-0.1c0.1,0,0.2,0,0.3-0.1
					c0.2-0.1,0.5-0.2,0.8-0.1c0.2,0.1,0.3,0,0.5-0.1c0.2-0.1,0.4-0.1,0.5-0.1c0.5,0.1,0.9,0,1.4-0.1c0.7-0.1,1.5-0.3,2.2-0.3
					c0.3,0,0.6,0,0.9,0c0.7,0.1,1.3,0.1,2,0c0.1,0,0.3-0.1,0.4,0.1c0,0.2-0.1,0.3-0.3,0.3c-0.1,0.1-0.3,0.1-0.4,0.1
					c-0.7,0-1.3,0.2-1.9,0.4c-0.4,0.1-0.8,0.1-1.1,0.2c-0.1,0-0.2,0.1-0.4,0.1c0.1,0.1,0.1,0.2,0.2,0.3c0.3,0.2,0.5,0.4,0.5,0.8
					c0,0.1,0.1,0.2,0.1,0.2c0.1,0,0.1-0.1,0.2-0.1c0.1,0,0.2,0,0.2,0c0.2,0.1,0.3,0.4,0.2,0.7c-0.1,0.3,0,0.3,0.2,0.5
					c0.2,0.1,0.4,0.1,0.5,0c0,0,0,0,0.1-0.1c0.5-0.5,1-0.3,1.4,0.1c0.2,0.2,0.3,0.4,0.5,0.6c0,0,0.1-0.1,0.1-0.1
					c0.1-0.2,0.3-0.2,0.5-0.1c0.2,0.1,0.3,0.1,0.5,0c0,0,0-0.1,0-0.1c-0.1-0.1-0.1-0.2,0-0.3c0.1-0.1,0.2,0,0.3,0
					c0.1,0.1,0.3,0.2,0.4,0.3c0.4,0.6,1,0.8,1.7,0.9c0,0,0,0,0,0c0.3,0.1,1.1,0.9,1.1,1.2c0,0.1-0.1,0.2-0.1,0.2
					c-0.2,0-0.3,0.2-0.4,0.3c-0.1,0.3-0.3,0.7-0.3,1c0,0.3,0.1,0.6-0.2,0.7c-0.2,0.5,0.1,0.9,0.6,0.9c0.3,0,0.7-0.1,1-0.2
					c0.2-0.1,0.5-0.1,0.7,0.1c0.2,0.1,0.4,0.1,0.6,0c0.5-0.4,1-0.3,1.5-0.2c0.4,0.1,0.7,0.2,1,0.5c0.3,0.3,0.4,0.8,0.2,1.2
					c-0.1,0.1-0.2,0.2-0.3,0.2c-0.2,0.1-0.4,0.2-0.4,0.4c-0.2,0.6-0.8,1-1.3,1.3c-0.2,0.1-0.3,0.2-0.5,0.3c-0.2,0.1-0.4,0.2-0.5,0.4
					c-0.3,0.3-0.4,0.5-0.2,0.9c0.2,0.3,0.2,0.6,0.2,1c0,0.2,0.1,0.3,0.3,0.2c0.3-0.1,0.5-0.2,0.8,0c0.3,0.1,0.3,0.3,0.2,0.6
					c-0.1,0.3-0.3,0.6-0.7,0.8c-0.3,0.2-0.5,0.4-0.8,0.6c-0.1,0.1-0.3,0.1-0.4,0c-0.4-0.2-0.7-0.1-1.1,0.1c-0.1,0.1-0.2,0.1-0.4,0.2
					c-0.4,0.1-0.6,0.4-0.4,0.8c0.1,0.3,0.2,0.5,0.3,0.8c0.1,0.2,0,0.4-0.1,0.6c-0.1,0.1-0.1,0.2-0.2,0.2c-0.2,0.3-0.3,0.5-0.5,0.8
					c-0.1,0.1-0.1,0.2,0,0.3c0.3,0.4,0.6,0.8,1,1.1c0.4,0.4,0.8,0.8,1.2,1.2C439.7,587.1,439.8,587.2,440,587.4"/>
			</g>
			<g>
				<path class="st5" d="M425.4,563.4c-0.2,0-0.3-0.1-0.4-0.1c-0.1,0-0.2,0-0.2,0c-0.1,0.1-0.2,0.1-0.3-0.1
					c-0.1-0.2-0.2-0.2-0.4-0.1c-0.2,0-0.4,0-0.6,0c0,0-0.1,0-0.1-0.1c0-0.1,0-0.2,0-0.2c0.2-0.2,0.5-0.3,0.8-0.4
					c0.1,0,0.2,0.1,0.3,0.1c0.1,0,0.1,0.1,0.2,0.2c0.3,0.1,0.4,0.1,0.5-0.2c0.1-0.1,0.1-0.2,0.2-0.3c0.1-0.2,0.3-0.2,0.4,0
					c0.1,0.1,0.2,0.2,0.3,0.3c0.1,0.1,0.2,0.3,0.1,0.4C426,563.2,425.7,563.3,425.4,563.4"/>
			</g>
			<g>
				<path class="st5" d="M420,563.6c-0.2,0-0.5,0-0.7-0.1c-0.1,0-0.2-0.2-0.2-0.3c0-0.1,0.3-0.3,0.4-0.2c0.2,0.1,0.4,0.2,0.6,0.3
					c0.1,0,0.1,0.1,0.1,0.2C420.2,563.6,420.1,563.6,420,563.6C420,563.6,420,563.6,420,563.6"/>
			</g>
			<g>
				<path class="st5" d="M425.4,563.6c0.1,0,0.2,0.1,0.3,0.2c0.1,0.1,0.1,0.2,0.1,0.3c0,0.1-0.1,0.1-0.2,0.1c-0.2,0.1-0.4,0-0.6-0.2
					c-0.2-0.2-0.1-0.3,0.1-0.3C425.2,563.6,425.3,563.6,425.4,563.6"/>
			</g>
		</g>
	</g>
	<g>
		<g>
			<path class="st8" d="M360.6,646.2c3.1-8.9,0.7-14.8,0.7-14.8l-18-48.2c-12.2-6.5-11.3,16-11.3,16l9.2,37.8l-2.7,4.3
				C345.3,644.7,352.9,646.2,360.6,646.2z"/>
			<g>
				<path class="st9" d="M348.5,596.6c0,0-4.5,2.1-6.7-5.5l-1.7-8.6c0,0,1.9-0.7,3.2-0.4L348.5,596.6z"/>
				<path class="st10" d="M348.5,596.6c0,0-1.2,0.5-2.1,0.2c0,0,0.6-1.3,1.6-1.6L348.5,596.6z"/>
				<path class="st11" d="M348.5,596.6c0,0-3,1.6-5.3-2.3C343.1,594.3,344.4,599,348.5,596.6z"/>
			</g>
			<path class="st12" d="M350.8,636.9c0,0-3.2-2.2-9.9-1.2l0.2,1.4C341.1,637.1,346.3,636.1,350.8,636.9z"/>
			<path class="st12" d="M344.5,611.3c0,0-7,0.7-8.7,3.9l-0.2-2C335.6,613.1,338.9,610,344.5,611.3z"/>
		</g>
		<g>
			<g>
				<path class="st13" d="M299.9,520.2l-11,140.1c-0.2,2.6-2.5,4.6-5.2,4.4l-56.8-4.5c-2.6-0.2-4.6-2.5-4.4-5.2l11-140.1
					c0.2-2.6,2.5-4.6,5.2-4.4l56.8,4.5C298.1,515.3,300.1,517.6,299.9,520.2"/>
			</g>
			<g>
				<g>
					<g>
						<path class="st14" d="M250.5,524.5c-0.3,3.9-3.5,5.6-6.4,5.2l-8.8,112.8c3.2-0.6,6.9,1.6,6.6,6c0,0.5-0.1,1-0.3,1.4l31.1,2.4
							c0-0.1,0-0.1,0-0.2c0.3-4,3.6-5.7,6.6-5.1l8.9-113.9c-3,0.1-6-2.1-5.7-6.1c0-0.5,0.1-1,0.3-1.4l-32.4-2.5
							C250.6,523.5,250.6,524,250.5,524.5"/>
					</g>
				</g>
			</g>
			<g class="st15">
				<g>
					<g>
						<path class="st16" d="M222.9,661.3c-2-1.5-3.1-3.9-2.9-6.4l11-140.1c0.3-4,3.8-7,7.8-6.7l56.8,4.4c1.4,0.1,2.7,0.6,3.8,1.4
							c2,1.5,3.1,3.9,2.9,6.4l-11,140.1c-0.3,4-3.8,7-7.8,6.7l-56.8-4.5C225.4,662.6,224,662.1,222.9,661.3z M296.5,518
							c-0.4-0.3-0.8-0.4-1.2-0.5l-56.8-4.5c-1.3-0.1-2.4,0.9-2.5,2.1l-11,140.1c-0.1,0.8,0.3,1.6,0.9,2c0.4,0.3,0.8,0.4,1.2,0.5
							l56.8,4.5c1.3,0.1,2.4-0.9,2.5-2.1l11-140.1C297.4,519.2,297.1,518.5,296.5,518z"/>
					</g>
				</g>
			</g>
			<g>
				<g>
					<path class="st13" d="M258.5,636.3c2.1,0.2,3.7,2.1,3.6,4.4c-0.2,2.3-2.1,4-4.2,3.8c-2.1-0.2-3.7-2.1-3.6-4.4
						C254.5,637.8,256.3,636.1,258.5,636.3"/>
				</g>
				<g>
					<path class="st13" d="M266.2,531c2.1,0.2,3.7,2.1,3.5,4.4c-0.2,2.3-2.1,4-4.2,3.8c-2.1-0.2-3.7-2.1-3.5-4.4
						C262.2,532.5,264,530.8,266.2,531"/>
				</g>
				<g>
					<path class="st13" d="M263.2,572.5c8.7,0.7,15.2,8.7,14.5,17.9c-0.7,9.2-8.4,16.1-17.1,15.4c-8.7-0.7-15.2-8.7-14.5-17.9
						C246.9,578.7,254.5,571.8,263.2,572.5"/>
				</g>
				<g>
					<path class="st13" d="M254.8,628.6l9.3,0.7l-0.2,2.3l-7.6-0.6l-0.2,2l-1.7-0.1L254.8,628.6z"/>
					<path class="st13" d="M259.5,627.3c-3.1-0.2-4.7-2.2-4.5-4.6c0.2-2.4,2.1-4.1,5.1-3.8c3.1,0.2,4.7,2.2,4.5,4.6
						C264.5,625.8,262.6,627.5,259.5,627.3z M260,621.1c-2.1-0.2-3,0.6-3.1,1.7c-0.1,1.1,0.7,2,2.8,2.1c2.1,0.2,3-0.6,3.1-1.7
						C262.9,622.2,262.1,621.3,260,621.1z"/>
					<path class="st13" d="M260.3,617.7c-3.1-0.2-4.7-2.2-4.5-4.6c0.2-2.4,2.1-4.1,5.1-3.8c3.1,0.2,4.7,2.2,4.5,4.6
						C265.2,616.3,263.4,618,260.3,617.7z M260.8,611.6c-2.1-0.2-3,0.6-3.1,1.7c-0.1,1.1,0.7,2,2.8,2.1c2.1,0.2,3-0.6,3.1-1.7
						C263.7,612.6,262.9,611.8,260.8,611.6z"/>
				</g>
				<g>
					<path class="st13" d="M258.7,563.8l9.3,0.7l-0.2,2.3l-7.6-0.6l-0.2,2l-1.7-0.1L258.7,563.8z"/>
					<path class="st13" d="M263.5,562.4c-3.1-0.2-4.7-2.2-4.5-4.6c0.2-2.4,2.1-4.1,5.1-3.8c3.1,0.2,4.7,2.2,4.5,4.6
						C268.4,561,266.6,562.7,263.5,562.4z M264,556.3c-2.1-0.2-3,0.6-3.1,1.7c-0.1,1.1,0.7,2,2.8,2.1c2.1,0.2,3-0.6,3.1-1.7
						C266.9,557.3,266.1,556.4,264,556.3z"/>
					<path class="st13" d="M264.3,552.9c-3.1-0.2-4.7-2.2-4.5-4.6c0.2-2.4,2.1-4.1,5.1-3.8c3.1,0.2,4.7,2.2,4.5,4.6
						C269.2,551.5,267.3,553.1,264.3,552.9z M264.7,546.8c-2.1-0.2-3,0.6-3.1,1.7c-0.1,1.1,0.7,2,2.8,2.1c2.1,0.2,3-0.6,3.1-1.7
						C267.7,547.8,266.8,546.9,264.7,546.8z"/>
				</g>
				<path class="st17" d="M274,591l0.2-2.4l-2.9-0.2c-0.1-3.3-1.3-4.9-2.4-5.7c-0.7-0.5-1.5-0.8-2.4-0.9c-3.7-0.3-4.9,3-5.7,5.8
					l-5.2-0.4c0.2-1.3,0.8-2.7,1.6-3.9l0.2-0.3l-2.6-1.4l-0.2,0.2c-1,1.3-1.7,3.2-2,5.1l-2.9-0.2l-0.2,2.4l2.9,0.2
					c0.1,3.2,1.3,4.7,2.3,5.5c0.7,0.5,1.6,0.8,2.5,0.9c3.7,0.3,5-3.1,5.7-5.6l5.2,0.4c-0.3,1.9-1.2,3.7-2.3,4.7l-0.3,0.3l2.5,1.5
					l0.2-0.2c1.3-1.3,2.4-3.6,2.8-6.2L274,591z M257.6,592.4c-1.2-0.1-2-1.1-2.1-2.9l4.6,0.4C259.3,591.8,258.6,592.5,257.6,592.4z
					 M263.9,587.8c0.6-1.7,1.3-2.8,2.5-2.7c0.4,0,0.7,0.1,1,0.4c0.6,0.5,1,1.4,1.1,2.7L263.9,587.8z"/>
			</g>
		</g>
		<path class="st18" d="M298,699.8l0.2-0.3c4.5-4.5,4.3-11.8,4.3-11.8l3.6-28.6c0.3-9.2-4-13.7-4-13.7L273,612.9
			c-11.6-1.3-4,16.1-4,16.1l18.9,27l-3.6,19.5l-11.2,18.1c-1,0.6-1.9,1.1-2.8,1.6L298,699.8z"/>
		<path class="st19" d="M310,701.1l10.6-22.5c4.6-5.9,3.5-14.4,3.5-14.4l0.3-34c-0.9-10.8-6.6-15.6-6.6-15.6l-38.5-34.1
			c-13.8,0-2.5,19.5-2.5,19.5l25.8,29.1l-1.6,23.4l-10.6,22.8c-6,4.6-11.3,7.1-15.9,8.2c0.4,1.1,0.9,2.2,1.4,3.2
			c1.9,4,4.2,7.8,6.6,11.5c1.3,1.9,2.6,4,4.1,5.8L310,701.1z"/>
		<path class="st20" d="M312.2,623.3l-5,22.9l-13.8,21c-6.6,3.7-12.2,5.4-16.9,5.8c0.3,1.2,0.6,2.3,0.9,3.4c1.3,4.2,3,8.3,4.9,12.3
			c1.7,3.6,3.4,7.3,5.7,10.5c3,4.1,6.6,7.5,10.5,10.7c0.2,0.2,0.4,0.4,0.7,0.5l23.5-35.5c5.4-5.2,5.6-13.7,5.6-13.7l5.2-33.6
			c0.6-10.8-4.2-16.3-4.2-16.3l-33.1-39.3c-13.7-2-5.3,18.9-5.3,18.9L312.2,623.3z"/>
		<path class="st21" d="M221,642l30.9,22.7l22.1,1.7l18.9-25.7l9.4-120.3c0.2-2.5-0.9-4.9-2.9-6.4c-0.4-0.3-0.9-0.6-1.4-0.8
			c-0.4,0.3-0.8,0.7-1.1,1.2l-73.7,100.5L221,642z"/>
		<g>
			<path class="st9" d="M306,583.2c0,0-3.5,3.5-8.2-2.9l-4.6-7.5c0,0,1.6-1.4,2.8-1.4L306,583.2z"/>
			<path class="st10" d="M306,583.2c0,0-1,0.8-1.9,0.9c0,0,0.1-1.4,0.9-2L306,583.2z"/>
			<path class="st11" d="M306,583.2c0,0-2.2,2.5-5.8-0.3C300.2,582.8,303,586.8,306,583.2z"/>
		</g>
		<g>
			<g>
				<path class="st13" d="M357.7,553.3L275,666.9c-1.6,2.1-4.6,2.6-6.7,1.1l-46-33.5c-2.1-1.6-2.6-4.6-1.1-6.7l82.7-113.6
					c1.6-2.1,4.6-2.6,6.7-1.1l46,33.5C358.8,548.2,359.3,551.2,357.7,553.3"/>
			</g>
			<g>
				<g>
					<g>
						<path class="st14" d="M313.5,531.2c-2.3,3.2-5.9,2.9-8.1,1.1l-66.6,91.5c3,1.2,5.1,5,2.5,8.6c-0.3,0.4-0.6,0.8-0.9,1
							l25.2,18.4c0-0.1,0.1-0.1,0.1-0.2c2.4-3.3,6.1-2.9,8.3-0.9l67.2-92.3c-2.6-1.5-4-4.9-1.7-8.2c0.3-0.4,0.6-0.8,0.9-1
							l-26.2-19.1C314,530.3,313.8,530.7,313.5,531.2"/>
					</g>
				</g>
			</g>
			<g class="st15">
				<g>
					<g>
						<path class="st16" d="M218.3,633.2c-0.9-2.3-0.6-4.9,0.9-7l82.7-113.6c2.4-3.2,6.9-4,10.2-1.6l46,33.5c1.1,0.8,2,1.9,2.5,3.2
							c0.9,2.3,0.6,4.9-0.9,7L277,668.4c-2.4,3.2-6.9,4-10.2,1.6l-46-33.5C219.7,635.6,218.8,634.5,218.3,633.2z M356,549.7
							c-0.2-0.4-0.4-0.8-0.8-1l-46-33.5c-1-0.8-2.5-0.5-3.2,0.5l-82.7,113.6c-0.5,0.7-0.6,1.5-0.3,2.2c0.2,0.4,0.4,0.8,0.8,1
							l46,33.5c1,0.8,2.5,0.5,3.2-0.5l82.7-113.6C356.2,551.2,356.3,550.4,356,549.7z"/>
					</g>
				</g>
			</g>
			<g>
				<g>
					<path class="st13" d="M261.7,630.5c1.7,1.3,2.1,3.8,0.7,5.6c-1.3,1.8-3.8,2.3-5.6,1c-1.7-1.3-2.1-3.8-0.7-5.6
						C257.5,629.7,260,629.3,261.7,630.5"/>
				</g>
				<g>
					<path class="st13" d="M323.4,544.9c1.7,1.3,2.1,3.8,0.7,5.6c-1.3,1.8-3.8,2.3-5.6,1c-1.7-1.3-2.1-3.8-0.7-5.6
						C319.2,544.1,321.6,543.6,323.4,544.9"/>
				</g>
				<g>
					<path class="st13" d="M299.1,578.7c7.1,5.1,8.4,15.4,2.9,22.8c-5.4,7.5-15.6,9.3-22.6,4.2c-7.1-5.1-8.4-15.4-2.9-22.8
						C281.9,575.4,292,573.6,299.1,578.7"/>
				</g>
				<g>
					<path class="st13" d="M262.5,622.1l7.5,5.5l-1.3,1.8l-6.1-4.5l-1.2,1.6l-1.4-1L262.5,622.1z"/>
					<path class="st13" d="M267.3,623.4c-2.5-1.8-2.8-4.3-1.4-6.2c1.4-2,3.9-2.4,6.4-0.6c2.5,1.8,2.8,4.3,1.4,6.2
						C272.3,624.8,269.8,625.2,267.3,623.4z M270.9,618.5c-1.7-1.2-2.9-1.1-3.6-0.2c-0.7,0.9-0.4,2.1,1.3,3.3
						c1.7,1.2,2.9,1.1,3.5,0.2C272.9,620.9,272.6,619.7,270.9,618.5z"/>
					<path class="st13" d="M272.9,615.7c-2.5-1.8-2.8-4.3-1.4-6.3c1.4-2,3.9-2.4,6.4-0.6c2.5,1.8,2.8,4.3,1.4,6.3
						C277.9,617.1,275.4,617.5,272.9,615.7z M276.6,610.7c-1.7-1.2-2.9-1.1-3.6-0.2c-0.7,0.9-0.4,2.1,1.3,3.3
						c1.7,1.2,2.9,1.1,3.5,0.2C278.5,613.1,278.3,612,276.6,610.7z"/>
				</g>
				<g>
					<path class="st13" d="M299.9,568.9l7.5,5.5l-1.3,1.8l-6.1-4.5l-1.2,1.6l-1.4-1L299.9,568.9z"/>
					<path class="st13" d="M304.7,570.2c-2.5-1.8-2.8-4.3-1.4-6.2c1.4-2,3.9-2.4,6.4-0.6c2.5,1.8,2.8,4.3,1.4,6.3
						C309.6,571.6,307.1,572.1,304.7,570.2z M308.3,565.3c-1.7-1.2-2.9-1.1-3.6-0.2c-0.7,0.9-0.4,2.1,1.3,3.3
						c1.7,1.2,2.9,1.1,3.5,0.2C310.2,567.7,310,566.5,308.3,565.3z"/>
					<path class="st13" d="M310.3,562.5c-2.5-1.8-2.8-4.3-1.4-6.2c1.4-2,3.9-2.4,6.4-0.6c2.5,1.8,2.8,4.3,1.4,6.2
						C315.2,563.9,312.8,564.3,310.3,562.5z M313.9,557.6c-1.7-1.2-2.9-1.1-3.6-0.2c-0.7,0.9-0.4,2.1,1.3,3.3
						c1.7,1.2,2.9,1.1,3.5,0.2C315.9,560,315.6,558.8,313.9,557.6z"/>
				</g>
				<path class="st17" d="M298.7,600.1l1.4-2l-2.3-1.7c1.6-2.8,1.4-4.9,1-6.1c-0.3-0.8-0.9-1.5-1.6-2.1c-3-2.2-5.7,0-7.9,1.9
					l-4.2-3.1c0.9-1,2.1-1.9,3.4-2.4l0.4-0.2l-1.5-2.5l-0.3,0.1c-1.5,0.6-3.1,1.8-4.4,3.3l-2.3-1.7l-1.4,2l2.4,1.7
					c-1.6,2.7-1.4,4.7-0.9,5.9c0.3,0.8,0.9,1.5,1.6,2.1c3,2.2,5.9-0.1,7.8-1.8l4.2,3.1c-1.3,1.4-2.9,2.5-4.4,2.8l-0.4,0.1l1.3,2.6
					l0.3-0.1c1.8-0.4,3.9-1.9,5.6-3.8L298.7,600.1z M283.9,592.7c-1-0.7-1.1-2-0.3-3.6l3.7,2.7C285.7,593.1,284.7,593.3,283.9,592.7
					z M291.7,592c1.4-1.1,2.6-1.7,3.5-1c0.3,0.2,0.5,0.5,0.6,0.8c0.3,0.7,0.1,1.7-0.5,2.9L291.7,592z"/>
			</g>
		</g>
		<path class="st21" d="M358,549.1c-2.1-3.4-6.5-4.6-10-2.5l-120.5,72.3c-2.2,1.3-3.5,3.6-3.5,6.1c0,1.4,0.3,2.7,1,3.9l11.4,19
			l30.4,22.1c3.2,2.4,7.8,1.6,10.2-1.6l82.7-113.6c0.3-0.5,0.6-1,0.8-1.5L358,549.1z"/>
		<g>
			<g>
				<path class="st13" d="M388.9,606.6l-120.5,72.3c-2.3,1.4-5.2,0.6-6.6-1.6l-29.3-48.8c-1.4-2.3-0.6-5.2,1.6-6.6l120.5-72.3
					c2.3-1.4,5.2-0.6,6.6,1.6l29.3,48.8C391.9,602.3,391.2,605.3,388.9,606.6"/>
			</g>
			<g>
				<g>
					<g>
						<path class="st14" d="M356.8,568.9c-3.4,2-6.6,0.4-7.9-2.2L251.9,625c2.3,2.3,2.7,6.6-1.1,8.9c-0.4,0.3-0.9,0.5-1.3,0.6
							l16.1,26.8c0.1,0,0.1-0.1,0.2-0.1c3.5-2.1,6.7-0.3,8,2.4l97.9-58.7c-1.8-2.4-1.8-6.1,1.7-8.2c0.4-0.3,0.9-0.5,1.3-0.6
							L358,568.1C357.6,568.4,357.3,568.7,356.8,568.9"/>
					</g>
				</g>
			</g>
			<g class="st15">
				<g>
					<g>
						<path class="st16" d="M229.3,625.8c0.1-2.5,1.4-4.8,3.5-6.1l120.5-72.3c3.4-2.1,7.9-0.9,10,2.5l29.3,48.8
							c0.7,1.2,1.1,2.5,1,3.9c-0.1,2.5-1.4,4.8-3.5,6.1L269.7,681c-3.4,2.1-7.9,0.9-10-2.5l-29.3-48.9
							C229.7,628.5,229.3,627.1,229.3,625.8z M388.7,602.6c0-0.4-0.1-0.9-0.3-1.2l-29.3-48.9c-0.7-1.1-2.1-1.5-3.2-0.8l-120.5,72.3
							c-0.7,0.4-1.1,1.1-1.1,1.9c0,0.4,0.1,0.9,0.3,1.2l29.3,48.9c0.7,1.1,2.1,1.5,3.2,0.8l120.5-72.3
							C388.3,604.1,388.7,603.4,388.7,602.6z"/>
					</g>
				</g>
			</g>
			<g>
				<g>
					<path class="st13" d="M270.4,640.2c1.1,1.8,0.4,4.3-1.5,5.4c-1.9,1.2-4.4,0.6-5.5-1.2c-1.1-1.8-0.4-4.3,1.5-5.4
						C266.8,637.8,269.3,638.4,270.4,640.2"/>
				</g>
				<g>
					<path class="st13" d="M360.6,585.4c1.1,1.8,0.4,4.3-1.5,5.4c-1.9,1.2-4.4,0.6-5.5-1.2c-1.1-1.8-0.4-4.3,1.5-5.4
						C357,583,359.5,583.6,360.6,585.4"/>
				</g>
				<g>
					<path class="st13" d="M325,607.1c4.5,7.5,1.7,17.4-6.2,22.2c-7.9,4.7-18,2.5-22.5-5c-4.5-7.5-1.7-17.4,6.2-22.2
						C310.5,597.4,320.5,599.6,325,607.1"/>
				</g>
				<g>
					<path class="st13" d="M274.4,632.7l4.8,8l-2,1.2l-3.9-6.5l-1.7,1l-0.9-1.5L274.4,632.7z"/>
					<path class="st13" d="M278.3,635.8c-1.6-2.6-0.9-5.1,1.1-6.3c2.1-1.3,4.5-0.7,6.1,2c1.6,2.6,0.9,5-1.1,6.3
						C282.3,639,279.9,638.5,278.3,635.8z M283.6,632.7c-1.1-1.8-2.2-2.2-3.2-1.6c-1,0.6-1.2,1.7-0.1,3.6c1.1,1.8,2.2,2.2,3.2,1.6
						C284.4,635.7,284.7,634.5,283.6,632.7z"/>
					<path class="st13" d="M286.5,630.9c-1.6-2.6-0.9-5.1,1.1-6.3c2.1-1.2,4.5-0.7,6.1,2c1.6,2.6,0.9,5.1-1.1,6.3
						C290.5,634.1,288.1,633.6,286.5,630.9z M291.8,627.8c-1.1-1.8-2.2-2.2-3.2-1.6c-1,0.6-1.2,1.7-0.1,3.6c1.1,1.8,2.2,2.2,3.2,1.6
						C292.6,630.7,292.8,629.6,291.8,627.8z"/>
				</g>
				<g>
					<path class="st13" d="M329.6,598.4l4.8,8l-2,1.2l-3.9-6.5l-1.7,1l-0.9-1.5L329.6,598.4z"/>
					<path class="st13" d="M333.4,601.5c-1.6-2.6-0.9-5.1,1.1-6.3c2.1-1.3,4.5-0.7,6.1,2c1.6,2.6,0.9,5-1.1,6.3
						C337.5,604.7,335,604.1,333.4,601.5z M338.7,598.3c-1.1-1.8-2.2-2.2-3.2-1.6c-1,0.6-1.2,1.7-0.1,3.6c1.1,1.8,2.2,2.2,3.2,1.6
						C339.6,601.3,339.8,600.1,338.7,598.3z"/>
					<path class="st13" d="M341.6,596.6c-1.6-2.6-0.9-5.1,1.1-6.3c2.1-1.3,4.5-0.7,6.1,2c1.6,2.6,0.9,5.1-1.1,6.3
						C345.7,599.8,343.2,599.2,341.6,596.6z M346.9,593.4c-1.1-1.8-2.2-2.2-3.2-1.6c-1,0.6-1.2,1.7-0.1,3.6c1.1,1.8,2.2,2.2,3.2,1.6
						C347.8,596.4,348,595.2,346.9,593.4z"/>
				</g>
				<path class="st17" d="M316.3,626.6l2.1-1.2l-1.5-2.5c2.6-2,3.2-3.9,3.2-5.2c0-0.9-0.2-1.7-0.7-2.5c-1.9-3.2-5.3-2.2-8-1.3
					l-2.7-4.5c1.2-0.6,2.7-0.9,4.1-0.9h0.4l-0.4-2.9l-0.3,0c-1.6-0.1-3.6,0.4-5.3,1.3l-1.5-2.5l-2.1,1.2l1.5,2.5
					c-2.5,1.9-3.1,3.8-3.1,5.1c0,0.9,0.2,1.8,0.7,2.6c1.9,3.2,5.4,2.2,7.9,1.4l2.7,4.5c-1.7,0.8-3.7,1.2-5.2,0.9l-0.4-0.1l0.2,2.9
					l0.3,0.1c1.8,0.3,4.3-0.2,6.6-1.3L316.3,626.6z M305.5,614c-0.6-1-0.2-2.3,1.1-3.4l2.4,3.9C307.1,615.1,306.1,614.9,305.5,614z
					 M313,616.5c1.8-0.5,3-0.5,3.6,0.5c0.2,0.3,0.3,0.7,0.3,1c0,0.8-0.6,1.6-1.6,2.4L313,616.5z"/>
			</g>
		</g>
		<g>
			<path class="st8" d="M339.4,639.9l-10.6,17.1L308.7,672c-33,5.7-34-19.2-34-19.2c3.7-19.6,5.2-38,5.2-38l0.4-18.5
				c-2.3-18.6-14.7-15.1-14.7-15.1l-7.6,30.7c-4.5,15.2-9.1,36.3-9.1,36.3c-20.2,22.4-16.5,65.1-16.5,65.1L190.7,789h70l23.1-62.4
				l49.9-37.4c6.9-3,9.8-11.1,9.8-11.1l16.2-29.9c2.4-5.6,2.6-10.2,2.3-13.2C354.9,637.4,347.2,639.1,339.4,639.9z"/>
			<path class="st12" d="M275.1,655.7c0,0,0.1,20.1,16.3,31.4c0,0-9.4-6.1-15.2-28L275.1,655.7z"/>
			<path class="st21" d="M284.2,669c-6.8-5.9-6.9-15.5-6.9-15.5c7-42,5.6-56.5,5.6-56.5c-2.3-18.6-14.7-15.1-14.7-15.1l0,0.1
				c-0.3,0-0.5,0.1-0.8,0.2l-3.1,15.2c0,0,0,0,0,0v0c0,0,0,0,0,0c0,0,0,0,0,0l-2.1,8.6l0,0l-0.1,0.3l-0.7,3c-0.1,0-0.1,0-0.1,0
				l-0.1,0.7c0,0.1,0,0.1,0,0.2l-0.6,2.5c-4.5,15.2-9.1,36.3-9.1,36.3c-9.8,10.9-14,26.6-15.7,39.8l45.9-21.6L284.2,669z"/>
			<g>
				<path class="st8" d="M273.9,698.4l7.9-31.2c-6.8-5.9-7.1-14.4-7.1-14.4c3.7-19.6,5.2-38,5.2-38l0.4-18.5
					c-2.3-18.6-14.7-15.1-14.7-15.1l-7.6,30.7c-4.5,15.2-9.1,36.3-9.1,36.3c-9.8,10.9-14,26.6-15.7,39.8L273.9,698.4z"/>
				<g>
					<path class="st9" d="M261.6,596.7c0,0,4.8,1.4,5.8-6.4l0.5-8.8c0,0-2-0.5-3.2,0.1L261.6,596.7z"/>
					<path class="st10" d="M261.6,596.7c0,0,1.3,0.3,2.1-0.1c0,0-0.7-1.2-1.8-1.3L261.6,596.7z"/>
					<path class="st22" d="M261.6,596.7c0,0,3.2,1.2,4.9-3C266.5,593.6,266,598.4,261.6,596.7z"/>
				</g>
				<path class="st12" d="M280,612.1c0,0-6.7,2.8-11.1,1.3c0,0,6.4,3.2,11.1,0.9L280,612.1z"/>
				<path class="st12" d="M259.5,605.3c0,0,6.3,1.1,8.5,0.3c0,0-9.3,2.9-8.7,0.4"/>
				<path class="st12" d="M258.6,608.5c0,0,5,1.2,6.6,0.5c0,0-7.2,2.7-6.8,0.2"/>
			</g>
		</g>
	</g>
	<rect x="442" y="734.2" class="st23" width="278.8" height="30.5"/>
	<text transform="matrix(1 0 0 1 447.7754 742.9521)"><tspan x="0" y="0" class="st5 st24 st25">¿Deseas ayudar a tus familiares y amigos?</tspan><tspan x="54.7" y="14.2" class="st5 st26 st25">https://compralotodo.com/efectivo</tspan></text>
	<g>
		<rect x="344.5" y="142.3" class="st23" width="292.5" height="97.7"/>
		<text transform="matrix(1 0 0 1 344.4692 156.4097)"><tspan x="0" y="0" class="st5 st24 st27">Adquiere </tspan><tspan x="0" y="22.8" class="st5 st24 st27">Tu Tarjeta Efectivo </tspan><tspan x="0" y="45.6" class="st5 st24 st27">en nuestra página web </tspan><tspan x="0" y="68.4" class="st5 st24 st27">compralotodo.com/efectivo</tspan></text>
	</g>
	<g>
		<rect x="363.1" y="419.8" class="st23" width="187.5" height="50.8"/>
		<text transform="matrix(1 0 0 1 365.7158 433.8965)"><tspan x="0" y="0" class="st5 st24 st27">Verifica tu Correo  </tspan><tspan x="67.8" y="22.8" class="st5 st24 st27">electrónico</tspan></text>
	</g>
	<g>
		<rect x="485.6" y="559.3" class="st23" width="187.5" height="82.8"/>
		<text transform="matrix(1 0 0 1 485.585 573.3877)"><tspan x="0" y="0" class="st5 st24 st27">Retira el Efectivo </tspan><tspan x="0" y="22.8" class="st5 st24 st27">en nuestra tienda </tspan><tspan x="0" y="45.6" class="st5 st24 st27">Compralotodo  </tspan><tspan x="0" y="68.4" class="st5 st24 st27">Venezuela</tspan></text>
	</g>
	<g>
		<path class="st28" d="M325.4,237.2c0,3.2-2.6,5.9-5.8,5.9H143c-3.2,0-5.8-2.6-5.8-5.9v-98.3c0-3.2,2.6-5.9,5.8-5.9h176.6
			c3.2,0,5.8,2.6,5.8,5.9V237.2z"/>
		<rect x="143.4" y="139" class="st6" width="175.2" height="97.3"/>
		<rect x="143.4" y="212.9" class="st1" width="175.2" height="23.3"/>
		<rect x="143.4" y="160.3" class="st29" width="175.2" height="66.9"/>
		<rect x="152" y="204.9" class="st7" width="54.4" height="6"/>
		<rect x="152" y="215.4" class="st7" width="41" height="6"/>
		<g>
			<rect x="229.6" y="164.7" class="st7" width="62" height="6.8"/>
			<rect x="229.6" y="176.6" class="st7" width="46.7" height="6.8"/>
		</g>
		<g>
			<rect x="229.6" y="188.5" class="st7" width="62" height="2.5"/>
			<rect x="229.6" y="194.4" class="st7" width="46.7" height="2.5"/>
			<rect x="229.6" y="200.2" class="st7" width="62" height="2.5"/>
			<rect x="229.6" y="206.1" class="st7" width="46.7" height="2.5"/>
		</g>
		<g>
			<path class="st28" d="M127.7,261.7h206.5c3.4,0,6.2-1.1,6.2-4.4V253H121.5v4.2C121.5,260.6,124.3,261.7,127.7,261.7z"/>
			<rect x="121.5" y="253" class="st28" width="218.9" height="4.2"/>
		</g>
		<polygon class="st30" points="325.4,236.2 137.2,236.2 121.5,253 340.4,253 		"/>
		<polygon class="st31" points="246.5,246.6 215.5,246.6 212.9,250.7 249.6,250.7 		"/>
		<polygon class="st31" points="328.5,244.6 323.9,239.5 138.6,239.5 133.9,244.6 		"/>
		<g>
			<polygon class="st32" points="188,227.2 276.2,139 243.8,139 155.6,227.2 			"/>
			<polygon class="st32" points="299.6,227.2 318.5,208.2 318.5,146.6 238,227.2 			"/>
			<polygon class="st32" points="157.7,139 143.4,153.3 143.4,214.9 219.3,139 			"/>
		</g>
		<g>
			<g>
				<path class="st7" d="M164,146.6c-0.3-1.4-1.2-4.4-4.3-3.8c-3.1,0.6-3,0.6-5.1,0.9c-2.1,0.2-3.3,0-3.2,0.8c0,0-0.1,0.7,0.9,0.8
					c0,0,0.8,0.1,1,1.2l0.4,2.4c0,0,0.5,5.2,5.6,4.5C164.3,152.6,164.2,148,164,146.6 M162.5,148.4c0,0-0.2,2.3-2.6,2.7
					c-2.4,0.4-3.6-2-3.6-2l-1.7-3.2c-0.4-1.1,0.1-1,1.9-1.2c1.8-0.2,3.4-0.3,4.7,0.2C162.7,145.4,162.5,148.4,162.5,148.4"/>
			</g>
			<g>
				<path class="st7" d="M157.1,153.8c-1-0.4-2.2,0.1-2.6,1.2c-0.4,1.1,0,2.2,1,2.6c1,0.4,2.2-0.1,2.6-1.2
					C158.6,155.4,158.1,154.2,157.1,153.8 M156.5,156.6c-0.6,0.1-1.2-0.3-1.3-0.9c-0.1-0.6,0.3-1.2,0.9-1.3c0.6-0.1,1.2,0.3,1.3,0.9
					C157.6,155.9,157.1,156.5,156.5,156.6"/>
			</g>
			<g>
				<path class="st7" d="M163.9,152.6c-0.8-0.3-1.8,0.1-2.1,1c-0.4,0.8,0,1.8,0.8,2.1c0.8,0.3,1.7-0.1,2.1-1
					C165.1,153.8,164.7,152.9,163.9,152.6 M163.4,154.9c-0.5,0.1-1-0.2-1.1-0.8c-0.1-0.5,0.3-1,0.8-1.1c0.5-0.1,1,0.3,1.1,0.8
					C164.3,154.3,163.9,154.8,163.4,154.9"/>
			</g>
			<g>
				<path class="st7" d="M152.3,156.4c-1.3,0.4-1.4,0.6-1.4,0.6s0.2,0,1.5-0.2c1.3-0.2,1.1-0.5,1.1-0.5S153.6,156,152.3,156.4"/>
			</g>
			<g>
				<path class="st7" d="M153.3,157.3c-1.1,0.4-1.2,0.5-1.2,0.5s0.2,0,1.3-0.1c1.2-0.2,1-0.4,1-0.4S154.5,156.9,153.3,157.3"/>
			</g>
			<g>
				<path class="st7" d="M169.5,150c0.1,0.1,0.2,0.3,0.3,0.5c0.1,0.2,0.1,0.4,0.1,0.6c0,0.2,0,0.4-0.1,0.6c-0.1,0.2-0.2,0.3-0.3,0.4
					c-0.1,0.1-0.3,0.2-0.4,0.3c-0.2,0.1-0.3,0.1-0.6,0.1c-0.2,0-0.4,0-0.5-0.1c-0.2-0.1-0.3-0.2-0.4-0.3c-0.1-0.1-0.2-0.3-0.3-0.4
					c-0.1-0.2-0.1-0.4-0.1-0.6c0-0.2,0-0.4,0.1-0.6c0.1-0.2,0.2-0.3,0.3-0.5c0.1-0.1,0.3-0.2,0.4-0.3c0.2-0.1,0.3-0.1,0.6-0.1
					c0.2,0,0.4,0,0.5,0.1C169.3,149.7,169.4,149.8,169.5,150 M168.6,151.9c0.1,0,0.1,0,0.2,0c0.1,0,0.1-0.1,0.2-0.1
					c0.1-0.1,0.1-0.2,0.2-0.3c0-0.1,0.1-0.3,0.1-0.5c0-0.2,0-0.3-0.1-0.5c0-0.1-0.1-0.2-0.2-0.3c-0.1-0.1-0.1-0.1-0.2-0.1
					c-0.1,0-0.1,0-0.2,0c-0.1,0-0.1,0-0.2,0c-0.1,0-0.1,0.1-0.2,0.1c-0.1,0.1-0.1,0.2-0.2,0.3c0,0.1-0.1,0.3-0.1,0.5
					c0,0.2,0,0.3,0.1,0.5c0,0.1,0.1,0.2,0.2,0.3c0.1,0.1,0.1,0.1,0.2,0.1C168.5,151.9,168.5,151.9,168.6,151.9"/>
			</g>
			<g>
				<path class="st7" d="M174.6,151c0-0.2,0-0.4,0.1-0.6c0.1-0.2,0.2-0.3,0.3-0.5c0.1-0.1,0.3-0.2,0.4-0.3c0.2-0.1,0.3-0.1,0.5-0.1
					c0.2,0,0.4,0,0.6,0.1c0.2,0.1,0.3,0.2,0.4,0.3c0.1,0.1,0.2,0.3,0.3,0.5c0.1,0.2,0.1,0.4,0.1,0.6c0,0.2,0,0.4-0.1,0.6
					c-0.1,0.2-0.2,0.3-0.3,0.5c-0.1,0.1-0.3,0.2-0.4,0.3c-0.2,0.1-0.3,0.1-0.5,0.1c-0.2,0-0.4,0-0.6-0.1l0,0.9c0,0.1,0,0.2,0,0.3
					c0,0.1,0,0.1,0,0.2c0,0,0,0.1,0,0.1c-0.2,0-0.4-0.1-0.6-0.2c-0.1-0.1-0.2-0.3-0.2-0.5V151z M176,151.9c0.1,0,0.1,0,0.2,0
					c0.1,0,0.1-0.1,0.2-0.1c0.1-0.1,0.1-0.2,0.2-0.3c0-0.1,0.1-0.3,0.1-0.5c0-0.2,0-0.3-0.1-0.5c0-0.1-0.1-0.2-0.2-0.3
					c-0.1-0.1-0.1-0.1-0.2-0.1c-0.1,0-0.1,0-0.2,0c-0.1,0-0.1,0-0.2,0c-0.1,0-0.1,0.1-0.2,0.1c-0.1,0.1-0.1,0.2-0.2,0.3
					c0,0.1-0.1,0.3-0.1,0.5c0,0.2,0,0.3,0.1,0.5c0,0.1,0.1,0.2,0.2,0.3c0.1,0.1,0.1,0.1,0.2,0.1C175.9,151.9,175.9,151.9,176,151.9"
					/>
			</g>
			<g>
				<path class="st7" d="M177.5,150.9c0-0.3,0-0.5,0.1-0.7c0.1-0.2,0.2-0.3,0.3-0.4c0.1-0.1,0.3-0.2,0.4-0.2c0.2,0,0.3-0.1,0.5-0.1
					h0.3c0,0.1,0,0.2,0,0.2c0,0.1,0,0.1-0.1,0.2c0,0.1-0.1,0.1-0.2,0.1c-0.1,0-0.1,0-0.2,0c-0.1,0-0.1,0.1-0.2,0.1
					c-0.1,0.1-0.1,0.1-0.1,0.2c0,0.1-0.1,0.2-0.1,0.4v0.9c0,0.1,0,0.2,0,0.3c0,0.1,0,0.1,0,0.2c0,0,0,0.1,0,0.1
					c-0.2,0-0.4-0.1-0.6-0.2c-0.1-0.1-0.2-0.3-0.2-0.5V150.9z"/>
			</g>
			<g>
				<path class="st7" d="M179.7,150.8c0.1-0.1,0.2-0.1,0.4-0.2c0.1,0,0.3-0.1,0.4-0.1c0.2,0,0.4,0,0.6,0.1c0-0.1,0-0.2-0.1-0.3
					c-0.1-0.1-0.1-0.2-0.2-0.3c0,0-0.1,0-0.1,0c0,0-0.1,0-0.2,0h-0.1c-0.1,0-0.1,0-0.2,0c-0.1,0-0.1,0-0.2,0.1c-0.1,0-0.1,0-0.2,0.1
					c-0.1,0-0.1,0-0.2,0c-0.1,0-0.1,0-0.2,0c0,0-0.1-0.1-0.1-0.1l0,0l0,0c0.1-0.1,0.3-0.2,0.4-0.3c0.2-0.1,0.3-0.1,0.5-0.1
					c0,0,0,0,0.1,0h0.1c0.2,0,0.4,0,0.5,0.1c0.2,0.1,0.3,0.2,0.4,0.3c0.2,0.2,0.3,0.6,0.4,1v0c0,0.4-0.1,0.8-0.3,1
					c-0.1,0.1-0.2,0.2-0.4,0.3c-0.1,0.1-0.3,0.1-0.5,0.1c0,0,0,0-0.1,0h-0.1c-0.1,0-0.2,0-0.3,0c-0.1,0-0.2,0-0.3-0.1
					c-0.1,0-0.2-0.1-0.3-0.1c-0.1-0.1-0.1-0.1-0.2-0.2c-0.1-0.1-0.1-0.3-0.1-0.4v0c0-0.2,0-0.3,0.1-0.4
					C179.5,151,179.6,150.9,179.7,150.8 M180.9,151.1c-0.1,0-0.1,0-0.2,0c-0.1,0-0.1,0-0.2,0c-0.1,0-0.1,0-0.2,0c-0.1,0-0.1,0-0.1,0
					c-0.1,0-0.2,0.1-0.2,0.1c0,0,0,0.1,0,0.1c0,0,0,0.1,0,0.1c0,0,0,0,0,0.1c0,0,0,0.1,0,0.1c0,0,0,0.1,0.1,0.1c0,0,0.1,0.1,0.1,0.1
					c0.1,0,0.1,0,0.2,0c0,0,0.1,0,0.1,0c0.1,0,0.2,0,0.3-0.1c0,0,0.1-0.1,0.1-0.1c0,0,0.1-0.1,0.1-0.1c0-0.1,0.1-0.2,0.1-0.2
					c0-0.1,0-0.2,0-0.2c0,0,0,0,0,0c0,0,0,0,0,0C181.1,151.1,181,151.1,180.9,151.1C181,151.1,181,151.1,180.9,151.1"/>
			</g>
			<g>
				<path class="st7" d="M183.2,151.8c0,0.1,0,0.2,0,0.3c0,0.1-0.1,0.1-0.1,0.2c-0.1,0.1-0.2,0.1-0.3,0.1c-0.1,0-0.2,0-0.3,0
					c-0.1,0-0.2-0.1-0.2-0.2c-0.1-0.1-0.1-0.1-0.1-0.2c0-0.1,0-0.2,0-0.3v-2.9c0-0.1,0-0.2,0-0.3c0-0.1,0-0.1,0-0.2c0,0,0-0.1,0-0.1
					c0.2,0,0.4,0.1,0.6,0.2c0.1,0.1,0.2,0.3,0.2,0.5v2.8c0,0.1,0,0.2,0.1,0.2c0,0,0.1,0.1,0.1,0.1c0,0,0.1,0,0.1,0
					C183.1,151.9,183.2,151.9,183.2,151.8"/>
			</g>
			<g>
				<path class="st7" d="M185.5,150c0.1,0.1,0.2,0.3,0.3,0.5c0.1,0.2,0.1,0.4,0.1,0.6c0,0.2,0,0.4-0.1,0.6c-0.1,0.2-0.2,0.3-0.3,0.5
					c-0.1,0.1-0.3,0.2-0.4,0.3s-0.4,0.1-0.6,0.1c-0.2,0-0.4,0-0.5-0.1c-0.2-0.1-0.3-0.2-0.4-0.3c-0.1-0.1-0.2-0.3-0.3-0.5
					c-0.1-0.2-0.1-0.4-0.1-0.6c0-0.2,0-0.4,0.1-0.6c0.1-0.2,0.2-0.3,0.3-0.5c0.1-0.1,0.3-0.2,0.4-0.3c0.2-0.1,0.3-0.1,0.6-0.1
					c0.2,0,0.4,0,0.5,0.1C185.2,149.8,185.3,149.9,185.5,150 M184.5,151.9c0.1,0,0.1,0,0.2,0c0.1,0,0.1-0.1,0.2-0.1
					c0.1-0.1,0.1-0.2,0.2-0.3c0-0.1,0.1-0.3,0.1-0.5c0-0.2,0-0.3-0.1-0.5c0-0.1-0.1-0.2-0.2-0.3c-0.1-0.1-0.1-0.1-0.2-0.1
					c-0.1,0-0.1,0-0.2,0c-0.1,0-0.1,0-0.2,0c-0.1,0-0.1,0.1-0.2,0.1c-0.1,0.1-0.1,0.2-0.2,0.3c0,0.1-0.1,0.3-0.1,0.5
					c0,0.2,0,0.3,0.1,0.5c0,0.1,0.1,0.2,0.2,0.3c0.1,0.1,0.1,0.1,0.2,0.1C184.4,151.9,184.5,151.9,184.5,151.9"/>
			</g>
			<g>
				<path class="st7" d="M167.2,151.7C167.1,151.7,167.1,151.7,167.2,151.7c-0.1,0-0.2,0.1-0.3,0.1c-0.1,0-0.1,0-0.2,0.1
					c-0.1,0-0.2,0-0.2,0c-0.1,0-0.1,0-0.2,0c-0.1,0-0.1-0.1-0.2-0.1c-0.1-0.1-0.1-0.2-0.2-0.3c0-0.1-0.1-0.3-0.1-0.5
					c0-0.2,0-0.3,0.1-0.5c0-0.1,0.1-0.2,0.2-0.3c0.1-0.1,0.1-0.1,0.2-0.1c0.1,0,0.1,0,0.2,0c0.1,0,0.2,0,0.2,0c0.1,0,0.1,0,0.2,0.1
					c0.1,0,0.1,0,0.2,0.1c0,0,0.1,0,0.1,0l0.2-0.3c-0.1-0.1-0.2-0.2-0.3-0.2c-0.2-0.1-0.4-0.1-0.6-0.1c-0.2,0-0.4,0-0.5,0.1
					c-0.2,0.1-0.3,0.2-0.4,0.3c-0.1,0.1-0.2,0.3-0.3,0.5c-0.1,0.2-0.1,0.4-0.1,0.6c0,0.2,0,0.4,0.1,0.6c0.1,0.2,0.2,0.3,0.3,0.5
					c0.1,0.1,0.3,0.2,0.4,0.3c0.2,0.1,0.3,0.1,0.5,0.1c0.2,0,0.4,0,0.6-0.1c0.1-0.1,0.3-0.1,0.4-0.2L167.2,151.7z"/>
			</g>
			<g>
				<path class="st7" d="M174.4,151.3c0-0.5,0-0.9,0.1-1.1c0,0,0,0,0-0.1c-0.1-0.2-0.2-0.3-0.3-0.4c-0.1-0.1-0.3-0.2-0.4-0.2
					c-0.2,0-0.3-0.1-0.5-0.1c-0.2,0-0.3,0-0.5,0.1c-0.2,0-0.3,0.1-0.4,0.2c-0.1-0.1-0.3-0.2-0.4-0.2c-0.2,0-0.3-0.1-0.5-0.1
					c-0.2,0-0.3,0-0.5,0.1c-0.2,0-0.3,0.1-0.4,0.2c-0.1,0.1-0.2,0.2-0.3,0.4c-0.1,0.2-0.1,0.4-0.1,0.7l0,0.8c0,0.2,0.1,0.4,0.2,0.5
					c0.1,0.1,0.3,0.2,0.6,0.2c0,0,0-0.1,0-0.1c0,0,0-0.1,0-0.2c0-0.1,0-0.2,0-0.3v-0.9c0-0.2,0-0.3,0-0.4c0-0.1,0.1-0.2,0.1-0.2
					c0.1-0.1,0.1-0.1,0.2-0.1c0.1,0,0.1,0,0.2,0c0.1,0,0.1,0,0.2,0c0.1,0,0.1,0.1,0.2,0.1c0.1,0.1,0.1,0.1,0.1,0.2
					c0,0.1,0.1,0.2,0.1,0.4l0,0.8c0,0.2,0.1,0.4,0.2,0.5c0.1,0.1,0.3,0.2,0.6,0.2c0,0,0-0.1,0-0.1c0,0,0-0.1,0-0.2
					c0-0.1,0-0.2,0-0.3v-0.9c0-0.2,0-0.3,0.1-0.4c0-0.1,0.1-0.2,0.1-0.2c0.1-0.1,0.1-0.1,0.2-0.1c0.1,0,0.1,0,0.2,0
					c0.1,0,0.1,0,0.2,0c0.1,0,0.1,0.1,0.2,0.1c0.1,0.1,0.1,0.1,0.1,0.2c0,0.1,0.1,0.2,0.1,0.4l0,0.8c0,0.2,0.1,0.4,0.2,0.5
					c0.1,0.1,0.2,0.1,0.4,0.1V151.3z"/>
			</g>
			<g>
				<path class="st7" d="M187.7,151.9C187.7,151.9,187.7,151.9,187.7,151.9c0,0.1,0,0.1,0,0.1c0,0.1,0,0.1,0,0.2
					c0,0.1-0.1,0.1-0.1,0.1c-0.1,0.1-0.2,0.1-0.4,0.1c-0.1,0-0.3,0-0.4-0.1c-0.1-0.1-0.2-0.1-0.3-0.3c-0.1-0.1-0.2-0.3-0.2-0.4
					c-0.1-0.2-0.1-0.4-0.1-0.6l0-1.7c0-0.2,0.1-0.4,0.2-0.5c0.1-0.1,0.3-0.2,0.5-0.2c0,0,0,0.1,0,0.1c0,0,0,0.1,0,0.2
					c0,0.1,0,0.2,0,0.3l0,0.4h0.8c0,0.2,0,0.3-0.1,0.4c-0.1,0.1-0.2,0.2-0.4,0.2h-0.2l0,0.8c0,0.2,0,0.3,0,0.4
					c0,0.1,0.1,0.2,0.1,0.3c0.1,0.1,0.2,0.2,0.4,0.2c0.1,0,0.1,0,0.2,0C187.6,151.9,187.7,151.9,187.7,151.9"/>
			</g>
			<g>
				<path class="st7" d="M193,151c0,0.2,0,0.4-0.1,0.5c-0.1,0.2-0.1,0.3-0.3,0.4c-0.1,0.1-0.2,0.2-0.4,0.3c-0.2,0.1-0.3,0.1-0.5,0.1
					c-0.2,0-0.3,0-0.5-0.1c-0.2-0.1-0.3-0.2-0.4-0.3c-0.1-0.1-0.2-0.3-0.3-0.4c-0.1-0.2-0.1-0.4-0.1-0.5c0-0.2,0-0.4,0.1-0.5
					c0.1-0.2,0.1-0.3,0.3-0.4c0.1-0.1,0.2-0.2,0.4-0.3c0.2-0.1,0.3-0.1,0.5-0.1c0.2,0,0.4,0.1,0.6,0.2l0-0.8c0-0.2,0.1-0.4,0.2-0.5
					c0.1-0.1,0.3-0.1,0.6-0.1c0,0,0,0.1,0,0.1c0,0,0,0.1,0,0.2c0,0.1,0,0.2,0,0.3L193,151z M191.6,151.9c0,0,0.1,0,0.2,0
					c0.1,0,0.1-0.1,0.2-0.1c0.1-0.1,0.1-0.2,0.2-0.3c0-0.1,0.1-0.3,0.1-0.5c0-0.2,0-0.3-0.1-0.5c0-0.1-0.1-0.2-0.2-0.3
					c-0.1-0.1-0.1-0.1-0.2-0.1c-0.1,0-0.1,0-0.2,0c-0.1,0-0.1,0-0.2,0c-0.1,0-0.1,0.1-0.2,0.1c-0.1,0.1-0.1,0.2-0.2,0.3
					c0,0.1-0.1,0.3-0.1,0.5c0,0.2,0,0.3,0.1,0.5c0,0.1,0.1,0.2,0.2,0.3c0.1,0.1,0.1,0.1,0.2,0.1
					C191.5,151.9,191.6,151.9,191.6,151.9"/>
			</g>
			<g>
				<path class="st7" d="M195.3,150.1c0.1,0.1,0.2,0.3,0.3,0.4c0.1,0.2,0.1,0.4,0.1,0.5c0,0.2,0,0.4-0.1,0.5
					c-0.1,0.2-0.1,0.3-0.3,0.4c-0.1,0.1-0.2,0.2-0.4,0.3c-0.2,0.1-0.3,0.1-0.5,0.1c-0.2,0-0.3,0-0.5-0.1c-0.2-0.1-0.3-0.2-0.4-0.3
					c-0.1-0.1-0.2-0.3-0.3-0.4c-0.1-0.2-0.1-0.4-0.1-0.5c0-0.2,0-0.4,0.1-0.5c0.1-0.2,0.1-0.3,0.3-0.4c0.1-0.1,0.3-0.2,0.4-0.3
					c0.2-0.1,0.3-0.1,0.5-0.1c0.2,0,0.4,0,0.5,0.1C195.1,149.8,195.2,149.9,195.3,150.1 M194.4,151.9c0.1,0,0.1,0,0.2,0
					c0.1,0,0.1-0.1,0.2-0.1c0.1-0.1,0.1-0.2,0.2-0.3c0-0.1,0.1-0.3,0.1-0.5c0-0.2,0-0.3-0.1-0.5c0-0.1-0.1-0.2-0.2-0.3
					c-0.1-0.1-0.1-0.1-0.2-0.1c-0.1,0-0.1,0-0.2,0c-0.1,0-0.1,0-0.2,0c-0.1,0-0.1,0.1-0.2,0.1c-0.1,0.1-0.1,0.2-0.2,0.3
					c0,0.1-0.1,0.3-0.1,0.5c0,0.2,0,0.3,0.1,0.5c0,0.1,0.1,0.2,0.2,0.3c0.1,0.1,0.1,0.1,0.2,0.1
					C194.3,151.9,194.4,151.9,194.4,151.9"/>
			</g>
			<g>
				<path class="st7" d="M190,151.1c0-0.2,0.1-0.5,0.1-0.7c-0.1-0.1-0.1-0.2-0.2-0.3c-0.1-0.1-0.3-0.2-0.4-0.3
					c-0.2-0.1-0.3-0.1-0.5-0.1c-0.2,0-0.4,0-0.5,0.1c-0.2,0.1-0.3,0.2-0.4,0.3c-0.1,0.1-0.2,0.3-0.3,0.4c-0.1,0.2-0.1,0.4-0.1,0.5
					c0,0.2,0,0.4,0.1,0.5c0.1,0.2,0.2,0.3,0.3,0.4c0.1,0.1,0.3,0.2,0.4,0.3c0.2,0.1,0.3,0.1,0.5,0.1c0.2,0,0.4,0,0.5-0.1
					c0.2-0.1,0.3-0.2,0.4-0.3c0.1-0.1,0.2-0.2,0.2-0.3C190.1,151.5,190,151.3,190,151.1 M189.6,151.5c0,0.1-0.1,0.2-0.2,0.3
					c-0.1,0.1-0.1,0.1-0.2,0.1c-0.1,0-0.1,0-0.2,0c-0.1,0-0.1,0-0.2,0c-0.1,0-0.1-0.1-0.2-0.1c-0.1-0.1-0.1-0.2-0.2-0.3
					c0-0.1-0.1-0.3-0.1-0.5c0-0.2,0-0.3,0.1-0.5c0-0.1,0.1-0.2,0.2-0.3c0.1-0.1,0.1-0.1,0.2-0.1c0.1,0,0.1,0,0.2,0
					c0.1,0,0.1,0,0.2,0c0.1,0,0.1,0.1,0.2,0.1c0.1,0.1,0.1,0.2,0.2,0.3c0,0.1,0.1,0.3,0.1,0.5C189.6,151.3,189.6,151.4,189.6,151.5"
					/>
			</g>
		</g>
		<g>
			<g>
				<path class="st7" d="M199,199.8h-41.8c-2.8,0-5.1-2.3-5.1-5.1v-24.7c0-2.8,2.3-5.1,5.1-5.1H199c2.8,0,5.1,2.3,5.1,5.1v24.7
					C204.2,197.5,201.9,199.8,199,199.8"/>
			</g>
			<g>
				<g>
					
						<rect x="155.8" y="184.1" transform="matrix(0.9998 -1.929752e-02 1.929752e-02 0.9998 -3.5278 3.0712)" class="st6" width="3.1" height="0.5"/>
					<polygon class="st6" points="161.1,183.2 161.7,180.7 158.9,180.7 159.6,183.2 					"/>
					<path class="st6" d="M158.9,183.7c0-0.2,0.2-0.4,0.4-0.4l0.1,0l-0.6-2.5l-1.9,0c-0.6,0-1.1,0.5-1,1.1l0,2.1l3.1-0.1
						L158.9,183.7z"/>
					
						<rect x="161.9" y="184" transform="matrix(0.9998 -1.915653e-02 1.915653e-02 0.9998 -3.4989 3.1658)" class="st6" width="3.2" height="0.5"/>
					<path class="st6" d="M161.4,183.2c0.2,0,0.4,0.2,0.4,0.4l0,0.2l3.2-0.1l0-2.1c0-0.6-0.5-1.1-1.1-1l-2.1,0l-0.6,2.5L161.4,183.2
						z"/>
					<path class="st6" d="M159.3,185.8c-0.2,0-0.4-0.2-0.4-0.4l0-0.6l-3.1,0.1l0,2.4c0,0.6,0.5,1.1,1.1,1l1.9,0l0.5-2.5L159.3,185.8
						z"/>
					<path class="st6" d="M161.4,183.4l-2.1,0c-0.1,0-0.2,0.1-0.2,0.2l0,1.7c0,0.1,0.1,0.2,0.2,0.2l2.1,0c0.1,0,0.2-0.1,0.2-0.2
						l0-1.7C161.7,183.5,161.6,183.4,161.4,183.4z"/>
					<polygon class="st6" points="159.6,185.8 159.1,188.2 161.8,188.2 161.2,185.7 					"/>
					<path class="st6" d="M161.9,185.3c0,0.2-0.2,0.4-0.4,0.4l-0.1,0l0.6,2.4l2.1,0c0.6,0,1.1-0.5,1-1.1l0-2.4l-3.2,0.1L161.9,185.3
						z"/>
				</g>
			</g>
			<g>
				<g>
					<path class="st33" d="M163.1,170.4c-0.1-0.8-0.7-2.5-2.4-2.2c-1.8,0.3-1.7,0.4-2.9,0.5c-1.2,0.1-1.8,0-1.8,0.4
						c0,0,0,0.4,0.5,0.4c0,0,0.4,0,0.5,0.7l0.2,1.4c0,0,0.3,2.9,3.1,2.6C163.3,173.8,163.3,171.2,163.1,170.4 M162.3,171.4
						c0,0-0.1,1.3-1.4,1.5c-1.3,0.3-2-1.1-2-1.1l-0.9-1.8c-0.3-0.6,0.1-0.6,1.1-0.7c1-0.1,1.9-0.1,2.7,0.1
						C162.4,169.8,162.3,171.4,162.3,171.4"/>
				</g>
				<g>
					<path class="st34" d="M159.3,174.5c-0.6-0.2-1.2,0.1-1.5,0.7c-0.2,0.6,0,1.3,0.6,1.5c0.6,0.2,1.2-0.1,1.5-0.7
						C160.1,175.4,159.8,174.7,159.3,174.5 M158.9,176.1c-0.4,0.1-0.7-0.2-0.7-0.5c-0.1-0.4,0.2-0.7,0.5-0.7
						c0.4-0.1,0.7,0.2,0.7,0.5C159.5,175.7,159.3,176,158.9,176.1"/>
				</g>
				<g>
					<path class="st34" d="M163.1,173.8c-0.5-0.2-1,0.1-1.2,0.5c-0.2,0.5,0,1,0.5,1.2c0.5,0.2,1-0.1,1.2-0.5
						C163.7,174.5,163.5,174,163.1,173.8 M162.8,175.1c-0.3,0-0.6-0.1-0.6-0.4c0-0.3,0.1-0.5,0.4-0.6c0.3,0,0.6,0.1,0.6,0.4
						C163.3,174.8,163.1,175,162.8,175.1"/>
				</g>
				<g>
					<path class="st34" d="M156.6,176c-0.7,0.3-0.8,0.3-0.8,0.3s0.1,0,0.9-0.1c0.8-0.1,0.6-0.3,0.6-0.3S157.3,175.7,156.6,176"/>
				</g>
				<g>
					<path class="st34" d="M157.1,176.4c-0.6,0.2-0.7,0.3-0.7,0.3s0.1,0,0.8-0.1c0.7-0.1,0.5-0.2,0.5-0.2S157.8,176.2,157.1,176.4"
						/>
				</g>
				<g>
					<path class="st34" d="M166.3,172.3c0.1,0.1,0.1,0.2,0.2,0.3c0,0.1,0.1,0.2,0.1,0.3c0,0.1,0,0.2-0.1,0.3c0,0.1-0.1,0.2-0.2,0.3
						c-0.1,0.1-0.1,0.1-0.2,0.2c-0.1,0-0.2,0.1-0.3,0.1c-0.1,0-0.2,0-0.3-0.1c-0.1,0-0.2-0.1-0.2-0.2c-0.1-0.1-0.1-0.2-0.2-0.3
						c0-0.1-0.1-0.2-0.1-0.3c0-0.1,0-0.2,0.1-0.3c0-0.1,0.1-0.2,0.1-0.3c0.1-0.1,0.1-0.1,0.2-0.2c0.1,0,0.2-0.1,0.3-0.1
						c0.1,0,0.2,0,0.3,0.1C166.1,172.2,166.2,172.2,166.3,172.3 M165.7,173.4c0,0,0.1,0,0.1,0c0,0,0.1,0,0.1-0.1
						c0,0,0.1-0.1,0.1-0.2c0-0.1,0-0.2,0-0.3c0-0.1,0-0.2,0-0.3c0-0.1-0.1-0.1-0.1-0.2c0,0-0.1-0.1-0.1-0.1c0,0-0.1,0-0.1,0
						c0,0-0.1,0-0.1,0c0,0-0.1,0-0.1,0.1c0,0-0.1,0.1-0.1,0.2c0,0.1,0,0.2,0,0.3c0,0.1,0,0.2,0,0.3c0,0.1,0.1,0.1,0.1,0.2
						c0,0,0.1,0.1,0.1,0.1C165.7,173.4,165.7,173.4,165.7,173.4"/>
				</g>
				<g>
					<path class="st34" d="M169.1,172.9c0-0.1,0-0.2,0.1-0.3c0-0.1,0.1-0.2,0.2-0.3c0.1-0.1,0.1-0.1,0.2-0.2c0.1,0,0.2-0.1,0.3-0.1
						c0.1,0,0.2,0,0.3,0.1c0.1,0,0.2,0.1,0.2,0.2c0.1,0.1,0.1,0.2,0.2,0.3c0,0.1,0.1,0.2,0.1,0.3c0,0.1,0,0.2-0.1,0.3
						c0,0.1-0.1,0.2-0.2,0.3c-0.1,0.1-0.1,0.1-0.2,0.2c-0.1,0-0.2,0.1-0.3,0.1c-0.1,0-0.2,0-0.3-0.1l0,0.5c0,0.1,0,0.1,0,0.2
						c0,0,0,0.1,0,0.1c0,0,0,0,0,0.1c-0.1,0-0.2,0-0.3-0.1c-0.1-0.1-0.1-0.2-0.1-0.3V172.9z M169.9,173.4c0,0,0.1,0,0.1,0
						c0,0,0.1,0,0.1-0.1c0,0,0.1-0.1,0.1-0.2c0-0.1,0-0.2,0-0.3c0-0.1,0-0.2,0-0.3c0-0.1-0.1-0.1-0.1-0.2c0,0-0.1-0.1-0.1-0.1
						c0,0-0.1,0-0.1,0c0,0-0.1,0-0.1,0c0,0-0.1,0-0.1,0.1c0,0-0.1,0.1-0.1,0.2c0,0.1,0,0.2,0,0.3c0,0.1,0,0.2,0,0.3
						c0,0.1,0.1,0.1,0.1,0.2c0,0,0.1,0.1,0.1,0.1C169.8,173.4,169.8,173.4,169.9,173.4"/>
				</g>
				<g>
					<path class="st34" d="M170.8,172.8c0-0.2,0-0.3,0.1-0.4c0-0.1,0.1-0.2,0.2-0.2c0.1-0.1,0.1-0.1,0.2-0.1c0.1,0,0.2,0,0.3,0h0.2
						c0,0,0,0.1,0,0.1c0,0,0,0.1,0,0.1c0,0-0.1,0.1-0.1,0.1c0,0-0.1,0-0.1,0c0,0-0.1,0-0.1,0.1c0,0-0.1,0.1-0.1,0.1
						c0,0.1,0,0.1,0,0.2v0.5c0,0.1,0,0.1,0,0.2c0,0,0,0.1,0,0.1c0,0,0,0,0,0.1c-0.1,0-0.2,0-0.3-0.1c-0.1-0.1-0.1-0.2-0.1-0.3V172.8
						z"/>
				</g>
				<g>
					<path class="st34" d="M172,172.8c0.1,0,0.1-0.1,0.2-0.1c0.1,0,0.2,0,0.2,0c0.1,0,0.2,0,0.3,0.1c0-0.1,0-0.1,0-0.2
						c0-0.1-0.1-0.1-0.1-0.2c0,0,0,0-0.1,0c0,0-0.1,0-0.1,0h0c0,0-0.1,0-0.1,0c0,0-0.1,0-0.1,0c0,0-0.1,0-0.1,0c0,0-0.1,0-0.1,0
						c0,0-0.1,0-0.1,0c0,0-0.1,0-0.1-0.1l0,0l0,0c0.1-0.1,0.1-0.1,0.2-0.2c0.1,0,0.2-0.1,0.3-0.1c0,0,0,0,0,0h0c0.1,0,0.2,0,0.3,0.1
						c0.1,0,0.2,0.1,0.2,0.2c0.1,0.1,0.2,0.3,0.2,0.5v0c0,0.2-0.1,0.4-0.2,0.6c-0.1,0.1-0.1,0.1-0.2,0.2c-0.1,0-0.2,0.1-0.3,0.1
						c0,0,0,0,0,0h0c0,0-0.1,0-0.1,0c-0.1,0-0.1,0-0.2,0c-0.1,0-0.1,0-0.1-0.1c0,0-0.1-0.1-0.1-0.1c0-0.1-0.1-0.1-0.1-0.2v0
						c0-0.1,0-0.2,0.1-0.2C171.9,172.9,171.9,172.8,172,172.8 M172.7,173C172.6,173,172.6,172.9,172.7,173c-0.1,0-0.2,0-0.2,0
						c0,0-0.1,0-0.1,0c0,0-0.1,0-0.1,0c-0.1,0-0.1,0-0.1,0.1c0,0,0,0,0,0c0,0,0,0,0,0.1c0,0,0,0,0,0c0,0,0,0,0,0.1c0,0,0,0,0,0.1
						c0,0,0,0,0.1,0.1c0,0,0.1,0,0.1,0c0,0,0,0,0,0c0.1,0,0.1,0,0.2-0.1c0,0,0,0,0.1,0c0,0,0,0,0-0.1c0,0,0-0.1,0.1-0.1
						C172.8,173.1,172.8,173,172.7,173C172.8,173,172.8,173,172.7,173C172.8,173,172.8,173,172.7,173C172.7,173,172.7,173,172.7,173
						C172.7,173,172.7,173,172.7,173"/>
				</g>
				<g>
					<path class="st34" d="M173.9,173.4c0,0.1,0,0.1,0,0.2c0,0,0,0.1-0.1,0.1c0,0-0.1,0.1-0.2,0.1c-0.1,0-0.1,0-0.2,0
						c-0.1,0-0.1-0.1-0.1-0.1c0,0-0.1-0.1-0.1-0.1c0-0.1,0-0.1,0-0.2v-1.6c0-0.1,0-0.1,0-0.2c0,0,0-0.1,0-0.1c0,0,0,0,0-0.1
						c0.1,0,0.2,0,0.3,0.1c0.1,0.1,0.1,0.2,0.1,0.3v1.6c0,0.1,0,0.1,0,0.1c0,0,0,0,0.1,0C173.8,173.4,173.8,173.4,173.9,173.4
						C173.9,173.4,173.9,173.4,173.9,173.4"/>
				</g>
				<g>
					<path class="st34" d="M175.2,172.3c0.1,0.1,0.1,0.2,0.2,0.3c0,0.1,0.1,0.2,0.1,0.3s0,0.2-0.1,0.3c0,0.1-0.1,0.2-0.2,0.3
						c-0.1,0.1-0.1,0.1-0.2,0.2c-0.1,0-0.2,0.1-0.3,0.1c-0.1,0-0.2,0-0.3-0.1c-0.1,0-0.2-0.1-0.2-0.2c-0.1-0.1-0.1-0.2-0.2-0.3
						c0-0.1-0.1-0.2-0.1-0.3s0-0.2,0.1-0.3c0-0.1,0.1-0.2,0.2-0.3c0.1-0.1,0.1-0.1,0.2-0.2c0.1,0,0.2-0.1,0.3-0.1
						c0.1,0,0.2,0,0.3,0.1C175.1,172.2,175.1,172.3,175.2,172.3 M174.7,173.4c0,0,0.1,0,0.1,0c0,0,0.1,0,0.1-0.1
						c0,0,0.1-0.1,0.1-0.2c0-0.1,0-0.2,0-0.3c0-0.1,0-0.2,0-0.3c0-0.1-0.1-0.1-0.1-0.2c0,0-0.1-0.1-0.1-0.1c0,0-0.1,0-0.1,0
						c0,0-0.1,0-0.1,0c0,0-0.1,0-0.1,0.1c0,0-0.1,0.1-0.1,0.2c0,0.1,0,0.2,0,0.3c0,0.1,0,0.2,0,0.3c0,0.1,0.1,0.1,0.1,0.2
						c0,0,0.1,0.1,0.1,0.1C174.6,173.4,174.7,173.4,174.7,173.4"/>
				</g>
				<g>
					<path class="st34" d="M164.9,173.3C164.9,173.3,164.9,173.3,164.9,173.3c-0.1,0-0.1,0-0.1,0c0,0-0.1,0-0.1,0c0,0-0.1,0-0.1,0
						c0,0-0.1,0-0.1,0c0,0-0.1,0-0.1-0.1c0,0-0.1-0.1-0.1-0.2c0-0.1,0-0.2,0-0.3c0-0.1,0-0.2,0-0.3c0-0.1,0.1-0.1,0.1-0.2
						c0,0,0.1-0.1,0.1-0.1c0,0,0.1,0,0.1,0c0,0,0.1,0,0.1,0c0,0,0.1,0,0.1,0c0,0,0.1,0,0.1,0c0,0,0,0,0,0l0.1-0.2
						c-0.1,0-0.1-0.1-0.2-0.1c-0.1,0-0.2-0.1-0.3-0.1c-0.1,0-0.2,0-0.3,0.1c-0.1,0-0.2,0.1-0.2,0.2c-0.1,0.1-0.1,0.2-0.2,0.3
						c0,0.1-0.1,0.2-0.1,0.3c0,0.1,0,0.2,0.1,0.3c0,0.1,0.1,0.2,0.2,0.3c0.1,0.1,0.1,0.1,0.2,0.2c0.1,0,0.2,0.1,0.3,0.1
						c0.1,0,0.2,0,0.3-0.1c0.1,0,0.1-0.1,0.2-0.1L164.9,173.3z"/>
				</g>
				<g>
					<path class="st34" d="M169,173.1c0-0.3,0-0.5,0.1-0.6c0,0,0,0,0,0c0-0.1-0.1-0.2-0.2-0.2c-0.1-0.1-0.1-0.1-0.2-0.1
						c-0.1,0-0.2,0-0.3,0c-0.1,0-0.2,0-0.3,0c-0.1,0-0.2,0.1-0.2,0.1c-0.1-0.1-0.2-0.1-0.2-0.1c-0.1,0-0.2,0-0.3,0
						c-0.1,0-0.2,0-0.3,0c-0.1,0-0.2,0.1-0.2,0.1c-0.1,0.1-0.1,0.1-0.2,0.2c0,0.1-0.1,0.2-0.1,0.4l0,0.5c0,0.1,0,0.2,0.1,0.3
						c0.1,0.1,0.2,0.1,0.3,0.1c0,0,0,0,0-0.1c0,0,0-0.1,0-0.1c0,0,0-0.1,0-0.2v-0.5c0-0.1,0-0.2,0-0.2c0-0.1,0-0.1,0.1-0.1
						c0,0,0.1-0.1,0.1-0.1c0,0,0.1,0,0.1,0c0,0,0.1,0,0.1,0c0,0,0.1,0,0.1,0.1c0,0,0.1,0.1,0.1,0.1c0,0.1,0,0.1,0,0.2l0,0.5
						c0,0.1,0,0.2,0.1,0.3c0.1,0.1,0.2,0.1,0.3,0.1c0,0,0,0,0-0.1c0,0,0-0.1,0-0.1c0,0,0-0.1,0-0.2v-0.5c0-0.1,0-0.2,0-0.2
						c0-0.1,0-0.1,0.1-0.1c0,0,0.1-0.1,0.1-0.1c0,0,0.1,0,0.1,0c0,0,0.1,0,0.1,0c0,0,0.1,0,0.1,0.1c0,0,0.1,0.1,0.1,0.1
						c0,0.1,0,0.1,0,0.2l0,0.5c0,0.1,0,0.2,0.1,0.3c0.1,0,0.1,0.1,0.2,0.1V173.1z"/>
				</g>
				<g>
					<path class="st33" d="M176.5,173.4C176.5,173.4,176.5,173.4,176.5,173.4C176.5,173.4,176.5,173.4,176.5,173.4
						c0,0.1,0,0.1,0,0.2c0,0,0,0.1-0.1,0.1c-0.1,0-0.1,0.1-0.2,0.1c-0.1,0-0.1,0-0.2-0.1c-0.1,0-0.1-0.1-0.2-0.1
						c-0.1-0.1-0.1-0.1-0.1-0.2c0-0.1-0.1-0.2-0.1-0.3l0-1c0-0.1,0-0.2,0.1-0.3c0.1-0.1,0.2-0.1,0.3-0.1c0,0,0,0,0,0.1
						c0,0,0,0.1,0,0.1c0,0,0,0.1,0,0.2l0,0.2h0.4c0,0.1,0,0.2-0.1,0.2c-0.1,0.1-0.1,0.1-0.2,0.1H176l0,0.5c0,0.1,0,0.2,0,0.2
						c0,0.1,0,0.1,0.1,0.2c0.1,0.1,0.1,0.1,0.2,0.1C176.3,173.4,176.4,173.4,176.5,173.4C176.4,173.4,176.5,173.4,176.5,173.4"/>
				</g>
				<g>
					<path class="st33" d="M179.4,172.9c0,0.1,0,0.2-0.1,0.3c0,0.1-0.1,0.2-0.1,0.3c-0.1,0.1-0.1,0.1-0.2,0.2
						c-0.1,0-0.2,0.1-0.3,0.1c-0.1,0-0.2,0-0.3-0.1c-0.1,0-0.2-0.1-0.2-0.2c-0.1-0.1-0.1-0.2-0.2-0.2c0-0.1-0.1-0.2-0.1-0.3
						c0-0.1,0-0.2,0.1-0.3c0-0.1,0.1-0.2,0.1-0.3c0.1-0.1,0.1-0.1,0.2-0.2c0.1,0,0.2-0.1,0.3-0.1c0.1,0,0.2,0,0.3,0.1l0-0.5
						c0-0.1,0-0.2,0.1-0.3c0.1-0.1,0.2-0.1,0.3-0.1c0,0,0,0,0,0.1c0,0,0,0.1,0,0.1c0,0,0,0.1,0,0.2L179.4,172.9z M178.7,173.4
						c0,0,0.1,0,0.1,0c0,0,0.1,0,0.1-0.1c0,0,0.1-0.1,0.1-0.2c0-0.1,0-0.2,0-0.3c0-0.1,0-0.2,0-0.3c0-0.1-0.1-0.1-0.1-0.2
						c0,0-0.1-0.1-0.1-0.1c0,0-0.1,0-0.1,0c0,0-0.1,0-0.1,0c0,0-0.1,0-0.1,0.1c0,0-0.1,0.1-0.1,0.2c0,0.1,0,0.2,0,0.3
						c0,0.1,0,0.2,0,0.3c0,0.1,0.1,0.1,0.1,0.2c0,0,0.1,0.1,0.1,0.1C178.6,173.4,178.7,173.4,178.7,173.4"/>
				</g>
				<g>
					<path class="st33" d="M180.8,172.4c0.1,0.1,0.1,0.2,0.2,0.2c0,0.1,0.1,0.2,0.1,0.3c0,0.1,0,0.2-0.1,0.3c0,0.1-0.1,0.2-0.1,0.2
						c-0.1,0.1-0.1,0.1-0.2,0.2c-0.1,0-0.2,0.1-0.3,0.1c-0.1,0-0.2,0-0.3-0.1c-0.1,0-0.2-0.1-0.2-0.2c-0.1-0.1-0.1-0.2-0.2-0.2
						c0-0.1-0.1-0.2-0.1-0.3c0-0.1,0-0.2,0.1-0.3c0-0.1,0.1-0.2,0.1-0.2c0.1-0.1,0.1-0.1,0.2-0.2c0.1,0,0.2-0.1,0.3-0.1
						c0.1,0,0.2,0,0.3,0.1C180.6,172.2,180.7,172.3,180.8,172.4 M180.3,173.4C180.3,173.4,180.3,173.4,180.3,173.4
						c0.1,0,0.2-0.1,0.2-0.1c0,0,0.1-0.1,0.1-0.2c0-0.1,0-0.2,0-0.3c0-0.1,0-0.2,0-0.3c0-0.1-0.1-0.1-0.1-0.2c0,0-0.1-0.1-0.1-0.1
						c0,0-0.1,0-0.1,0c0,0-0.1,0-0.1,0c0,0-0.1,0-0.1,0.1c0,0-0.1,0.1-0.1,0.2c0,0.1,0,0.2,0,0.3c0,0.1,0,0.2,0,0.3
						c0,0.1,0.1,0.1,0.1,0.2C180.1,173.4,180.1,173.4,180.3,173.4C180.2,173.4,180.2,173.4,180.3,173.4"/>
				</g>
				<g>
					<path class="st33" d="M177.8,172.9c0-0.1,0-0.3,0.1-0.4c0-0.1-0.1-0.1-0.1-0.2c-0.1-0.1-0.1-0.1-0.2-0.2
						c-0.1,0-0.2-0.1-0.3-0.1c-0.1,0-0.2,0-0.3,0.1c-0.1,0-0.2,0.1-0.2,0.2c-0.1,0.1-0.1,0.2-0.1,0.2c0,0.1-0.1,0.2-0.1,0.3
						c0,0.1,0,0.2,0.1,0.3c0,0.1,0.1,0.2,0.2,0.2c0.1,0.1,0.1,0.1,0.2,0.2c0.1,0,0.2,0.1,0.3,0.1c0.1,0,0.2,0,0.3-0.1
						c0.1,0,0.2-0.1,0.2-0.2c0-0.1,0.1-0.1,0.1-0.2C177.8,173.2,177.8,173.1,177.8,172.9 M177.5,173.2c0,0.1-0.1,0.1-0.1,0.2
						c0,0-0.1,0.1-0.1,0.1c0,0-0.1,0-0.1,0c0,0-0.1,0-0.1,0c0,0-0.1,0-0.1-0.1c0,0-0.1-0.1-0.1-0.2c0-0.1,0-0.2,0-0.3
						c0-0.1,0-0.2,0-0.3c0-0.1,0.1-0.1,0.1-0.2c0,0,0.1-0.1,0.1-0.1c0,0,0.1,0,0.1,0c0,0,0.1,0,0.1,0c0,0,0.1,0,0.1,0.1
						c0,0,0.1,0.1,0.1,0.2c0,0.1,0,0.2,0,0.3C177.6,173,177.6,173.1,177.5,173.2"/>
				</g>
			</g>
		</g>
	</g>
	<g>
		<g>
			<g>
				<path class="st35" d="M526.5,140.3c1.2,0,2.3-0.1,3.5-0.1"/>
				<path class="st36" d="M536.9,140.3c52.6,1.7,102.7,29.4,126.6,77.2c5,10,11.2,24.3,2.9,34.1c-7.8,9.2-21.9,8.6-27-3.5
					c-7.8-18.4,14-26,28.7-24.8c80.6,7.1,21.5,110.1-17.6,138"/>
				<path class="st35" d="M647.6,363.2c-1,0.6-2,1.2-3,1.8"/>
			</g>
		</g>
		<polyline class="st37" points="645.3,351.3 636.8,367.7 656,373 		"/>
	</g>
	<g>
		<g>
			<g>
				<path class="st35" d="M212.8,349.1c-1.1,0.3-2.2,0.6-3.4,1"/>
				<path class="st38" d="M202.8,352.1c-23,7.8-44.3,20.2-62.1,37.4c-9.4,9.1-21.7,22.3-15.9,35.5c5.5,12.5,21.7,16.4,32,5.2
					c15.7-17.1-6.3-32.5-23.5-36c-94.8-19.2-64.7,112.5-30.3,154.4"/>
				<path class="st35" d="M105.3,551.3c0.8,0.9,1.6,1.7,2.4,2.5"/>
			</g>
		</g>
		<polyline class="st37" points="112,538.9 115.7,559.4 91.9,558.7 		"/>
	</g>
	<g>
		<g>
			<g>
				<path class="st4" d="M539,399.5h-94.2c-6.4,0-11.6-5.2-11.6-11.6v-55.7c0-6.4,5.2-11.6,11.6-11.6H539c6.4,0,11.6,5.2,11.6,11.6
					v55.7C550.6,394.3,545.4,399.5,539,399.5"/>
			</g>
		</g>
		<g>
			<path class="st4" d="M550.5,329.6l-51.1-56.3c-2.9-2.9-7.7-2.9-10.6,0L436,328.5C434.6,329.9,542.8,329.5,550.5,329.6z"/>
			<g>
				<g>
					<path class="st7" d="M534.2,374.6h-85.9c-5.8,0-10.6-4.7-10.6-10.6v-50.8c0-5.8,4.7-10.6,10.6-10.6h85.9
						c5.8,0,10.6,4.7,10.6,10.6v50.8C544.8,369.9,540.1,374.6,534.2,374.6"/>
				</g>
				<g>
					<g>
						
							<rect x="445.5" y="342.2" transform="matrix(0.9998 -1.915759e-02 1.915759e-02 0.9998 -6.4844 8.6571)" class="st6" width="6.3" height="1.1"/>
						<polygon class="st6" points="456.3,340.5 457.5,335.2 451.8,335.3 453.1,340.5 						"/>
						<path class="st6" d="M451.7,341.4c0-0.5,0.4-0.9,0.8-0.9l0.2,0l-1.3-5.2l-3.9,0.1c-1.2,0-2.2,1-2.2,2.2l0.1,4.3l6.3-0.1
							L451.7,341.4z"/>
						
							<rect x="457.9" y="342" transform="matrix(0.9998 -1.909311e-02 1.909311e-02 0.9998 -6.4561 8.8679)" class="st6" width="6.7" height="1.1"/>
						<path class="st6" d="M457,340.5c0.5,0,0.9,0.4,0.9,0.8l0,0.4l6.7-0.1l-0.1-4.3c0-1.2-1-2.2-2.2-2.2l-4.3,0.1l-1.2,5.2
							L457,340.5z"/>
						<path class="st6" d="M452.7,345.8c-0.5,0-0.9-0.4-0.9-0.8l0-1.3l-6.3,0.1l0.1,5c0,1.2,1,2.2,2.2,2.2l4-0.1l1.1-5.1
							L452.7,345.8z"/>
						<path class="st6" d="M457,340.8l-4.4,0.1c-0.3,0-0.5,0.2-0.5,0.5l0.1,3.5c0,0.3,0.2,0.5,0.5,0.5l4.4-0.1
							c0.3,0,0.5-0.2,0.5-0.5l-0.1-3.5C457.5,341,457.2,340.8,457,340.8z"/>
						<polygon class="st6" points="453.2,345.7 452.1,350.8 457.7,350.7 456.4,345.7 						"/>
						<path class="st6" d="M457.9,344.8c0,0.5-0.4,0.9-0.8,0.9l-0.3,0l1.3,5l4.4-0.1c1.2,0,2.2-1,2.2-2.2l-0.1-5l-6.7,0.1
							L457.9,344.8z"/>
					</g>
				</g>
				<g>
					<g>
						<path class="st33" d="M460.4,314.2c-0.3-1.6-1.3-5.1-5-4.5c-3.6,0.6-3.5,0.7-5.9,1c-2.5,0.3-3.8,0-3.7,0.9
							c0,0-0.1,0.8,1.1,0.9c0,0,0.9,0.1,1.1,1.4l0.5,2.8c0,0,0.5,6,6.5,5.2C460.8,321.2,460.7,315.8,460.4,314.2 M458.7,316.3
							c0,0-0.2,2.6-3,3.1c-2.8,0.5-4.1-2.3-4.1-2.3l-1.9-3.7c-0.5-1.3,0.1-1.1,2.2-1.4c2-0.2,3.9-0.3,5.5,0.2
							C459,312.8,458.7,316.3,458.7,316.3"/>
					</g>
					<g>
						<path class="st34" d="M452.5,322.5c-1.2-0.5-2.5,0.1-3,1.4c-0.5,1.2,0,2.6,1.2,3.1c1.2,0.5,2.5-0.1,3-1.4
							C454.2,324.3,453.7,323,452.5,322.5 M451.8,325.8c-0.7,0.1-1.4-0.4-1.5-1.1c-0.1-0.7,0.4-1.4,1.1-1.5c0.7-0.1,1.4,0.4,1.5,1.1
							C453,325,452.5,325.7,451.8,325.8"/>
					</g>
					<g>
						<path class="st34" d="M460.3,321.1c-0.9-0.4-2,0.1-2.4,1.1c-0.4,1,0,2.1,1,2.4c0.9,0.4,2-0.1,2.4-1.1
							C461.7,322.6,461.3,321.5,460.3,321.1 M459.8,323.8c-0.6,0.1-1.1-0.3-1.2-0.9c-0.1-0.6,0.3-1.1,0.9-1.2
							c0.6-0.1,1.1,0.3,1.2,0.9C460.7,323.1,460.3,323.7,459.8,323.8"/>
					</g>
					<g>
						<path class="st34" d="M446.9,325.6c-1.5,0.5-1.6,0.7-1.6,0.7s0.2,0.1,1.8-0.2c1.6-0.2,1.3-0.6,1.3-0.6S448.4,325,446.9,325.6"
							/>
					</g>
					<g>
						<path class="st34" d="M448.1,326.6c-1.3,0.5-1.4,0.6-1.4,0.6s0.2,0,1.5-0.2c1.4-0.2,1.1-0.5,1.1-0.5S449.4,326.1,448.1,326.6"
							/>
					</g>
					<g>
						<path class="st34" d="M466.8,318.1c0.1,0.1,0.3,0.3,0.3,0.5c0.1,0.2,0.1,0.4,0.1,0.6c0,0.2,0,0.4-0.1,0.6
							c-0.1,0.2-0.2,0.4-0.3,0.5c-0.1,0.2-0.3,0.3-0.5,0.4c-0.2,0.1-0.4,0.1-0.6,0.1c-0.2,0-0.4,0-0.6-0.1c-0.2-0.1-0.4-0.2-0.5-0.4
							c-0.1-0.1-0.2-0.3-0.3-0.5c-0.1-0.2-0.1-0.4-0.1-0.6c0-0.2,0-0.4,0.1-0.6c0.1-0.2,0.2-0.4,0.3-0.5c0.1-0.2,0.3-0.3,0.5-0.4
							c0.2-0.1,0.4-0.1,0.6-0.1c0.2,0,0.4,0,0.6,0.1C466.5,317.8,466.7,317.9,466.8,318.1 M465.8,320.3c0.1,0,0.1,0,0.2,0
							c0.1,0,0.2-0.1,0.2-0.2c0.1-0.1,0.1-0.2,0.2-0.3c0.1-0.1,0.1-0.3,0.1-0.5c0-0.2,0-0.4-0.1-0.5c-0.1-0.1-0.1-0.2-0.2-0.3
							c-0.1-0.1-0.2-0.1-0.2-0.2c-0.1,0-0.2,0-0.2,0c-0.1,0-0.1,0-0.2,0c-0.1,0-0.2,0.1-0.2,0.2c-0.1,0.1-0.1,0.2-0.2,0.3
							c0,0.1-0.1,0.3-0.1,0.5c0,0.2,0,0.4,0.1,0.5c0.1,0.1,0.1,0.2,0.2,0.3c0.1,0.1,0.1,0.1,0.2,0.2
							C465.6,320.3,465.7,320.3,465.8,320.3"/>
					</g>
					<g>
						<path class="st34" d="M472.8,319.3c0-0.2,0-0.4,0.1-0.6c0.1-0.2,0.2-0.4,0.3-0.5c0.1-0.2,0.3-0.3,0.5-0.4
							c0.2-0.1,0.4-0.1,0.6-0.1c0.2,0,0.4,0,0.6,0.1c0.2,0.1,0.4,0.2,0.5,0.4c0.1,0.1,0.2,0.3,0.3,0.5c0.1,0.2,0.1,0.4,0.1,0.6
							c0,0.2,0,0.4-0.1,0.6c-0.1,0.2-0.2,0.4-0.3,0.5c-0.1,0.2-0.3,0.3-0.5,0.4c-0.2,0.1-0.4,0.1-0.6,0.1c-0.3,0-0.5-0.1-0.7-0.2
							l0,1.1c0,0.1,0,0.3,0,0.3c0,0.1,0,0.2,0,0.2c0,0.1,0,0.1,0,0.1c-0.3,0-0.5-0.1-0.7-0.2c-0.2-0.1-0.2-0.3-0.2-0.6V319.3z
							 M474.3,320.4c0.1,0,0.1,0,0.2,0c0.1,0,0.2-0.1,0.2-0.2c0.1-0.1,0.1-0.2,0.2-0.3c0.1-0.1,0.1-0.3,0.1-0.5c0-0.2,0-0.4-0.1-0.5
							c0-0.1-0.1-0.2-0.2-0.3c-0.1-0.1-0.2-0.1-0.2-0.2c-0.1,0-0.2,0-0.2,0c-0.1,0-0.1,0-0.2,0c-0.1,0-0.2,0.1-0.2,0.2
							c-0.1,0.1-0.1,0.2-0.2,0.3c0,0.1-0.1,0.3-0.1,0.5c0,0.2,0,0.4,0.1,0.5c0.1,0.1,0.1,0.3,0.2,0.3c0.1,0.1,0.1,0.1,0.2,0.2
							C474.2,320.3,474.2,320.4,474.3,320.4"/>
					</g>
					<g>
						<path class="st34" d="M476.1,319.2c0-0.3,0-0.6,0.1-0.8c0.1-0.2,0.2-0.3,0.3-0.5c0.1-0.1,0.3-0.2,0.5-0.2
							c0.2,0,0.4-0.1,0.5-0.1h0.3c0,0.1,0,0.2,0,0.3c0,0.1,0,0.1-0.1,0.2c-0.1,0.1-0.1,0.1-0.3,0.1c-0.1,0-0.2,0-0.2,0.1
							c-0.1,0-0.1,0.1-0.2,0.1c-0.1,0.1-0.1,0.1-0.1,0.3c0,0.1-0.1,0.3-0.1,0.5v1c0,0.1,0,0.3,0,0.3c0,0.1,0,0.2,0,0.2
							c0,0.1,0,0.1,0,0.1c-0.3,0-0.5-0.1-0.6-0.2c-0.2-0.1-0.2-0.3-0.2-0.6V319.2z"/>
					</g>
					<g>
						<path class="st34" d="M478.6,319.1c0.1-0.1,0.3-0.1,0.4-0.2c0.2,0,0.3-0.1,0.5-0.1c0.2,0,0.5,0,0.7,0.1c0-0.1,0-0.3-0.1-0.4
							c-0.1-0.1-0.1-0.2-0.3-0.3c0,0-0.1,0-0.1-0.1c-0.1,0-0.1,0-0.2,0h-0.1c-0.1,0-0.1,0-0.2,0c-0.1,0-0.1,0-0.2,0.1
							c-0.1,0-0.1,0-0.2,0.1c-0.1,0-0.1,0-0.2,0s-0.1,0-0.2,0c-0.1,0-0.1-0.1-0.1-0.2l0,0l0,0c0.1-0.1,0.3-0.3,0.5-0.4
							c0.2-0.1,0.4-0.1,0.6-0.2c0,0,0,0,0.1,0h0.1c0.2,0,0.4,0,0.6,0.1c0.2,0.1,0.3,0.2,0.5,0.3c0.3,0.3,0.4,0.7,0.4,1.1v0.1
							c0,0.5-0.1,0.9-0.4,1.2c-0.1,0.1-0.3,0.3-0.4,0.4c-0.2,0.1-0.4,0.2-0.6,0.2c0,0-0.1,0-0.1,0h-0.1c-0.1,0-0.2,0-0.3,0
							c-0.1,0-0.2,0-0.3-0.1c-0.1,0-0.2-0.1-0.3-0.2c-0.1-0.1-0.2-0.2-0.2-0.3c-0.1-0.1-0.1-0.3-0.1-0.5v0c0-0.2,0-0.3,0.1-0.4
							C478.4,319.3,478.5,319.2,478.6,319.1 M480.1,319.4c-0.1,0-0.1,0-0.2,0c-0.1,0-0.2,0-0.2,0c-0.1,0-0.1,0-0.2,0
							c-0.1,0-0.1,0-0.2,0c-0.1,0-0.2,0.1-0.3,0.2c0,0,0,0.1-0.1,0.1c0,0,0,0.1,0,0.1c0,0,0,0,0,0.1c0,0,0,0.1,0,0.1
							c0,0.1,0,0.1,0.1,0.1c0,0,0.1,0.1,0.2,0.1c0.1,0,0.2,0,0.3,0c0,0,0.1,0,0.1,0c0.1,0,0.2,0,0.3-0.1c0,0,0.1-0.1,0.1-0.1
							c0,0,0.1-0.1,0.1-0.1c0.1-0.1,0.1-0.2,0.1-0.3c0-0.1,0-0.2,0-0.3c0,0,0,0,0,0c0,0,0,0,0,0
							C480.2,319.4,480.2,319.4,480.1,319.4C480.1,319.4,480.1,319.4,480.1,319.4"/>
					</g>
					<g>
						<path class="st34" d="M482.6,320.2c0,0.1,0,0.2,0,0.3c0,0.1-0.1,0.2-0.1,0.2c-0.1,0.1-0.2,0.1-0.3,0.1c-0.1,0-0.3,0-0.4,0
							c-0.1,0-0.2-0.1-0.3-0.2c-0.1-0.1-0.1-0.2-0.2-0.3c0-0.1-0.1-0.2-0.1-0.3v-3.4c0-0.1,0-0.2,0-0.3c0-0.1,0-0.2,0-0.2
							c0-0.1,0-0.1,0-0.1c0.3,0,0.5,0.1,0.7,0.2c0.2,0.1,0.2,0.3,0.2,0.6v3.2c0,0.1,0,0.2,0.1,0.2c0,0,0.1,0.1,0.1,0.1
							c0.1,0,0.1,0,0.2,0C482.6,320.3,482.6,320.3,482.6,320.2"/>
					</g>
					<g>
						<path class="st34" d="M485.3,318.1c0.1,0.1,0.3,0.3,0.3,0.5c0.1,0.2,0.1,0.4,0.1,0.6c0,0.2,0,0.4-0.1,0.6
							c-0.1,0.2-0.2,0.4-0.3,0.5c-0.1,0.2-0.3,0.3-0.5,0.4c-0.2,0.1-0.4,0.1-0.6,0.1c-0.2,0-0.4,0-0.6-0.1c-0.2-0.1-0.3-0.2-0.5-0.4
							c-0.1-0.1-0.2-0.3-0.3-0.5c-0.1-0.2-0.1-0.4-0.1-0.6c0-0.2,0-0.4,0.1-0.6c0.1-0.2,0.2-0.4,0.3-0.5c0.1-0.2,0.3-0.3,0.5-0.4
							c0.2-0.1,0.4-0.1,0.6-0.1c0.2,0,0.4,0,0.6,0.1C485,317.9,485.1,318,485.3,318.1 M484.2,320.4c0.1,0,0.1,0,0.2,0
							c0.1,0,0.2-0.1,0.2-0.2c0.1-0.1,0.1-0.2,0.2-0.3c0.1-0.1,0.1-0.3,0.1-0.5c0-0.2,0-0.4-0.1-0.5c0-0.1-0.1-0.2-0.2-0.3
							c-0.1-0.1-0.1-0.1-0.2-0.2c-0.1,0-0.2,0-0.2,0c-0.1,0-0.1,0-0.2,0c-0.1,0-0.2,0.1-0.2,0.2c-0.1,0.1-0.1,0.2-0.2,0.3
							c-0.1,0.1-0.1,0.3-0.1,0.5c0,0.2,0,0.4,0.1,0.5c0.1,0.1,0.1,0.2,0.2,0.3c0.1,0.1,0.2,0.1,0.2,0.2
							C484,320.3,484.1,320.4,484.2,320.4"/>
					</g>
					<g>
						<path class="st34" d="M464.1,320.1c0,0-0.1,0-0.1,0c-0.1,0-0.1,0-0.2,0.1c-0.1,0-0.2,0-0.2,0.1c-0.1,0-0.2,0-0.3,0
							c-0.1,0-0.1,0-0.2,0c-0.1,0-0.2-0.1-0.2-0.2c-0.1-0.1-0.1-0.2-0.2-0.3c-0.1-0.1-0.1-0.3-0.1-0.5c0-0.2,0-0.4,0.1-0.5
							c0.1-0.1,0.1-0.3,0.2-0.3c0.1-0.1,0.2-0.1,0.2-0.2c0.1,0,0.2,0,0.2,0c0.1,0,0.2,0,0.3,0c0.1,0,0.2,0,0.2,0.1
							c0.1,0,0.1,0,0.2,0.1c0,0,0.1,0,0.1,0l0.3-0.4c-0.1-0.1-0.2-0.2-0.4-0.2c-0.2-0.1-0.4-0.1-0.7-0.1c-0.2,0-0.4,0-0.6,0.1
							c-0.2,0.1-0.4,0.2-0.5,0.4c-0.1,0.2-0.2,0.3-0.3,0.5c-0.1,0.2-0.1,0.4-0.1,0.6c0,0.2,0,0.4,0.1,0.6c0.1,0.2,0.2,0.4,0.3,0.5
							c0.1,0.1,0.3,0.3,0.5,0.4c0.2,0.1,0.4,0.1,0.6,0.1c0.2,0,0.5,0,0.7-0.1c0.2-0.1,0.3-0.2,0.4-0.3L464.1,320.1z"/>
					</g>
					<g>
						<path class="st34" d="M472.5,319.7c0-0.6,0-1,0.1-1.3c0,0,0,0,0-0.1c-0.1-0.2-0.2-0.3-0.4-0.5c-0.1-0.1-0.3-0.2-0.5-0.2
							c-0.2,0-0.4-0.1-0.5-0.1c-0.2,0-0.4,0-0.6,0.1c-0.2,0-0.4,0.1-0.5,0.3c-0.1-0.1-0.3-0.2-0.5-0.3c-0.2,0-0.4-0.1-0.6-0.1
							c-0.2,0-0.4,0-0.5,0.1c-0.2,0-0.3,0.1-0.5,0.2c-0.1,0.1-0.3,0.3-0.3,0.5c-0.1,0.2-0.1,0.4-0.1,0.8l0,1c0,0.3,0.1,0.5,0.2,0.6
							c0.2,0.1,0.4,0.2,0.7,0.2c0,0,0-0.1,0-0.1c0-0.1,0-0.1,0-0.2c0-0.1,0-0.2,0-0.3v-1.1c0-0.2,0-0.4,0.1-0.5
							c0-0.1,0.1-0.2,0.2-0.3c0.1-0.1,0.1-0.1,0.2-0.1c0.1,0,0.2,0,0.2,0c0.1,0,0.2,0,0.2,0c0.1,0,0.2,0.1,0.2,0.1
							c0.1,0.1,0.1,0.2,0.2,0.3c0,0.1,0.1,0.3,0.1,0.5l0,1c0,0.3,0.1,0.5,0.2,0.6c0.2,0.1,0.4,0.2,0.7,0.2c0,0,0-0.1,0-0.1
							c0-0.1,0-0.1,0-0.2c0-0.1,0-0.2,0-0.3v-1.1c0-0.2,0-0.4,0.1-0.5c0-0.1,0.1-0.2,0.2-0.3c0.1-0.1,0.1-0.1,0.2-0.1
							c0.1,0,0.2,0,0.2,0s0.2,0,0.2,0c0.1,0,0.1,0.1,0.2,0.1c0.1,0.1,0.1,0.2,0.2,0.3c0,0.1,0.1,0.3,0.1,0.5l0,1
							c0,0.3,0.1,0.5,0.2,0.6c0.1,0.1,0.2,0.1,0.4,0.2V319.7z"/>
					</g>
					<g>
						<path class="st33" d="M487.9,320.3C487.9,320.3,487.9,320.3,487.9,320.3c0,0.1,0,0.1,0,0.1c0,0.1,0,0.2-0.1,0.2
							c0,0.1-0.1,0.1-0.1,0.2c-0.1,0.1-0.3,0.1-0.5,0.1c-0.1,0-0.3,0-0.4-0.1c-0.1-0.1-0.3-0.2-0.4-0.3c-0.1-0.1-0.2-0.3-0.3-0.5
							c-0.1-0.2-0.1-0.4-0.1-0.7l0-2c0-0.3,0.1-0.5,0.2-0.6c0.1-0.1,0.4-0.2,0.6-0.2c0,0,0,0.1,0,0.1c0,0.1,0,0.1,0,0.2
							c0,0.1,0,0.2,0,0.3l0,0.4h0.9c0,0.2-0.1,0.4-0.2,0.5c-0.1,0.1-0.3,0.2-0.5,0.2h-0.3l0,1c0,0.2,0,0.3,0.1,0.5
							c0,0.1,0.1,0.2,0.1,0.3c0.1,0.2,0.3,0.2,0.5,0.2c0.1,0,0.2,0,0.2,0C487.8,320.3,487.8,320.3,487.9,320.3"/>
					</g>
					<g>
						<path class="st33" d="M493.9,319.3c0,0.2,0,0.4-0.1,0.6c-0.1,0.2-0.2,0.4-0.3,0.5c-0.1,0.1-0.3,0.3-0.5,0.3
							c-0.2,0.1-0.4,0.1-0.6,0.1c-0.2,0-0.4,0-0.6-0.1c-0.2-0.1-0.3-0.2-0.5-0.3c-0.1-0.1-0.2-0.3-0.3-0.5c-0.1-0.2-0.1-0.4-0.1-0.6
							c0-0.2,0-0.4,0.1-0.6c0.1-0.2,0.2-0.4,0.3-0.5c0.1-0.1,0.3-0.3,0.5-0.3c0.2-0.1,0.4-0.1,0.6-0.1c0.3,0,0.5,0.1,0.7,0.2l0-1
							c0-0.3,0.1-0.5,0.2-0.6c0.1-0.1,0.4-0.2,0.6-0.2c0,0,0,0.1,0,0.1c0,0,0,0.1,0,0.2c0,0.1,0,0.2,0,0.3L493.9,319.3z
							 M492.4,320.4c0.1,0,0.1,0,0.2,0c0.1,0,0.2-0.1,0.2-0.2c0.1-0.1,0.1-0.2,0.2-0.3c0-0.1,0.1-0.3,0.1-0.5c0-0.2,0-0.4-0.1-0.5
							c0-0.1-0.1-0.2-0.2-0.3c-0.1-0.1-0.1-0.1-0.2-0.2c-0.1,0-0.1,0-0.2,0c-0.1,0-0.1,0-0.2,0c-0.1,0-0.2,0.1-0.2,0.2
							c-0.1,0.1-0.1,0.2-0.2,0.3c0,0.1-0.1,0.3-0.1,0.5c0,0.2,0,0.4,0.1,0.5c0.1,0.1,0.1,0.2,0.2,0.3c0.1,0.1,0.1,0.1,0.2,0.2
							C492.3,320.4,492.4,320.4,492.4,320.4"/>
					</g>
					<g>
						<path class="st33" d="M496.7,318.2c0.1,0.1,0.2,0.3,0.3,0.5c0.1,0.2,0.1,0.4,0.1,0.6c0,0.2,0,0.4-0.1,0.6
							c-0.1,0.2-0.2,0.4-0.3,0.5c-0.1,0.1-0.3,0.3-0.5,0.3c-0.2,0.1-0.4,0.1-0.6,0.1c-0.2,0-0.4,0-0.6-0.1c-0.2-0.1-0.3-0.2-0.5-0.3
							c-0.1-0.1-0.2-0.3-0.3-0.5c-0.1-0.2-0.1-0.4-0.1-0.6c0-0.2,0-0.4,0.1-0.6c0.1-0.2,0.2-0.4,0.3-0.5c0.1-0.1,0.3-0.3,0.5-0.4
							c0.2-0.1,0.4-0.1,0.6-0.1c0.2,0,0.4,0,0.6,0.1C496.4,317.9,496.5,318,496.7,318.2 M495.6,320.4c0.1,0,0.1,0,0.2,0
							c0.1,0,0.2-0.1,0.2-0.2c0.1-0.1,0.1-0.2,0.2-0.3c0-0.1,0.1-0.3,0.1-0.5c0-0.2,0-0.4-0.1-0.5c-0.1-0.1-0.1-0.2-0.2-0.3
							c-0.1-0.1-0.1-0.1-0.2-0.2c-0.1,0-0.1,0-0.2,0c-0.1,0-0.1,0-0.2,0c-0.1,0-0.2,0.1-0.2,0.2c-0.1,0.1-0.1,0.2-0.2,0.3
							c0,0.1-0.1,0.3-0.1,0.5c0,0.2,0,0.4,0.1,0.5c0,0.1,0.1,0.2,0.2,0.3c0.1,0.1,0.1,0.1,0.2,0.2
							C495.5,320.4,495.6,320.4,495.6,320.4"/>
					</g>
					<g>
						<path class="st33" d="M490.6,319.4c0-0.3,0.1-0.5,0.2-0.8c-0.1-0.1-0.2-0.3-0.3-0.4c-0.1-0.1-0.3-0.3-0.5-0.4
							c-0.2-0.1-0.4-0.1-0.6-0.1c-0.2,0-0.4,0-0.6,0.1c-0.2,0.1-0.3,0.2-0.5,0.4c-0.1,0.1-0.2,0.3-0.3,0.5c-0.1,0.2-0.1,0.4-0.1,0.6
							c0,0.2,0,0.4,0.1,0.6c0.1,0.2,0.2,0.4,0.3,0.5c0.1,0.1,0.3,0.3,0.5,0.4c0.2,0.1,0.4,0.1,0.6,0.1c0.2,0,0.4,0,0.6-0.1
							c0.2-0.1,0.3-0.2,0.5-0.4c0.1-0.1,0.2-0.2,0.2-0.4C490.6,319.9,490.6,319.6,490.6,319.4 M490,319.9c-0.1,0.1-0.1,0.2-0.2,0.3
							c-0.1,0.1-0.1,0.1-0.2,0.2c-0.1,0-0.1,0-0.2,0c-0.1,0-0.1,0-0.2,0c-0.1,0-0.2-0.1-0.2-0.2c-0.1-0.1-0.1-0.2-0.2-0.3
							c0-0.1-0.1-0.3-0.1-0.5c0-0.2,0-0.4,0.1-0.5c0.1-0.1,0.1-0.2,0.2-0.3c0.1-0.1,0.1-0.1,0.2-0.2c0.1,0,0.1,0,0.2,0
							c0.1,0,0.1,0,0.2,0c0.1,0,0.2,0.1,0.2,0.2c0.1,0.1,0.1,0.2,0.2,0.3c0,0.1,0.1,0.3,0.1,0.5C490.1,319.6,490.1,319.8,490,319.9"
							/>
					</g>
				</g>
			</g>
			<polygon class="st4" points="546,390 435,390 435,330.3 491,358.5 546,330.3 			"/>
			<g>
				<g>
					<path class="st39" d="M490.7,347.9L433.6,388c-0.1,0.1-0.2,0.2-0.3,0.3c0.2,6.2,5.3,11.1,11.6,11.1H539
						c6.4,0,11.6-5.2,11.6-11.6v-0.2L490.7,347.9z"/>
				</g>
			</g>
		</g>
	</g>
	<g>
		<g>
			<g>
				<path class="st4" d="M257.1,320.4h94.2c6.4,0,11.6,5.2,11.6,11.6v55.7c0,6.4-5.2,11.6-11.6,11.6h-94.2
					c-6.4,0-11.6-5.2-11.6-11.6V332C245.5,325.6,250.7,320.4,257.1,320.4"/>
			</g>
		</g>
		<g>
			<path class="st40" d="M302.9,334.9L245.8,388c-0.1,0.1-0.2,0.2-0.3,0.3c0.2,6.2,5.3,11.1,11.6,11.1h94.2
				c6.4,0,11.6-5.2,11.6-11.6v-0.2L302.9,334.9z"/>
		</g>
		<g>
			<g>
				<path class="st39" d="M303,376.6l59.5-44.8c0.1-0.1,0.2-0.2,0.3-0.3c-0.2-6.2-5.3-11.1-11.6-11.1h-94.2
					c-6.4,0-11.6,5.2-11.6,11.6v0.2L303,376.6z"/>
			</g>
		</g>
	</g>
	<g>
		<path class="st41" d="M414,355.5c0,1.9-1.6,3.5-3.5,3.5h-31c-1.9,0-3.5-1.6-3.5-3.5l0,0c0-1.9,1.6-3.5,3.5-3.5h31
			C412.4,352,414,353.6,414,355.5L414,355.5z"/>
		<path class="st41" d="M410.6,365h-18c-2.1,0-3.9,1.9-3.9,4s1.7,4,3.9,4h18c2.1,0,3.9-1.9,3.9-4S412.7,365,410.6,365z"/>
	</g>
	<g>
		<g>
			<text transform="matrix(1 0 0 1 48.5566 66.728)" class="st5 st24 st42">Tarjeta Efectivo</text>
		</g>
	</g>
	<g>
		<g>
			<g>
				<path class="st5" d="M83.5,724.5c-1-5-4.1-15.8-15.4-13.8c-11.2,2-10.8,2.3-18.4,3.1c-7.6,0.8-11.7,0-11.4,2.7
					c0,0-0.2,2.5,3.3,2.8c0,0,2.7,0.2,3.4,4.5l1.4,8.6c0,0,1.7,18.6,20,16.2C84.8,746.2,84.5,729.5,83.5,724.5 M78.2,731.1
					c0,0-0.6,8.1-9.2,9.7c-8.6,1.6-12.7-7.2-12.7-7.2l-6-11.5c-1.6-3.9,0.4-3.5,6.7-4.2c6.3-0.7,12.1-0.9,16.9,0.7
					C79.2,720.4,78.2,731.1,78.2,731.1"/>
			</g>
			<g>
				<path class="st5" d="M59.1,750.3c-3.6-1.4-7.7,0.5-9.2,4.2c-1.5,3.8,0.1,8,3.7,9.5c3.6,1.4,7.7-0.5,9.2-4.2
					C64.3,756,62.7,751.7,59.1,750.3 M56.9,760.5c-2.2,0.4-4.4-1.1-4.7-3.4c-0.4-2.2,1.1-4.4,3.4-4.7c2.2-0.4,4.4,1.1,4.7,3.4
					C60.7,758,59.1,760.2,56.9,760.5"/>
			</g>
			<g>
				<path class="st5" d="M83.3,746c-2.9-1.1-6.3,0.4-7.5,3.4c-1.3,3,0.1,6.4,3,7.6c2.9,1.1,6.3-0.4,7.5-3.4
					C87.6,750.5,86.2,747.1,83.3,746 M81.5,754.2c-1.8,0.3-3.5-0.9-3.8-2.7c-0.3-1.8,0.9-3.5,2.7-3.8c1.8-0.3,3.5,0.9,3.9,2.7
					C84.6,752.2,83.4,753.9,81.5,754.2"/>
			</g>
			<g>
				<path class="st5" d="M41.8,759.8c-4.6,1.6-5.1,2.1-5.1,2.1s0.6,0.2,5.5-0.6c4.8-0.7,4-1.8,4-1.8S46.4,758.1,41.8,759.8"/>
			</g>
			<g>
				<path class="st5" d="M45.6,762.9c-4,1.4-4.4,1.8-4.4,1.8s0.6,0.1,4.8-0.5c4.2-0.6,3.5-1.6,3.5-1.6S49.6,761.5,45.6,762.9"/>
			</g>
			<g>
				<path class="st5" d="M103.5,736.6c0.4,0.5,0.8,1,1,1.6c0.2,0.6,0.4,1.3,0.4,2c0,0.7-0.1,1.4-0.3,2c-0.2,0.6-0.6,1.2-1,1.6
					c-0.4,0.5-0.9,0.8-1.5,1.1c-0.6,0.3-1.3,0.4-2,0.4c-0.6,0-1.3-0.1-1.8-0.4c-0.6-0.3-1.1-0.6-1.5-1.1c-0.4-0.5-0.8-1-1-1.6
					c-0.3-0.6-0.4-1.3-0.4-2c0-0.7,0.1-1.4,0.3-2c0.2-0.6,0.5-1.2,0.9-1.6c0.4-0.5,0.9-0.8,1.5-1.1c0.6-0.3,1.3-0.4,2-0.4
					c0.7,0,1.3,0.1,1.9,0.4C102.5,735.8,103,736.1,103.5,736.6 M100.1,743.5c0.2,0,0.4,0,0.7-0.1c0.3-0.1,0.5-0.3,0.7-0.5
					c0.2-0.2,0.4-0.6,0.6-1c0.2-0.4,0.2-1,0.2-1.7c0-0.7-0.1-1.2-0.2-1.7c-0.2-0.4-0.3-0.8-0.6-1c-0.2-0.2-0.5-0.4-0.7-0.5
					c-0.2-0.1-0.5-0.1-0.7-0.1c-0.2,0-0.4,0-0.6,0.1c-0.3,0.1-0.5,0.3-0.7,0.5c-0.2,0.2-0.4,0.6-0.6,1c-0.2,0.4-0.2,1-0.2,1.7
					c0,0.7,0.1,1.2,0.2,1.7c0.2,0.4,0.3,0.8,0.6,1c0.2,0.2,0.5,0.4,0.7,0.5C99.7,743.5,99.9,743.5,100.1,743.5"/>
			</g>
			<g>
				<path class="st5" d="M121.7,740.4c0-0.7,0.1-1.4,0.4-2c0.2-0.6,0.6-1.2,1-1.6c0.4-0.5,0.9-0.8,1.5-1.1c0.6-0.3,1.2-0.4,1.9-0.4
					c0.7,0,1.4,0.1,2,0.4c0.6,0.3,1.1,0.6,1.5,1.1c0.4,0.5,0.7,1,1,1.6c0.2,0.6,0.3,1.3,0.3,2c0,0.7-0.1,1.4-0.4,2
					c-0.3,0.6-0.6,1.1-1,1.6c-0.4,0.5-0.9,0.8-1.5,1.1c-0.6,0.3-1.2,0.4-1.9,0.4c-0.8,0-1.5-0.2-2.1-0.5l0,3.3c0,0.4,0,0.8,0,1
					c0,0.3,0,0.5,0,0.6c0,0.2,0,0.3,0,0.4c-0.9,0-1.6-0.2-2-0.6c-0.5-0.4-0.7-1-0.7-1.8V740.4z M126.5,743.7c0.2,0,0.4,0,0.7-0.1
					c0.3-0.1,0.5-0.2,0.7-0.5c0.2-0.2,0.4-0.6,0.6-1c0.2-0.4,0.2-1,0.2-1.7c0-0.7-0.1-1.2-0.2-1.7c-0.2-0.4-0.3-0.8-0.6-1
					c-0.2-0.2-0.5-0.4-0.7-0.5c-0.2-0.1-0.5-0.1-0.7-0.1c-0.2,0-0.4,0-0.6,0.1c-0.3,0.1-0.5,0.2-0.7,0.5c-0.2,0.2-0.4,0.6-0.6,1
					c-0.2,0.4-0.2,1-0.2,1.7c0,0.7,0.1,1.2,0.2,1.7c0.2,0.4,0.3,0.8,0.6,1c0.2,0.2,0.5,0.4,0.7,0.5
					C126.1,743.6,126.3,743.7,126.5,743.7"/>
			</g>
			<g>
				<path class="st5" d="M132.1,740c0-1,0.1-1.7,0.4-2.3c0.3-0.6,0.6-1.1,1.1-1.4c0.4-0.3,0.9-0.6,1.5-0.7c0.5-0.1,1.1-0.2,1.6-0.2
					h1c0.1,0.3,0.1,0.6,0,0.8c0,0.2-0.1,0.4-0.3,0.6c-0.2,0.2-0.4,0.3-0.8,0.4c-0.2,0-0.5,0.1-0.7,0.2c-0.2,0.1-0.4,0.2-0.6,0.4
					c-0.2,0.2-0.3,0.5-0.5,0.8c-0.1,0.3-0.2,0.8-0.2,1.4v3.1c0,0.4,0,0.8,0,1c0,0.3,0,0.5,0,0.6c0,0.2,0,0.3,0,0.4
					c-0.9,0-1.5-0.2-2-0.5c-0.5-0.4-0.7-1-0.7-1.8V740z"/>
			</g>
			<g>
				<path class="st5" d="M139.9,739.7c0.4-0.2,0.8-0.4,1.3-0.5c0.5-0.1,1-0.2,1.5-0.2c0.7,0,1.4,0.1,2.1,0.3c0-0.4-0.1-0.8-0.3-1.2
					c-0.2-0.4-0.5-0.8-0.8-1c-0.1-0.1-0.3-0.1-0.5-0.2c-0.2,0-0.4-0.1-0.6-0.1h-0.2c-0.2,0-0.4,0-0.6,0.1c-0.2,0-0.4,0.1-0.6,0.2
					c-0.2,0.1-0.4,0.1-0.6,0.2c-0.2,0-0.4,0.1-0.6,0.1s-0.4,0-0.6-0.1c-0.2-0.1-0.3-0.3-0.5-0.5l0-0.1l0-0.1
					c0.4-0.5,0.9-0.8,1.5-1.1c0.6-0.3,1.2-0.4,1.9-0.5c0.1,0,0.1,0,0.2,0h0.2c0.6,0,1.3,0.1,1.8,0.4c0.5,0.2,1,0.6,1.4,1
					c0.8,0.9,1.2,2.1,1.3,3.5v0.2c0,1.5-0.4,2.7-1.1,3.6c-0.4,0.5-0.8,0.8-1.3,1.1c-0.5,0.3-1.1,0.5-1.7,0.5c-0.1,0-0.2,0-0.3,0
					h-0.3c-0.3,0-0.6,0-0.9-0.1c-0.3-0.1-0.7-0.1-1-0.3c-0.3-0.1-0.6-0.3-0.9-0.5c-0.3-0.2-0.5-0.5-0.7-0.8
					c-0.3-0.4-0.4-0.9-0.4-1.5V742c0-0.6,0.1-1,0.3-1.4C139.2,740.3,139.5,739.9,139.9,739.7 M144.3,740.7c-0.2,0-0.4-0.1-0.6-0.1
					c-0.2,0-0.5,0-0.7,0c-0.2,0-0.4,0-0.6,0c-0.2,0-0.4,0.1-0.5,0.1c-0.4,0.1-0.6,0.3-0.8,0.5c-0.1,0.1-0.1,0.2-0.2,0.3
					c0,0.1-0.1,0.2-0.1,0.4c0,0,0,0.1,0,0.2c0,0.1,0,0.3,0.1,0.5c0,0.2,0.1,0.3,0.3,0.5c0.1,0.1,0.3,0.3,0.5,0.4
					c0.2,0.1,0.5,0.1,0.9,0.1c0.1,0,0.2,0,0.3,0c0.4,0,0.7-0.1,1-0.3c0.1-0.1,0.3-0.2,0.4-0.3c0.1-0.1,0.2-0.3,0.3-0.4
					c0.2-0.3,0.3-0.5,0.3-0.8c0.1-0.3,0.1-0.5,0.1-0.8c0,0,0,0,0,0c0,0,0,0,0,0c-0.1,0-0.1,0-0.2,0
					C144.5,740.7,144.4,740.7,144.3,740.7"/>
			</g>
			<g>
				<path class="st5" d="M152.3,743.3c0,0.4,0,0.7-0.1,1c-0.1,0.2-0.2,0.5-0.4,0.7c-0.2,0.2-0.5,0.4-1,0.4c-0.4,0-0.8,0-1.2-0.1
					c-0.3-0.1-0.6-0.3-0.8-0.6c-0.2-0.2-0.4-0.5-0.5-0.9c-0.1-0.3-0.2-0.7-0.2-1v-10.4c0-0.4,0-0.8,0-1c0-0.3,0-0.5,0-0.6
					c0-0.2,0-0.3,0-0.4c0.9,0,1.6,0.2,2,0.6c0.5,0.4,0.7,1,0.7,1.8v9.9c0,0.3,0.1,0.6,0.2,0.8c0.1,0.1,0.3,0.2,0.4,0.3
					c0.2,0,0.3,0,0.5,0C152.1,743.5,152.2,743.4,152.3,743.3"/>
			</g>
			<g>
				<path class="st5" d="M160.4,736.8c0.4,0.5,0.8,1,1,1.6c0.2,0.6,0.4,1.3,0.4,2c0,0.7-0.1,1.4-0.3,2c-0.2,0.6-0.5,1.2-1,1.6
					c-0.4,0.5-0.9,0.8-1.5,1.1c-0.6,0.3-1.3,0.4-2,0.4c-0.7,0-1.3-0.1-1.8-0.4c-0.6-0.3-1.1-0.6-1.5-1.1c-0.4-0.5-0.8-1-1-1.6
					c-0.2-0.6-0.4-1.3-0.4-2c0-0.7,0.1-1.4,0.3-2c0.2-0.6,0.5-1.2,1-1.6c0.4-0.5,0.9-0.8,1.5-1.1c0.6-0.3,1.2-0.4,2-0.4
					c0.7,0,1.3,0.1,1.9,0.4C159.5,735.9,160,736.3,160.4,736.8 M157,743.7c0.2,0,0.4,0,0.6-0.1c0.3-0.1,0.5-0.2,0.7-0.5
					c0.2-0.2,0.4-0.6,0.6-1c0.2-0.4,0.3-1,0.3-1.7c0-0.7-0.1-1.2-0.3-1.7c-0.1-0.4-0.3-0.8-0.6-1c-0.2-0.2-0.5-0.4-0.7-0.5
					c-0.2-0.1-0.5-0.1-0.6-0.1c-0.2,0-0.4,0-0.6,0.1c-0.3,0.1-0.5,0.2-0.7,0.5c-0.2,0.2-0.4,0.6-0.6,1c-0.2,0.4-0.2,1-0.2,1.7
					c0,0.7,0.1,1.2,0.2,1.7c0.2,0.4,0.4,0.8,0.6,1c0.2,0.2,0.5,0.4,0.7,0.5C156.6,743.6,156.8,743.7,157,743.7"/>
			</g>
			<g>
				<path class="st5" d="M95,742.9c-0.1,0-0.2,0-0.3,0.1c-0.2,0.1-0.4,0.1-0.6,0.2c-0.2,0.1-0.5,0.1-0.7,0.2
					c-0.3,0.1-0.6,0.1-0.9,0.1c-0.2,0-0.4,0-0.7-0.1c-0.2-0.1-0.5-0.2-0.7-0.5c-0.2-0.2-0.4-0.6-0.6-1c-0.2-0.4-0.2-1-0.2-1.7
					c0-0.7,0.1-1.2,0.2-1.7c0.2-0.4,0.4-0.8,0.6-1c0.2-0.2,0.5-0.4,0.7-0.5c0.2-0.1,0.5-0.1,0.7-0.1c0.3,0,0.6,0,0.9,0.1
					c0.3,0.1,0.5,0.1,0.7,0.2c0.2,0.1,0.4,0.1,0.6,0.2c0.1,0,0.2,0.1,0.3,0.1l0.8-1.2c-0.4-0.3-0.8-0.6-1.2-0.7
					c-0.6-0.3-1.3-0.4-2.1-0.4c-0.7,0-1.4,0.1-2,0.4c-0.6,0.3-1.1,0.6-1.5,1.1c-0.4,0.5-0.7,1-1,1.6c-0.2,0.6-0.3,1.3-0.3,2
					c0,0.7,0.1,1.4,0.4,2c0.3,0.6,0.6,1.2,1,1.6c0.4,0.5,1,0.8,1.5,1.1c0.6,0.3,1.2,0.4,1.9,0.4c0.7,0,1.4-0.2,2.1-0.4
					c0.5-0.2,0.9-0.5,1.3-0.8L95,742.9z"/>
			</g>
			<g>
				<path class="st5" d="M120.9,741.6c0-1.9,0.1-3.1,0.3-4c0-0.1-0.1-0.1-0.1-0.2c-0.3-0.6-0.6-1.1-1.1-1.4
					c-0.4-0.3-0.9-0.6-1.5-0.7c-0.6-0.1-1.1-0.2-1.6-0.2c-0.6,0-1.2,0.1-1.8,0.2c-0.6,0.1-1.1,0.4-1.6,0.8c-0.5-0.4-1-0.7-1.6-0.8
					c-0.6-0.1-1.2-0.2-1.8-0.2c-0.5,0-1.1,0.1-1.6,0.2c-0.6,0.1-1,0.3-1.5,0.7c-0.4,0.3-0.8,0.8-1.1,1.4c-0.3,0.6-0.4,1.4-0.4,2.3
					l0,3c0,0.8,0.2,1.4,0.7,1.8c0.5,0.4,1.1,0.6,2,0.6c0-0.1,0-0.2,0-0.4c0-0.2,0-0.4,0-0.6c0-0.3,0-0.6,0-1v-3.3
					c0-0.6,0.1-1.1,0.2-1.4c0.1-0.4,0.3-0.7,0.5-0.9c0.2-0.2,0.4-0.3,0.6-0.4c0.2-0.1,0.5-0.1,0.7-0.1c0.2,0,0.5,0,0.7,0.1
					c0.2,0.1,0.5,0.2,0.7,0.4c0.2,0.2,0.4,0.5,0.5,0.9c0.1,0.4,0.2,0.8,0.2,1.4l0,3c0,0.8,0.2,1.4,0.7,1.8c0.5,0.4,1.1,0.6,2,0.6
					c0-0.1,0-0.2,0-0.4c0-0.2,0-0.4,0-0.6c0-0.3,0-0.6,0-1v-3.3c0-0.6,0.1-1.1,0.2-1.4c0.1-0.4,0.3-0.7,0.5-0.9
					c0.2-0.2,0.4-0.3,0.6-0.4c0.2-0.1,0.5-0.1,0.7-0.1c0.2,0,0.5,0,0.7,0.1c0.2,0.1,0.5,0.2,0.7,0.4c0.2,0.2,0.4,0.5,0.5,0.9
					c0.1,0.4,0.2,0.8,0.2,1.4l0,3c0,0.8,0.2,1.4,0.7,1.8c0.3,0.3,0.8,0.4,1.3,0.5V741.6z"/>
			</g>
			<g>
				<path class="st5" d="M168.5,743.4c0,0,0,0.1,0,0.1c0,0.1,0,0.2,0,0.3c0,0.3-0.1,0.5-0.2,0.7c-0.1,0.2-0.3,0.4-0.5,0.5
					c-0.4,0.3-0.9,0.4-1.4,0.4c-0.5,0-0.9-0.1-1.4-0.3c-0.4-0.2-0.8-0.5-1.2-0.9c-0.4-0.4-0.6-0.9-0.9-1.6c-0.2-0.6-0.3-1.4-0.3-2.2
					l0-6c0-0.8,0.2-1.4,0.7-1.8c0.4-0.4,1.1-0.5,1.9-0.5c0,0.1,0,0.2,0,0.4c0,0.2,0,0.4,0,0.6c0,0.3,0,0.6,0,1l0,1.3h2.8
					c0,0.6-0.2,1.1-0.5,1.5c-0.4,0.4-0.8,0.6-1.5,0.6h-0.8l0,3c0,0.6,0.1,1.1,0.2,1.5c0.1,0.4,0.3,0.7,0.4,1
					c0.4,0.5,0.9,0.7,1.5,0.7c0.2,0,0.5,0,0.7-0.1C168.3,743.5,168.4,743.5,168.5,743.4"/>
			</g>
			<g>
				<path class="st5" d="M187.3,740.5c0,0.7-0.1,1.3-0.3,1.9c-0.2,0.6-0.5,1.1-0.9,1.6c-0.4,0.4-0.9,0.8-1.5,1.1
					c-0.6,0.3-1.2,0.4-1.9,0.4c-0.6,0-1.2-0.1-1.8-0.4c-0.6-0.3-1.1-0.6-1.5-1.1c-0.4-0.5-0.7-1-1-1.6c-0.2-0.6-0.4-1.3-0.4-2
					c0-0.7,0.1-1.4,0.3-2c0.2-0.6,0.5-1.1,0.9-1.6c0.4-0.4,0.9-0.8,1.5-1.1c0.6-0.3,1.2-0.4,1.9-0.4c0.8,0,1.5,0.2,2.1,0.5l0-2.9
					c0-0.8,0.2-1.4,0.7-1.8c0.5-0.4,1.1-0.5,2-0.5c0,0.1,0,0.2,0,0.4c0,0.1,0,0.4,0,0.6c0,0.3,0,0.6,0,1L187.3,740.5z M182.6,743.7
					c0.2,0,0.4,0,0.6-0.1c0.2-0.1,0.5-0.2,0.7-0.5c0.2-0.2,0.4-0.6,0.6-1c0.2-0.4,0.2-1,0.2-1.6c0-0.7-0.1-1.2-0.2-1.6
					c-0.2-0.4-0.3-0.7-0.6-1c-0.2-0.2-0.5-0.4-0.7-0.5c-0.2-0.1-0.5-0.1-0.6-0.1c-0.2,0-0.4,0-0.6,0.1c-0.2,0.1-0.5,0.2-0.7,0.5
					c-0.2,0.2-0.4,0.6-0.6,1c-0.1,0.4-0.2,1-0.2,1.6c0,0.7,0.1,1.2,0.2,1.6c0.2,0.4,0.3,0.8,0.6,1c0.2,0.2,0.5,0.4,0.7,0.5
					C182.2,743.7,182.4,743.7,182.6,743.7"/>
			</g>
			<g>
				<path class="st5" d="M195.7,737c0.4,0.4,0.8,1,1,1.6c0.3,0.6,0.4,1.3,0.4,2c0,0.7-0.1,1.3-0.3,2c-0.2,0.6-0.5,1.1-0.9,1.6
					c-0.4,0.5-0.9,0.8-1.5,1.1c-0.6,0.3-1.2,0.4-1.9,0.4c-0.6,0-1.2-0.1-1.8-0.4c-0.6-0.3-1.1-0.6-1.5-1.1c-0.4-0.5-0.7-1-1-1.6
					c-0.2-0.6-0.4-1.3-0.4-2c0-0.7,0.1-1.3,0.3-2c0.2-0.6,0.5-1.1,0.9-1.6c0.4-0.5,0.9-0.8,1.5-1.1c0.6-0.3,1.2-0.4,1.9-0.4
					c0.6,0,1.3,0.1,1.8,0.4C194.8,736.1,195.3,736.5,195.7,737 M192.4,743.7c0.2,0,0.4,0,0.6-0.1c0.2-0.1,0.5-0.2,0.7-0.5
					c0.2-0.2,0.4-0.6,0.6-1c0.1-0.4,0.2-1,0.2-1.6c0-0.7-0.1-1.2-0.2-1.6c-0.2-0.4-0.4-0.7-0.6-1c-0.2-0.2-0.5-0.4-0.7-0.5
					c-0.2-0.1-0.5-0.1-0.6-0.1c-0.2,0-0.4,0-0.6,0.1c-0.3,0.1-0.5,0.2-0.7,0.5c-0.2,0.2-0.4,0.6-0.6,1c-0.1,0.4-0.2,1-0.2,1.6
					c0,0.7,0.1,1.2,0.2,1.6c0.2,0.4,0.3,0.7,0.6,1c0.2,0.2,0.4,0.4,0.7,0.5C192,743.7,192.3,743.7,192.4,743.7"/>
			</g>
			<g>
				<path class="st5" d="M176.8,740.6c0-0.8,0.2-1.6,0.5-2.3c-0.2-0.4-0.5-0.9-0.8-1.2c-0.4-0.5-0.9-0.8-1.5-1.1
					c-0.6-0.3-1.2-0.4-1.8-0.4c-0.7,0-1.4,0.1-1.9,0.4c-0.6,0.3-1.1,0.6-1.5,1.1c-0.4,0.4-0.7,1-0.9,1.6c-0.2,0.6-0.3,1.3-0.3,2
					c0,0.7,0.1,1.3,0.4,2c0.2,0.6,0.6,1.1,1,1.6c0.4,0.5,0.9,0.8,1.5,1.1c0.6,0.3,1.2,0.4,1.8,0.4c0.7,0,1.4-0.1,1.9-0.4
					c0.6-0.3,1.1-0.6,1.5-1.1c0.3-0.3,0.6-0.7,0.8-1.1C177.1,742.2,176.8,741.4,176.8,740.6 M175.1,742.2c-0.2,0.4-0.3,0.7-0.6,1
					c-0.2,0.2-0.4,0.4-0.7,0.5c-0.2,0.1-0.5,0.1-0.6,0.1c-0.2,0-0.4,0-0.6-0.1c-0.2-0.1-0.5-0.2-0.7-0.5c-0.2-0.2-0.4-0.6-0.6-1
					c-0.2-0.4-0.2-1-0.2-1.6c0-0.7,0.1-1.2,0.2-1.6c0.2-0.4,0.3-0.8,0.6-1c0.2-0.2,0.5-0.4,0.7-0.5c0.2-0.1,0.5-0.1,0.6-0.1
					c0.2,0,0.4,0,0.6,0.1c0.3,0.1,0.5,0.2,0.7,0.5c0.2,0.2,0.4,0.6,0.6,1c0.2,0.4,0.2,1,0.2,1.6
					C175.4,741.2,175.3,741.8,175.1,742.2"/>
			</g>
		</g>
	</g>
</g>
</svg>
