<?xml version="1.0" encoding="utf-8"?>
<!-- Generator: Adobe Illustrator 23.0.1, SVG Export Plug-In . SVG Version: 6.00 Build 0)  -->
<svg version="1.1" id="Capa_1" xmlns="http://www.w3.org/2000/svg" xmlns:xlink="http://www.w3.org/1999/xlink" x="0px" y="0px"
	 viewBox="0 0 501 248" style="enable-background:new 0 0 501 248;" xml:space="preserve">
<style type="text/css">
	.st0{fill:url(#SVGID_1_);}
	.st1{fill:url(#SVGID_2_);}
	.st2{fill:url(#SVGID_3_);}
	.st3{fill:url(#SVGID_4_);}
	.st4{fill:url(#SVGID_5_);}
	.st5{fill:url(#SVGID_6_);}
	.st6{fill:url(#SVGID_7_);}
	.st7{fill:url(#SVGID_8_);}
	.st8{fill:url(#SVGID_9_);}
	.st9{fill:url(#SVGID_10_);}
	.st10{fill:url(#SVGID_11_);}
	.st11{fill:url(#SVGID_12_);}
	.st12{fill:url(#SVGID_13_);}
	.st13{fill:url(#SVGID_14_);}
	.st14{fill:url(#SVGID_15_);}
	.st15{fill:url(#SVGID_16_);}
	.st16{fill:url(#SVGID_17_);}
</style>
<g>
	<linearGradient id="SVGID_1_" gradientUnits="userSpaceOnUse" x1="15.7469" y1="100.3047" x2="151.7146" y2="100.3047">
		<stop  offset="0" style="stop-color:#682690"/>
		<stop  offset="3.600615e-02" style="stop-color:#63258E"/>
		<stop  offset="0.2583" style="stop-color:#4A2185"/>
		<stop  offset="0.4886" style="stop-color:#371E7F"/>
		<stop  offset="0.73" style="stop-color:#2D1D7B"/>
		<stop  offset="1" style="stop-color:#291C7A"/>
	</linearGradient>
	<path class="st0" d="M150.7,84.9c-2.8-15-12.3-47.1-45.9-41.1c-33.5,6-32.2,6.9-54.9,9.3c-22.7,2.4-34.8,0-34.1,8.1
		c0,0-0.7,7.4,9.8,8.5c0,0,8.1,0.7,10.2,13.3l4.3,25.6c0,0,5,55.7,59.7,48.5C154.6,149.8,153.5,99.9,150.7,84.9z M134.8,104.5
		c0,0-1.9,24.2-27.5,28.9c-25.5,4.8-38-21.4-38-21.4l-18-34.4c-4.8-11.8,1.1-10.6,20-12.6c18.8-2,36.2-2.8,50.5,2.1
		C137.7,72.6,134.8,104.5,134.8,104.5z"/>
	<linearGradient id="SVGID_2_" gradientUnits="userSpaceOnUse" x1="48.4255" y1="182.428" x2="90.4422" y2="182.428">
		<stop  offset="0" style="stop-color:#682690"/>
		<stop  offset="3.600615e-02" style="stop-color:#63258E"/>
		<stop  offset="0.2583" style="stop-color:#4A2185"/>
		<stop  offset="0.4886" style="stop-color:#371E7F"/>
		<stop  offset="0.73" style="stop-color:#2D1D7B"/>
		<stop  offset="1" style="stop-color:#291C7A"/>
	</linearGradient>
	<path class="st1" d="M77.7,162c-10.7-4.3-23,1.4-27.6,12.7c-4.6,11.3,0.4,24,11,28.3c10.7,4.3,23-1.4,27.6-12.7
		C93.3,178.9,88.4,166.3,77.7,162z M71.1,192.5c-6.7,1.1-13-3.4-14.2-10.1c-1.1-6.7,3.4-13,10.1-14.2c6.7-1.1,13,3.4,14.2,10.1
		C82.3,185.1,77.8,191.4,71.1,192.5z"/>
	<linearGradient id="SVGID_3_" gradientUnits="userSpaceOnUse" x1="126.2939" y1="165.5143" x2="160.4641" y2="165.5143">
		<stop  offset="0" style="stop-color:#682690"/>
		<stop  offset="3.600615e-02" style="stop-color:#63258E"/>
		<stop  offset="0.2583" style="stop-color:#4A2185"/>
		<stop  offset="0.4886" style="stop-color:#371E7F"/>
		<stop  offset="0.73" style="stop-color:#2D1D7B"/>
		<stop  offset="1" style="stop-color:#291C7A"/>
	</linearGradient>
	<path class="st2" d="M150.1,149.1c-8.7-3.4-18.7,1.2-22.4,10.2c-3.7,9.1,0.3,19.2,8.9,22.6c8.7,3.4,18.7-1.2,22.4-10.2
		C162.8,162.6,158.8,152.5,150.1,149.1z M144.7,173.6c-5.4,0.9-10.6-2.7-11.5-8c-0.9-5.4,2.8-10.4,8.2-11.4c5.4-0.9,10.6,2.7,11.5,8
		C153.9,167.6,150.2,172.7,144.7,173.6z"/>
	<linearGradient id="SVGID_4_" gradientUnits="userSpaceOnUse" x1="10.8655" y1="192.1193" x2="39.3304" y2="192.1193">
		<stop  offset="0" style="stop-color:#682690"/>
		<stop  offset="3.600615e-02" style="stop-color:#63258E"/>
		<stop  offset="0.2583" style="stop-color:#4A2185"/>
		<stop  offset="0.4886" style="stop-color:#371E7F"/>
		<stop  offset="0.73" style="stop-color:#2D1D7B"/>
		<stop  offset="1" style="stop-color:#291C7A"/>
	</linearGradient>
	<path class="st3" d="M26.1,190.2c-13.8,4.8-15.2,6.1-15.2,6.1s1.9,0.5,16.4-1.7c14.4-2.2,12-5.3,12-5.3S39.9,185.4,26.1,190.2z"/>
	<linearGradient id="SVGID_5_" gradientUnits="userSpaceOnUse" x1="23.9933" y1="201.2647" x2="48.8017" y2="201.2647">
		<stop  offset="0" style="stop-color:#682690"/>
		<stop  offset="3.600615e-02" style="stop-color:#63258E"/>
		<stop  offset="0.2583" style="stop-color:#4A2185"/>
		<stop  offset="0.4886" style="stop-color:#371E7F"/>
		<stop  offset="0.73" style="stop-color:#2D1D7B"/>
		<stop  offset="1" style="stop-color:#291C7A"/>
	</linearGradient>
	<path class="st4" d="M37.3,199.6C25.3,203.8,24,205,24,205s1.7,0.4,14.3-1.5c12.6-1.9,10.4-4.6,10.4-4.6S49.3,195.4,37.3,199.6z"/>
	<linearGradient id="SVGID_6_" gradientUnits="userSpaceOnUse" x1="185.953" y1="131.8185" x2="214.5069" y2="131.8185">
		<stop  offset="0" style="stop-color:#682690"/>
		<stop  offset="3.600615e-02" style="stop-color:#63258E"/>
		<stop  offset="0.2583" style="stop-color:#4A2185"/>
		<stop  offset="0.4886" style="stop-color:#371E7F"/>
		<stop  offset="0.73" style="stop-color:#2D1D7B"/>
		<stop  offset="1" style="stop-color:#291C7A"/>
	</linearGradient>
	<path class="st5" d="M210.3,121c1.3,1.4,2.4,3,3.1,4.8c0.7,1.9,1.1,3.8,1.1,6s-0.3,4.1-1,6c-0.7,1.9-1.6,3.5-2.9,4.8
		c-1.2,1.4-2.7,2.5-4.5,3.3c-1.8,0.8-3.7,1.2-5.9,1.2c-2,0-3.8-0.4-5.5-1.2c-1.7-0.8-3.2-1.9-4.6-3.3c-1.3-1.4-2.3-3-3-4.8
		c-0.7-1.9-1.1-3.8-1.1-6s0.3-4.1,1-6c0.7-1.9,1.6-3.5,2.8-4.8c1.2-1.4,2.7-2.5,4.5-3.3c1.8-0.8,3.7-1.2,5.9-1.2
		c2,0,3.9,0.4,5.6,1.2C207.5,118.5,209,119.6,210.3,121z M200.2,141.7c0.6,0,1.2-0.1,1.9-0.4c0.7-0.3,1.5-0.7,2.1-1.5
		c0.7-0.7,1.3-1.7,1.7-3c0.5-1.3,0.7-2.9,0.7-5s-0.2-3.7-0.7-5c-0.5-1.3-1-2.3-1.7-3c-0.7-0.7-1.4-1.2-2.1-1.4
		c-0.7-0.3-1.4-0.4-1.9-0.4c-0.6,0-1.2,0.1-1.9,0.4c-0.7,0.3-1.5,0.7-2.1,1.4c-0.7,0.7-1.3,1.7-1.7,3c-0.5,1.3-0.7,3-0.7,5
		s0.2,3.7,0.7,5c0.5,1.3,1,2.3,1.7,3c0.7,0.7,1.4,1.2,2.1,1.5C199,141.5,199.6,141.7,200.2,141.7z"/>
	<linearGradient id="SVGID_7_" gradientUnits="userSpaceOnUse" x1="264.8827" y1="139.4772" x2="293.4365" y2="139.4772">
		<stop  offset="0" style="stop-color:#682690"/>
		<stop  offset="3.600615e-02" style="stop-color:#63258E"/>
		<stop  offset="0.2583" style="stop-color:#4A2185"/>
		<stop  offset="0.4886" style="stop-color:#371E7F"/>
		<stop  offset="0.73" style="stop-color:#2D1D7B"/>
		<stop  offset="1" style="stop-color:#291C7A"/>
	</linearGradient>
	<path class="st6" d="M264.9,132.3c0-2.1,0.4-4.1,1.1-6c0.7-1.9,1.8-3.5,3-4.8c1.3-1.4,2.8-2.5,4.5-3.3c1.7-0.8,3.6-1.2,5.6-1.2
		c2.2,0,4.1,0.4,5.9,1.2c1.8,0.8,3.3,1.9,4.5,3.3c1.2,1.4,2.2,3,2.9,4.8c0.7,1.9,1,3.8,1,6c0,2.1-0.4,4.1-1.1,6
		c-0.7,1.9-1.8,3.5-3.1,4.8c-1.3,1.4-2.8,2.5-4.5,3.3c-1.7,0.8-3.6,1.2-5.6,1.2c-2.4,0-4.6-0.5-6.5-1.5l0.1,9.7c0,1.3,0,2.3,0,3.1
		c0,0.8,0.1,1.4,0.1,1.9c0,0.5,0.1,0.9,0.1,1.2c-2.6,0-4.7-0.6-6-1.7c-1.4-1.1-2.1-2.9-2.1-5.5V132.3z M279.1,142.1
		c0.6,0,1.2-0.1,1.9-0.4c0.7-0.3,1.5-0.7,2.1-1.4c0.7-0.7,1.3-1.7,1.7-3c0.5-1.3,0.7-3,0.7-5c0-2-0.2-3.7-0.7-5
		c-0.5-1.3-1-2.3-1.7-3c-0.7-0.7-1.4-1.2-2.1-1.4c-0.7-0.3-1.4-0.4-1.9-0.4c-0.6,0-1.2,0.1-1.9,0.4c-0.7,0.3-1.5,0.7-2.1,1.4
		c-0.7,0.7-1.3,1.7-1.7,3c-0.5,1.3-0.7,2.9-0.7,5c0,2,0.2,3.7,0.7,5c0.5,1.3,1,2.3,1.7,3c0.7,0.7,1.4,1.2,2.1,1.4
		C277.9,142,278.6,142.1,279.1,142.1z"/>
	<linearGradient id="SVGID_8_" gradientUnits="userSpaceOnUse" x1="295.8248" y1="131.8185" x2="312.9523" y2="131.8185">
		<stop  offset="0" style="stop-color:#682690"/>
		<stop  offset="3.600615e-02" style="stop-color:#63258E"/>
		<stop  offset="0.2583" style="stop-color:#4A2185"/>
		<stop  offset="0.4886" style="stop-color:#371E7F"/>
		<stop  offset="0.73" style="stop-color:#2D1D7B"/>
		<stop  offset="1" style="stop-color:#291C7A"/>
	</linearGradient>
	<path class="st7" d="M295.8,131.1c0-2.9,0.4-5.2,1.2-7c0.8-1.8,1.9-3.2,3.2-4.2c1.3-1,2.8-1.7,4.4-2.1c1.6-0.4,3.3-0.5,4.9-0.5h3.1
		c0.2,0.9,0.3,1.7,0.1,2.5c-0.1,0.6-0.4,1.3-0.9,1.9c-0.5,0.6-1.3,1-2.4,1.1c-0.7,0.1-1.4,0.2-2.1,0.5c-0.7,0.2-1.3,0.6-1.9,1.2
		s-1,1.4-1.4,2.5c-0.4,1.1-0.5,2.5-0.5,4.3v9.3c0,1.3,0,2.3,0,3.1c0,0.8,0.1,1.4,0.1,1.9c0,0.5,0.1,0.9,0.1,1.1
		c-2.6,0-4.6-0.5-6-1.6c-1.4-1.1-2.1-2.9-2.1-5.5V131.1z"/>
	<linearGradient id="SVGID_9_" gradientUnits="userSpaceOnUse" x1="315.3373" y1="131.8185" x2="341.2083" y2="131.8185">
		<stop  offset="0" style="stop-color:#682690"/>
		<stop  offset="3.600615e-02" style="stop-color:#63258E"/>
		<stop  offset="0.2583" style="stop-color:#4A2185"/>
		<stop  offset="0.4886" style="stop-color:#371E7F"/>
		<stop  offset="0.73" style="stop-color:#2D1D7B"/>
		<stop  offset="1" style="stop-color:#291C7A"/>
	</linearGradient>
	<path class="st8" d="M319.1,130.2c1.2-0.7,2.4-1.3,3.9-1.6c1.4-0.4,3-0.5,4.5-0.5c2.2,0,4.3,0.3,6.3,1c-0.1-1.3-0.4-2.5-0.8-3.5
		c-0.6-1.3-1.4-2.3-2.5-2.9c-0.4-0.2-0.9-0.4-1.4-0.5c-0.5-0.1-1.1-0.2-1.7-0.2h-0.7c-0.6,0-1.2,0.1-1.8,0.3
		c-0.6,0.1-1.2,0.3-1.8,0.5c-0.6,0.2-1.2,0.4-1.8,0.5c-0.6,0.1-1.2,0.2-1.7,0.2c-0.6,0-1.2-0.1-1.7-0.4c-0.5-0.3-1-0.8-1.3-1.5
		l-0.1-0.3l0.1-0.2c1.3-1.4,2.8-2.5,4.5-3.3c1.7-0.8,3.6-1.3,5.7-1.4c0.2,0,0.4-0.1,0.5-0.1c0.1,0,0.3,0,0.5,0c2,0,3.7,0.4,5.4,1.1
		c1.6,0.7,3,1.7,4.2,2.9c2.4,2.6,3.7,6.1,3.8,10.4v0.5c0,4.4-1.1,8-3.4,10.8c-1.1,1.4-2.4,2.5-4,3.3c-1.6,0.9-3.3,1.4-5.2,1.6
		c-0.3,0-0.5,0.1-0.8,0.1c-0.3,0-0.5,0-0.8,0c-0.9,0-1.8-0.1-2.8-0.2c-1-0.1-1.9-0.4-2.9-0.9c-1-0.4-1.9-0.9-2.7-1.5
		c-0.8-0.6-1.5-1.4-2-2.4c-0.8-1.2-1.2-2.7-1.3-4.5v-0.4c0-1.7,0.3-3,1-4.2C317,132,317.9,131,319.1,130.2z M332.3,133.3
		c-0.6-0.1-1.2-0.2-1.9-0.3c-0.7-0.1-1.4-0.1-2.1-0.1c-0.6,0-1.2,0-1.7,0.1c-0.6,0.1-1.1,0.2-1.5,0.4c-1.1,0.3-1.9,0.9-2.4,1.6
		c-0.2,0.3-0.4,0.5-0.5,0.9c-0.1,0.3-0.2,0.7-0.3,1.1c0,0.1-0.1,0.3-0.1,0.6c0,0.4,0.1,0.9,0.2,1.4c0.1,0.5,0.4,0.9,0.8,1.4
		c0.3,0.4,0.8,0.8,1.5,1.1c0.7,0.3,1.5,0.4,2.7,0.4c0.3,0,0.6,0,0.8-0.1c1.2,0,2.2-0.4,3.1-1c0.4-0.3,0.8-0.6,1.1-0.9
		c0.3-0.4,0.6-0.8,0.8-1.2c0.5-0.8,0.8-1.6,1-2.5c0.2-0.9,0.3-1.6,0.3-2.4c0,0-0.1,0-0.1,0c0,0-0.1,0-0.1,0c-0.2,0-0.4-0.1-0.6-0.1
		C332.9,133.4,332.6,133.4,332.3,133.3z"/>
	<linearGradient id="SVGID_10_" gradientUnits="userSpaceOnUse" x1="343.3776" y1="124.8813" x2="356.121" y2="124.8813">
		<stop  offset="0" style="stop-color:#682690"/>
		<stop  offset="3.600615e-02" style="stop-color:#63258E"/>
		<stop  offset="0.2583" style="stop-color:#4A2185"/>
		<stop  offset="0.4886" style="stop-color:#371E7F"/>
		<stop  offset="0.73" style="stop-color:#2D1D7B"/>
		<stop  offset="1" style="stop-color:#291C7A"/>
	</linearGradient>
	<path class="st9" d="M356.1,141c0.1,1.1,0,2.1-0.3,3c-0.2,0.8-0.6,1.5-1.3,2.2c-0.6,0.7-1.6,1.1-3,1.2c-1.3,0.1-2.5,0-3.4-0.4
		c-1-0.4-1.8-1-2.5-1.7c-0.7-0.7-1.2-1.6-1.5-2.6c-0.3-1-0.5-2-0.5-3.1v-31.1c0-1.3-0.1-2.3-0.1-3.1c0-0.8-0.1-1.4-0.1-1.9
		c0-0.5-0.1-0.9-0.1-1.2c2.6,0,4.7,0.6,6.1,1.7c1.4,1.1,2.1,2.9,2.1,5.4v29.4c0,1,0.2,1.8,0.6,2.2c0.4,0.4,0.8,0.7,1.3,0.8
		c0.5,0.1,1,0,1.5-0.2C355.5,141.5,355.9,141.3,356.1,141z"/>
	<linearGradient id="SVGID_11_" gradientUnits="userSpaceOnUse" x1="356.121" y1="132.2905" x2="384.6748" y2="132.2905">
		<stop  offset="0" style="stop-color:#682690"/>
		<stop  offset="3.600615e-02" style="stop-color:#63258E"/>
		<stop  offset="0.2583" style="stop-color:#4A2185"/>
		<stop  offset="0.4886" style="stop-color:#371E7F"/>
		<stop  offset="0.73" style="stop-color:#2D1D7B"/>
		<stop  offset="1" style="stop-color:#291C7A"/>
	</linearGradient>
	<path class="st10" d="M380.5,121.5c1.3,1.4,2.4,3,3.1,4.8c0.7,1.9,1.1,3.8,1.1,6s-0.3,4.1-1,6c-0.7,1.9-1.6,3.5-2.9,4.8
		c-1.2,1.4-2.7,2.5-4.5,3.3c-1.8,0.8-3.7,1.2-5.9,1.2c-2,0-3.8-0.4-5.5-1.2c-1.7-0.8-3.2-1.9-4.6-3.3c-1.3-1.4-2.3-3-3-4.8
		c-0.7-1.9-1.1-3.8-1.1-6s0.3-4.1,1-6c0.7-1.9,1.6-3.5,2.8-4.8c1.2-1.4,2.7-2.5,4.5-3.3c1.8-0.8,3.7-1.2,5.9-1.2
		c2,0,3.9,0.4,5.6,1.2C377.7,119,379.2,120.1,380.5,121.5z M370.4,142.1c0.6,0,1.2-0.1,1.9-0.4c0.7-0.3,1.5-0.7,2.1-1.5
		c0.7-0.7,1.3-1.7,1.7-3c0.5-1.3,0.7-2.9,0.7-5s-0.2-3.7-0.7-5c-0.5-1.3-1-2.3-1.7-3c-0.7-0.7-1.4-1.2-2.1-1.4
		c-0.7-0.3-1.4-0.4-1.9-0.4c-0.6,0-1.2,0.1-1.9,0.4c-0.7,0.3-1.5,0.7-2.1,1.4c-0.7,0.7-1.3,1.7-1.7,3c-0.5,1.3-0.7,3-0.7,5
		s0.2,3.7,0.7,5c0.5,1.3,1,2.3,1.7,3c0.7,0.7,1.4,1.2,2.1,1.5C369.2,142,369.8,142.1,370.4,142.1z"/>
	<linearGradient id="SVGID_12_" gradientUnits="userSpaceOnUse" x1="163.2849" y1="131.8185" x2="187.6485" y2="131.8185">
		<stop  offset="0" style="stop-color:#682690"/>
		<stop  offset="3.600615e-02" style="stop-color:#63258E"/>
		<stop  offset="0.2583" style="stop-color:#4A2185"/>
		<stop  offset="0.4886" style="stop-color:#371E7F"/>
		<stop  offset="0.73" style="stop-color:#2D1D7B"/>
		<stop  offset="1" style="stop-color:#291C7A"/>
	</linearGradient>
	<path class="st11" d="M185.1,139.9c-0.3,0-0.7,0.1-1,0.2c-0.6,0.2-1.2,0.4-1.8,0.7c-0.6,0.2-1.4,0.4-2.2,0.6
		c-0.8,0.2-1.7,0.3-2.6,0.3c-0.6,0-1.2-0.1-1.9-0.4c-0.7-0.3-1.5-0.7-2.1-1.4c-0.7-0.7-1.3-1.7-1.7-3c-0.5-1.3-0.7-3-0.7-5
		c0-2,0.2-3.7,0.7-5c0.5-1.3,1-2.3,1.7-3c0.7-0.7,1.4-1.2,2.1-1.4c0.7-0.3,1.4-0.4,1.9-0.4c0.9,0,1.7,0.1,2.6,0.3
		c0.8,0.2,1.5,0.4,2.2,0.7c0.6,0.2,1.2,0.4,1.8,0.6c0.3,0.1,0.6,0.2,0.8,0.2l2.5-3.6c-1.1-0.9-2.3-1.7-3.6-2.2
		c-1.9-0.9-4-1.3-6.3-1.3c-2.2,0-4.1,0.4-5.9,1.2c-1.7,0.8-3.2,1.9-4.5,3.3c-1.2,1.4-2.2,3-2.9,4.9c-0.7,1.9-1,3.8-1,6
		c0,2.1,0.4,4.1,1.1,6c0.7,1.9,1.8,3.5,3,4.8c1.3,1.4,2.8,2.4,4.6,3.3c1.7,0.8,3.6,1.2,5.6,1.2c2.2,0,4.3-0.4,6.2-1.3
		c1.4-0.6,2.7-1.5,3.8-2.5L185.1,139.9z"/>
	<linearGradient id="SVGID_13_" gradientUnits="userSpaceOnUse" x1="216.726" y1="131.4672" x2="263.4229" y2="131.4672">
		<stop  offset="0" style="stop-color:#682690"/>
		<stop  offset="3.600615e-02" style="stop-color:#63258E"/>
		<stop  offset="0.2583" style="stop-color:#4A2185"/>
		<stop  offset="0.4886" style="stop-color:#371E7F"/>
		<stop  offset="0.73" style="stop-color:#2D1D7B"/>
		<stop  offset="1" style="stop-color:#291C7A"/>
	</linearGradient>
	<path class="st12" d="M262.5,135.9c0-5.5,0.4-9.4,0.9-12c-0.1-0.2-0.1-0.4-0.2-0.5c-0.8-1.8-1.9-3.2-3.3-4.2s-2.8-1.7-4.5-2.1
		c-1.7-0.4-3.3-0.5-4.9-0.5c-1.8,0-3.6,0.2-5.3,0.6c-1.7,0.4-3.3,1.2-4.7,2.4c-1.4-1.2-2.9-2-4.7-2.4c-1.7-0.4-3.5-0.6-5.3-0.6
		c-1.6,0-3.2,0.2-4.9,0.5c-1.6,0.4-3.1,1.1-4.4,2.1c-1.3,1-2.4,2.4-3.2,4.2c-0.8,1.8-1.2,4.1-1.2,7l-0.1,9c0,2.5,0.7,4.3,2.1,5.4
		c1.4,1.1,3.4,1.7,6.1,1.7c0-0.3-0.1-0.6-0.1-1.1c0-0.5-0.1-1.1-0.1-1.9c0-0.8,0-1.9,0-3.1v-9.9c0-1.8,0.2-3.2,0.5-4.3
		c0.3-1.1,0.8-1.9,1.4-2.6c0.6-0.6,1.2-1,1.9-1.2c0.7-0.2,1.4-0.3,2.1-0.3c0.7,0,1.4,0.1,2.2,0.3c0.7,0.2,1.4,0.6,2,1.2
		c0.6,0.6,1.1,1.5,1.4,2.6c0.4,1.1,0.5,2.5,0.5,4.3l-0.1,9c0,2.5,0.7,4.3,2.1,5.4c1.4,1.1,3.4,1.7,6.1,1.7c0-0.3-0.1-0.6-0.1-1.1
		c0-0.5-0.1-1.1-0.1-1.9c0-0.8-0.1-1.9-0.1-3.1v-9.9c0-1.8,0.2-3.2,0.5-4.3c0.4-1.1,0.8-1.9,1.4-2.6c0.6-0.6,1.2-1,1.9-1.2
		c0.7-0.2,1.4-0.3,2.1-0.3c0.7,0,1.4,0.1,2.2,0.3c0.7,0.2,1.4,0.6,2,1.2c0.6,0.6,1.1,1.5,1.4,2.6c0.4,1.1,0.5,2.5,0.5,4.3l-0.1,9
		c0,2.5,0.7,4.3,2.1,5.4c1,0.8,2.2,1.3,3.8,1.5V135.9z"/>
	<linearGradient id="SVGID_14_" gradientUnits="userSpaceOnUse" x1="387.4861" y1="127.6462" x2="404.8399" y2="127.6462">
		<stop  offset="0" style="stop-color:#682690"/>
		<stop  offset="3.600615e-02" style="stop-color:#63258E"/>
		<stop  offset="0.2583" style="stop-color:#4A2185"/>
		<stop  offset="0.4886" style="stop-color:#371E7F"/>
		<stop  offset="0.73" style="stop-color:#2D1D7B"/>
		<stop  offset="1" style="stop-color:#291C7A"/>
	</linearGradient>
	<path class="st13" d="M404.7,141.4c0,0.1,0,0.3,0.1,0.4c0.1,0.3,0.1,0.6,0.1,0.9c0,0.7-0.2,1.4-0.5,2c-0.3,0.6-0.8,1.1-1.4,1.5
		c-1.2,0.8-2.6,1.2-4.2,1.2c-1.4,0-2.7-0.3-4.1-0.9c-1.3-0.6-2.5-1.6-3.6-2.8c-1.1-1.2-1.9-2.8-2.6-4.7c-0.6-1.9-1-4-1-6.5l0.1-18
		c0-2.5,0.7-4.3,2-5.4c1.3-1.1,3.3-1.6,5.8-1.6c0,0.3-0.1,0.7-0.1,1.2c0,0.5-0.1,1.1-0.1,1.8c0,0.8,0,1.8,0,3l0.1,3.9h8.4
		c0,1.9-0.5,3.4-1.6,4.5c-1,1.1-2.5,1.7-4.4,1.7h-2.4l-0.1,8.9c0,1.7,0.2,3.2,0.5,4.4c0.3,1.2,0.7,2.2,1.3,2.9
		c1.1,1.4,2.6,2.1,4.4,2.1c0.7,0,1.5-0.1,2.2-0.3C403.9,141.7,404.3,141.6,404.7,141.4z"/>
	<linearGradient id="SVGID_15_" gradientUnits="userSpaceOnUse" x1="432.7542" y1="125.6175" x2="460.9697" y2="125.6175">
		<stop  offset="0" style="stop-color:#682690"/>
		<stop  offset="3.600615e-02" style="stop-color:#63258E"/>
		<stop  offset="0.2583" style="stop-color:#4A2185"/>
		<stop  offset="0.4886" style="stop-color:#371E7F"/>
		<stop  offset="0.73" style="stop-color:#2D1D7B"/>
		<stop  offset="1" style="stop-color:#291C7A"/>
	</linearGradient>
	<path class="st14" d="M460.7,132.7c0,2-0.3,4-1,5.8c-0.7,1.8-1.6,3.4-2.8,4.8c-1.2,1.3-2.7,2.4-4.4,3.2c-1.7,0.8-3.7,1.2-5.8,1.2
		c-1.9,0-3.7-0.4-5.4-1.2c-1.7-0.8-3.2-1.9-4.5-3.2c-1.2-1.3-2.2-2.9-3-4.7c-0.7-1.8-1.1-3.8-1.1-5.8c0-2.1,0.3-4,1-5.8
		c0.6-1.8,1.6-3.4,2.8-4.8c1.2-1.3,2.7-2.4,4.4-3.2c1.7-0.8,3.7-1.2,5.8-1.2c2.3,0,4.5,0.5,6.4,1.6l-0.1-8.8c0-2.5,0.7-4.3,2.1-5.3
		c1.4-1.1,3.3-1.6,5.9-1.6c0,0.2-0.1,0.6-0.1,1.1c0,0.5-0.1,1.1-0.1,1.9c0,0.8,0,1.8,0,3.1L460.7,132.7z M446.7,142.3
		c0.5,0,1.2-0.1,1.9-0.4c0.7-0.2,1.4-0.7,2.1-1.4c0.7-0.7,1.2-1.7,1.7-2.9c0.5-1.3,0.7-2.9,0.7-4.9s-0.2-3.6-0.7-4.9
		c-0.5-1.3-1-2.2-1.7-2.9c-0.7-0.7-1.4-1.2-2.1-1.4c-0.7-0.2-1.4-0.4-1.9-0.4c-0.5,0-1.2,0.1-1.9,0.4s-1.4,0.7-2.1,1.4
		c-0.7,0.7-1.2,1.7-1.7,2.9c-0.5,1.3-0.7,2.9-0.7,4.9s0.2,3.6,0.7,4.9c0.5,1.3,1,2.2,1.7,2.9s1.4,1.2,2.1,1.4
		C445.5,142.1,446.1,142.3,446.7,142.3z"/>
	<linearGradient id="SVGID_16_" gradientUnits="userSpaceOnUse" x1="462.2311" y1="132.64" x2="490.1345" y2="132.64">
		<stop  offset="0" style="stop-color:#682690"/>
		<stop  offset="3.600615e-02" style="stop-color:#63258E"/>
		<stop  offset="0.2583" style="stop-color:#4A2185"/>
		<stop  offset="0.4886" style="stop-color:#371E7F"/>
		<stop  offset="0.73" style="stop-color:#2D1D7B"/>
		<stop  offset="1" style="stop-color:#291C7A"/>
	</linearGradient>
	<path class="st15" d="M486,122.1c1.3,1.3,2.3,2.9,3,4.7c0.7,1.8,1.1,3.8,1.1,5.8c0,2.1-0.3,4-1,5.8c-0.7,1.8-1.6,3.4-2.8,4.7
		c-1.2,1.4-2.7,2.5-4.4,3.2c-1.7,0.8-3.7,1.2-5.8,1.2c-1.9,0-3.7-0.4-5.4-1.2c-1.7-0.8-3.2-1.9-4.5-3.2c-1.2-1.3-2.2-2.9-3-4.7
		c-0.7-1.8-1.1-3.8-1.1-5.8c0-2.1,0.3-4,1-5.8c0.6-1.8,1.6-3.4,2.8-4.7c1.2-1.4,2.7-2.5,4.4-3.2c1.7-0.8,3.7-1.2,5.8-1.2
		c2,0,3.8,0.4,5.5,1.2C483.3,119.6,484.8,120.7,486,122.1z M476.2,142.3c0.5,0,1.2-0.1,1.9-0.4c0.7-0.2,1.4-0.7,2.1-1.4
		c0.7-0.7,1.2-1.7,1.7-2.9c0.5-1.2,0.7-2.9,0.7-4.9s-0.2-3.6-0.7-4.9c-0.5-1.3-1-2.2-1.7-2.9c-0.7-0.7-1.4-1.2-2.1-1.4
		c-0.7-0.2-1.4-0.4-1.9-0.4c-0.5,0-1.2,0.1-1.9,0.4c-0.7,0.2-1.4,0.7-2.1,1.4c-0.7,0.7-1.2,1.7-1.7,2.9c-0.5,1.3-0.7,2.9-0.7,4.9
		s0.2,3.6,0.7,4.9c0.5,1.2,1,2.2,1.7,2.9c0.7,0.7,1.4,1.2,2.1,1.4C475,142.1,475.6,142.3,476.2,142.3z"/>
	<linearGradient id="SVGID_17_" gradientUnits="userSpaceOnUse" x1="404.8399" y1="132.9046" x2="431.2034" y2="132.9046">
		<stop  offset="0" style="stop-color:#682690"/>
		<stop  offset="3.600615e-02" style="stop-color:#63258E"/>
		<stop  offset="0.2583" style="stop-color:#4A2185"/>
		<stop  offset="0.4886" style="stop-color:#371E7F"/>
		<stop  offset="0.73" style="stop-color:#2D1D7B"/>
		<stop  offset="1" style="stop-color:#291C7A"/>
	</linearGradient>
	<path class="st16" d="M429.6,132.9c0-2.5,0.6-4.9,1.5-7c-0.7-1.3-1.5-2.5-2.5-3.6c-1.2-1.4-2.7-2.5-4.4-3.2
		c-1.7-0.8-3.5-1.2-5.5-1.2c-2.1,0-4,0.4-5.8,1.2c-1.7,0.8-3.2,1.9-4.4,3.2c-1.2,1.3-2.1,2.9-2.8,4.7c-0.6,1.8-1,3.8-1,5.8
		c0,2.1,0.4,4,1.1,5.8c0.7,1.8,1.7,3.4,3,4.7c1.3,1.4,2.8,2.5,4.5,3.2c1.7,0.8,3.5,1.2,5.4,1.2c2.1,0,4-0.4,5.8-1.2
		c1.7-0.8,3.2-1.9,4.4-3.2c0.9-1,1.7-2.1,2.3-3.4C430.2,137.9,429.6,135.5,429.6,132.9z M424.4,137.8c-0.5,1.2-1,2.2-1.7,2.9
		c-0.7,0.7-1.4,1.2-2.1,1.4c-0.7,0.2-1.4,0.4-1.9,0.4c-0.5,0-1.2-0.1-1.9-0.4s-1.4-0.7-2.1-1.4c-0.7-0.7-1.2-1.7-1.7-2.9
		c-0.5-1.2-0.7-2.9-0.7-4.9s0.2-3.6,0.7-4.9c0.5-1.3,1-2.2,1.7-2.9c0.7-0.7,1.4-1.2,2.1-1.4c0.7-0.2,1.4-0.4,1.9-0.4
		c0.5,0,1.2,0.1,1.9,0.4c0.7,0.2,1.4,0.7,2.1,1.4c0.7,0.7,1.2,1.7,1.7,2.9c0.5,1.3,0.7,2.9,0.7,4.9S424.9,136.5,424.4,137.8z"/>
</g>
</svg>
