<svg width="480" height="162" viewBox="0 0 480 162" fill="none" xmlns="http://www.w3.org/2000/svg">
<path d="M139.8 41.8382C137 26.8382 127.5 -5.26178 93.9 0.738219C60.4 6.73822 61.7 7.63822 39 10.0382C16.3 12.4382 4.19997 10.0382 4.89997 18.1382C4.89997 18.1382 4.19997 25.5382 14.7 26.6382C14.7 26.6382 22.8 27.3382 24.9 39.9382L29.2 65.5382C29.2 65.5382 34.2 121.238 88.9 114.038C143.7 106.738 142.6 56.8382 139.8 41.8382ZM123.9 61.4382C123.9 61.4382 122 85.6382 96.4 90.3382C70.9 95.1382 58.4 68.9382 58.4 68.9382L40.4 34.5382C35.6 22.7382 41.5 23.9382 60.4 21.9382C79.2 19.9382 96.6 19.1382 110.9 24.0382C126.8 29.5382 123.9 61.4382 123.9 61.4382Z" fill="white"/>
<path d="M66.8 118.938C56.1 114.638 43.8 120.338 39.2 131.638C34.6 142.938 39.6 155.638 50.2 159.938C60.9 164.238 73.2 158.538 77.8 147.238C82.4 135.838 77.5 123.238 66.8 118.938ZM60.2 149.438C53.5 150.538 47.2 146.038 46 139.338C44.9 132.638 49.4 126.338 56.1 125.138C62.8 124.038 69.1 128.538 70.3 135.238C71.4 142.038 66.9 148.338 60.2 149.438Z" fill="white"/>
<path d="M139.2 106.038C130.5 102.638 120.5 107.238 116.8 116.238C113.1 125.338 117.1 135.438 125.7 138.838C134.4 142.238 144.4 137.638 148.1 128.638C151.9 119.538 147.9 109.438 139.2 106.038ZM133.8 130.538C128.4 131.438 123.2 127.838 122.3 122.538C121.4 117.138 125.1 112.138 130.5 111.138C135.9 110.238 141.1 113.838 142 119.138C143 124.538 139.3 129.638 133.8 130.538Z" fill="white"/>
<path d="M15.2 147.138C1.4 151.938 0 153.238 0 153.238C0 153.238 1.9 153.738 16.4 151.538C30.8 149.338 28.4 146.238 28.4 146.238C28.4 146.238 29 142.338 15.2 147.138Z" fill="white"/>
<path d="M26.4 156.538C14.4 160.738 13.1 161.938 13.1 161.938C13.1 161.938 14.8 162.338 27.4 160.438C40 158.538 37.8 155.838 37.8 155.838C37.8 155.838 38.4 152.338 26.4 156.538Z" fill="white"/>
<path d="M199.4 77.9382C200.7 79.3382 201.8 80.9382 202.5 82.7382C203.2 84.6382 203.6 86.5382 203.6 88.7382C203.6 90.9382 203.3 92.8382 202.6 94.7382C201.9 96.6382 201 98.2382 199.7 99.5382C198.5 100.938 197 102.038 195.2 102.838C193.4 103.638 191.5 104.038 189.3 104.038C187.3 104.038 185.5 103.638 183.8 102.838C182.1 102.038 180.6 100.938 179.2 99.5382C177.9 98.1382 176.9 96.5382 176.2 94.7382C175.5 92.8382 175.1 90.9382 175.1 88.7382C175.1 86.5382 175.4 84.6382 176.1 82.7382C176.8 80.8382 177.7 79.2382 178.9 77.9382C180.1 76.5382 181.6 75.4382 183.4 74.6382C185.2 73.8382 187.1 73.4382 189.3 73.4382C191.3 73.4382 193.2 73.8382 194.9 74.6382C196.6 75.4382 198.1 76.5382 199.4 77.9382ZM189.3 98.6382C189.9 98.6382 190.5 98.5382 191.2 98.2382C191.9 97.9382 192.7 97.5382 193.3 96.7382C194 96.0382 194.6 95.0382 195 93.7382C195.5 92.4382 195.7 90.8382 195.7 88.7382C195.7 86.6382 195.5 85.0382 195 83.7382C194.5 82.4382 194 81.4382 193.3 80.7382C192.6 80.0382 191.9 79.5382 191.2 79.3382C190.5 79.0382 189.8 78.9382 189.3 78.9382C188.7 78.9382 188.1 79.0382 187.4 79.3382C186.7 79.6382 185.9 80.0382 185.3 80.7382C184.6 81.4382 184 82.4382 183.6 83.7382C183.1 85.0382 182.9 86.7382 182.9 88.7382C182.9 90.7382 183.1 92.4382 183.6 93.7382C184.1 95.0382 184.6 96.0382 185.3 96.7382C186 97.4382 186.7 97.9382 187.4 98.2382C188.1 98.4382 188.7 98.6382 189.3 98.6382Z" fill="white"/>
<path d="M254 89.2382C254 87.1382 254.4 85.1382 255.1 83.2382C255.8 81.3382 256.9 79.7382 258.1 78.4382C259.4 77.0382 260.9 75.9382 262.6 75.1382C264.3 74.3382 266.2 73.9382 268.2 73.9382C270.4 73.9382 272.3 74.3382 274.1 75.1382C275.9 75.9382 277.4 77.0382 278.6 78.4382C279.8 79.8382 280.8 81.4382 281.5 83.2382C282.2 85.1382 282.5 87.0382 282.5 89.2382C282.5 91.3382 282.1 93.3382 281.4 95.2382C280.7 97.1382 279.6 98.7382 278.3 100.038C277 101.438 275.5 102.538 273.8 103.338C272.1 104.138 270.2 104.538 268.2 104.538C265.8 104.538 263.6 104.038 261.7 103.038L261.8 112.738C261.8 114.038 261.8 115.038 261.8 115.838C261.8 116.638 261.9 117.238 261.9 117.738C261.9 118.238 262 118.638 262 118.938C259.4 118.938 257.3 118.338 256 117.238C254.6 116.138 253.9 114.338 253.9 111.738V89.2382H254ZM268.2 99.0382C268.8 99.0382 269.4 98.9382 270.1 98.6382C270.8 98.3382 271.6 97.9382 272.2 97.2382C272.9 96.5382 273.5 95.5382 273.9 94.2382C274.4 92.9382 274.6 91.2382 274.6 89.2382C274.6 87.2382 274.4 85.5382 273.9 84.2382C273.4 82.9382 272.9 81.9382 272.2 81.2382C271.5 80.5382 270.8 80.0382 270.1 79.8382C269.4 79.5382 268.7 79.4382 268.2 79.4382C267.6 79.4382 267 79.5382 266.3 79.8382C265.6 80.1382 264.8 80.5382 264.2 81.2382C263.5 81.9382 262.9 82.9382 262.5 84.2382C262 85.5382 261.8 87.1382 261.8 89.2382C261.8 91.2382 262 92.9382 262.5 94.2382C263 95.5382 263.5 96.5382 264.2 97.2382C264.9 97.9382 265.6 98.4382 266.3 98.6382C267 98.9382 267.7 99.0382 268.2 99.0382Z" fill="white"/>
<path d="M284.9 88.0382C284.9 85.1382 285.3 82.8382 286.1 81.0382C286.9 79.2382 288 77.8382 289.3 76.8382C290.6 75.8382 292.1 75.1382 293.7 74.7382C295.3 74.3382 297 74.2382 298.6 74.2382H301.7C301.9 75.1382 302 75.9382 301.8 76.7382C301.7 77.3382 301.4 78.0382 300.9 78.6382C300.4 79.2382 299.6 79.6382 298.5 79.7382C297.8 79.8382 297.1 79.9382 296.4 80.2382C295.7 80.4382 295.1 80.8382 294.5 81.4382C293.9 82.0382 293.5 82.8382 293.1 83.9382C292.7 85.0382 292.6 86.4382 292.6 88.2382V97.5382C292.6 98.8382 292.6 99.8382 292.6 100.638C292.6 101.438 292.7 102.038 292.7 102.538C292.7 103.038 292.8 103.438 292.8 103.638C290.2 103.638 288.2 103.138 286.8 102.038C285.4 100.938 284.7 99.1382 284.7 96.5382V88.0382H284.9Z" fill="white"/>
<path d="M308.2 87.1382C309.4 86.4382 310.6 85.8382 312.1 85.5382C313.5 85.1382 315.1 85.0382 316.6 85.0382C318.8 85.0382 320.9 85.3382 322.9 86.0382C322.8 84.7382 322.5 83.5382 322.1 82.5382C321.5 81.2382 320.7 80.2382 319.6 79.6382C319.2 79.4382 318.7 79.2382 318.2 79.1382C317.7 79.0382 317.1 78.9382 316.5 78.9382H315.8C315.2 78.9382 314.6 79.0382 314 79.2382C313.4 79.3382 312.8 79.5382 312.2 79.7382C311.6 79.9382 311 80.1382 310.4 80.2382C309.8 80.3382 309.2 80.4382 308.7 80.4382C308.1 80.4382 307.5 80.3382 307 80.0382C306.5 79.7382 306 79.2382 305.7 78.5382L305.6 78.2382L305.7 78.0382C307 76.6382 308.5 75.5382 310.2 74.7382C311.9 73.9382 313.8 73.4382 315.9 73.3382C316.1 73.3382 316.3 73.2382 316.4 73.2382C316.5 73.2382 316.7 73.2382 316.9 73.2382C318.9 73.2382 320.6 73.6382 322.3 74.3382C323.9 75.0382 325.3 76.0382 326.5 77.2382C328.9 79.8382 330.2 83.3382 330.3 87.6382V88.1382C330.3 92.5382 329.2 96.1382 326.9 98.9382C325.8 100.338 324.5 101.438 322.9 102.238C321.3 103.138 319.6 103.638 317.7 103.838C317.4 103.838 317.2 103.938 316.9 103.938C316.6 103.938 316.4 103.938 316.1 103.938C315.2 103.938 314.3 103.838 313.3 103.738C312.3 103.638 311.4 103.338 310.4 102.838C309.4 102.438 308.5 101.938 307.7 101.338C306.9 100.738 306.2 99.9382 305.7 98.9382C304.9 97.7382 304.5 96.2382 304.4 94.4382V94.0382C304.4 92.3382 304.7 91.0382 305.4 89.8382C306.1 88.9382 307 87.9382 308.2 87.1382ZM321.4 90.2382C320.8 90.1382 320.2 90.0382 319.5 89.9382C318.8 89.8382 318.1 89.8382 317.4 89.8382C316.8 89.8382 316.2 89.8382 315.7 89.9382C315.1 90.0382 314.6 90.1382 314.2 90.3382C313.1 90.6382 312.3 91.2382 311.8 91.9382C311.6 92.2382 311.4 92.4382 311.3 92.8382C311.2 93.1382 311.1 93.5382 311 93.9382C311 94.0382 310.9 94.2382 310.9 94.5382C310.9 94.9382 311 95.4382 311.1 95.9382C311.2 96.4382 311.5 96.8382 311.9 97.3382C312.2 97.7382 312.7 98.1382 313.4 98.4382C314.1 98.7382 314.9 98.8382 316.1 98.8382C316.4 98.8382 316.7 98.8382 316.9 98.7382C318.1 98.7382 319.1 98.3382 320 97.7382C320.4 97.4382 320.8 97.1382 321.1 96.8382C321.4 96.4382 321.7 96.0382 321.9 95.6382C322.4 94.8382 322.7 94.0382 322.9 93.1382C323.1 92.2382 323.2 91.5382 323.2 90.7382H323.1H323C322.8 90.7382 322.6 90.6382 322.4 90.6382C322 90.3382 321.7 90.3382 321.4 90.2382Z" fill="#FEFCFF"/>
<path d="M345.2 97.9382C345.3 99.0382 345.2 100.038 344.9 100.938C344.7 101.738 344.3 102.438 343.6 103.138C343 103.838 342 104.238 340.6 104.338C339.3 104.438 338.1 104.338 337.2 103.938C336.2 103.538 335.4 102.938 334.7 102.238C334 101.538 333.5 100.638 333.2 99.6382C332.9 98.6382 332.7 97.6382 332.7 96.5382V65.4382C332.7 64.1382 332.6 63.1382 332.6 62.3382C332.6 61.5382 332.5 60.9382 332.5 60.4382C332.5 59.9382 332.4 59.5382 332.4 59.2382C335 59.2382 337.1 59.8382 338.5 60.9382C339.9 62.0382 340.6 63.8382 340.6 66.3382V95.7382C340.6 96.7382 340.8 97.5382 341.2 97.9382C341.6 98.3382 342 98.6382 342.5 98.7382C343 98.8382 343.5 98.7382 344 98.5382C344.6 98.4382 345 98.2382 345.2 97.9382Z" fill="white"/>
<path d="M369.6 78.4382C370.9 79.8382 372 81.4382 372.7 83.2382C373.4 85.1382 373.8 87.0382 373.8 89.2382C373.8 91.4382 373.5 93.3382 372.8 95.2382C372.1 97.1382 371.2 98.7382 369.9 100.038C368.7 101.438 367.2 102.538 365.4 103.338C363.6 104.138 361.7 104.538 359.5 104.538C357.5 104.538 355.7 104.138 354 103.338C352.3 102.538 350.8 101.438 349.4 100.038C348.1 98.6382 347.1 97.0382 346.4 95.2382C345.7 93.3382 345.3 91.4382 345.3 89.2382C345.3 87.0382 345.6 85.1382 346.3 83.2382C347 81.3382 347.9 79.7382 349.1 78.4382C350.3 77.0382 351.8 75.9382 353.6 75.1382C355.4 74.3382 357.3 73.9382 359.5 73.9382C361.5 73.9382 363.4 74.3382 365.1 75.1382C366.8 75.9382 368.3 77.0382 369.6 78.4382ZM359.5 99.0382C360.1 99.0382 360.7 98.9382 361.4 98.6382C362.1 98.3382 362.9 97.9382 363.5 97.1382C364.2 96.4382 364.8 95.4382 365.2 94.1382C365.7 92.8382 365.9 91.2382 365.9 89.1382C365.9 87.0382 365.7 85.4382 365.2 84.1382C364.7 82.8382 364.2 81.8382 363.5 81.1382C362.8 80.4382 362.1 79.9382 361.4 79.7382C360.7 79.4382 360 79.3382 359.5 79.3382C358.9 79.3382 358.3 79.4382 357.6 79.7382C356.9 80.0382 356.1 80.4382 355.5 81.1382C354.8 81.8382 354.2 82.8382 353.8 84.1382C353.3 85.4382 353.1 87.1382 353.1 89.1382C353.1 91.1382 353.3 92.8382 353.8 94.1382C354.3 95.4382 354.8 96.4382 355.5 97.1382C356.2 97.8382 356.9 98.3382 357.6 98.6382C358.3 98.9382 358.9 99.0382 359.5 99.0382Z" fill="white"/>
<path d="M174.2 96.8382C173.9 96.8382 173.5 96.9382 173.2 97.0382C172.6 97.2382 172 97.4382 171.4 97.7382C170.8 97.9382 170 98.1382 169.2 98.3382C168.4 98.5382 167.5 98.6382 166.6 98.6382C166 98.6382 165.4 98.5382 164.7 98.2382C164 97.9382 163.2 97.5382 162.6 96.8382C161.9 96.1382 161.3 95.1382 160.9 93.8382C160.4 92.5382 160.2 90.8382 160.2 88.8382C160.2 86.8382 160.4 85.1382 160.9 83.8382C161.4 82.5382 161.9 81.5382 162.6 80.8382C163.3 80.1382 164 79.6382 164.7 79.4382C165.4 79.1382 166.1 79.0382 166.6 79.0382C167.5 79.0382 168.3 79.1382 169.2 79.3382C170 79.5382 170.7 79.7382 171.4 80.0382C172 80.2382 172.6 80.4382 173.2 80.6382C173.5 80.7382 173.8 80.8382 174 80.8382L176.5 77.2382C175.4 76.3382 174.2 75.5382 172.9 75.0382C171 74.1382 168.9 73.7382 166.6 73.7382C164.4 73.7382 162.5 74.1382 160.7 74.9382C159 75.7382 157.5 76.8382 156.2 78.2382C155 79.6382 154 81.2382 153.3 83.1382C152.6 85.0382 152.3 86.9382 152.3 89.1382C152.3 91.2382 152.7 93.2382 153.4 95.1382C154.1 97.0382 155.2 98.6382 156.4 99.9382C157.7 101.338 159.2 102.338 161 103.238C162.7 104.038 164.6 104.438 166.6 104.438C168.8 104.438 170.9 104.038 172.8 103.138C174.2 102.538 175.5 101.638 176.6 100.638L174.2 96.8382Z" fill="white"/>
<path d="M251.6 92.8382C251.6 87.3382 252 83.4382 252.5 80.8382C252.4 80.6382 252.4 80.4382 252.3 80.3382C251.5 78.5382 250.4 77.1382 249 76.1382C247.6 75.1382 246.2 74.4382 244.5 74.0382C242.8 73.6382 241.2 73.5382 239.6 73.5382C237.8 73.5382 236 73.7382 234.3 74.1382C232.6 74.5382 231 75.3382 229.6 76.5382C228.2 75.3382 226.7 74.5382 224.9 74.1382C223.2 73.7382 221.4 73.5382 219.6 73.5382C218 73.5382 216.4 73.7382 214.7 74.0382C213.1 74.4382 211.6 75.1382 210.3 76.1382C209 77.1382 207.9 78.5382 207.1 80.3382C206.3 82.1382 205.9 84.4382 205.9 87.3382L205.8 96.3382C205.8 98.8382 206.5 100.638 207.9 101.738C209.3 102.838 211.3 103.438 214 103.438C214 103.138 213.9 102.838 213.9 102.338C213.9 101.838 213.8 101.238 213.8 100.438C213.8 99.6382 213.8 98.5382 213.8 97.3382V87.4382C213.8 85.6382 214 84.2382 214.3 83.1382C214.6 82.0382 215.1 81.2382 215.7 80.5382C216.3 79.9382 216.9 79.5382 217.6 79.3382C218.3 79.1382 219 79.0382 219.7 79.0382C220.4 79.0382 221.1 79.1382 221.9 79.3382C222.6 79.5382 223.3 79.9382 223.9 80.5382C224.5 81.1382 225 82.0382 225.3 83.1382C225.7 84.2382 225.8 85.6382 225.8 87.4382L225.7 96.4382C225.7 98.9382 226.4 100.738 227.8 101.838C229.2 102.938 231.2 103.538 233.9 103.538C233.9 103.238 233.8 102.938 233.8 102.438C233.8 101.938 233.7 101.338 233.7 100.538C233.7 99.7382 233.6 98.6382 233.6 97.4382V87.5382C233.6 85.7382 233.8 84.3382 234.1 83.2382C234.5 82.1382 234.9 81.3382 235.5 80.6382C236.1 80.0382 236.7 79.6382 237.4 79.4382C238.1 79.2382 238.8 79.1382 239.5 79.1382C240.2 79.1382 240.9 79.2382 241.7 79.4382C242.4 79.6382 243.1 80.0382 243.7 80.6382C244.3 81.2382 244.8 82.1382 245.1 83.2382C245.5 84.3382 245.6 85.7382 245.6 87.5382L245.5 96.5382C245.5 99.0382 246.2 100.838 247.6 101.938C248.6 102.738 249.8 103.238 251.4 103.438V92.8382H251.6Z" fill="white"/>
<path d="M393.8 98.3382C393.8 98.4382 393.8 98.6382 393.9 98.7382C394 99.0382 394 99.3382 394 99.6382C394 100.338 393.8 101.038 393.5 101.638C393.2 102.238 392.7 102.738 392.1 103.138C390.9 103.938 389.5 104.338 387.9 104.338C386.5 104.338 385.2 104.038 383.8 103.438C382.5 102.838 381.3 101.838 380.2 100.638C379.1 99.4382 378.3 97.8382 377.6 95.9382C377 94.0382 376.6 91.9382 376.6 89.4382L376.7 71.4382C376.7 68.9382 377.4 67.1382 378.7 66.0382C380 64.9382 382 64.4382 384.5 64.4382C384.5 64.7382 384.4 65.1382 384.4 65.6382C384.4 66.1382 384.3 66.7382 384.3 67.4382C384.3 68.2382 384.3 69.2382 384.3 70.4382L384.4 74.3382H392.8C392.8 76.2382 392.3 77.7382 391.2 78.8382C390.2 79.9382 388.7 80.5382 386.8 80.5382H384.4L384.3 89.4382C384.3 91.1382 384.5 92.6382 384.8 93.8382C385.1 95.0382 385.5 96.0382 386.1 96.7382C387.2 98.1382 388.7 98.8382 390.5 98.8382C391.2 98.8382 392 98.7382 392.7 98.5382C393 98.6382 393.4 98.5382 393.8 98.3382Z" fill="white"/>
<path d="M449.8 89.6382C449.8 91.6382 449.5 93.6382 448.8 95.4382C448.1 97.2382 447.2 98.8382 446 100.238C444.8 101.538 443.3 102.638 441.6 103.438C439.9 104.238 437.9 104.638 435.8 104.638C433.9 104.638 432.1 104.238 430.4 103.438C428.7 102.638 427.2 101.538 425.9 100.238C424.7 98.9382 423.7 97.3382 422.9 95.5382C422.2 93.7382 421.8 91.7382 421.8 89.7382C421.8 87.6382 422.1 85.7382 422.8 83.9382C423.4 82.1382 424.4 80.5382 425.6 79.1382C426.8 77.8382 428.3 76.7382 430 75.9382C431.7 75.1382 433.7 74.7382 435.8 74.7382C438.1 74.7382 440.3 75.2382 442.2 76.3382L442.1 67.5382C442.1 65.0382 442.8 63.2382 444.2 62.2382C445.6 61.1382 447.5 60.6382 450.1 60.6382C450.1 60.8382 450 61.2382 450 61.7382C450 62.2382 449.9 62.8382 449.9 63.6382C449.9 64.4382 449.9 65.4382 449.9 66.7382L449.8 89.6382ZM435.8 99.2382C436.3 99.2382 437 99.1382 437.7 98.8382C438.4 98.6382 439.1 98.1382 439.8 97.4382C440.5 96.7382 441 95.7382 441.5 94.5382C442 93.2382 442.2 91.6382 442.2 89.6382C442.2 87.6382 442 86.0382 441.5 84.7382C441 83.4382 440.5 82.5382 439.8 81.8382C439.1 81.1382 438.4 80.6382 437.7 80.4382C437 80.2382 436.3 80.0382 435.8 80.0382C435.3 80.0382 434.6 80.1382 433.9 80.4382C433.2 80.7382 432.5 81.1382 431.8 81.8382C431.1 82.5382 430.6 83.5382 430.1 84.7382C429.6 86.0382 429.4 87.6382 429.4 89.6382C429.4 91.6382 429.6 93.2382 430.1 94.5382C430.6 95.8382 431.1 96.7382 431.8 97.4382C432.5 98.1382 433.2 98.6382 433.9 98.8382C434.6 99.0382 435.2 99.2382 435.8 99.2382Z" fill="white"/>
<path d="M475.1 79.0382C476.4 80.3382 477.4 81.9382 478.1 83.7382C478.8 85.5382 479.2 87.5382 479.2 89.5382C479.2 91.6382 478.9 93.5382 478.2 95.3382C477.5 97.1382 476.6 98.7382 475.4 100.038C474.2 101.438 472.7 102.538 471 103.238C469.3 104.038 467.3 104.438 465.2 104.438C463.3 104.438 461.5 104.038 459.8 103.238C458.1 102.438 456.6 101.338 455.3 100.038C454.1 98.7382 453.1 97.1382 452.3 95.3382C451.6 93.5382 451.2 91.5382 451.2 89.5382C451.2 87.4382 451.5 85.5382 452.2 83.7382C452.8 81.9382 453.8 80.3382 455 79.0382C456.2 77.6382 457.7 76.5382 459.4 75.8382C461.1 75.0382 463.1 74.6382 465.2 74.6382C467.2 74.6382 469 75.0382 470.7 75.8382C472.4 76.5382 473.9 77.6382 475.1 79.0382ZM465.3 99.2382C465.8 99.2382 466.5 99.1382 467.2 98.8382C467.9 98.6382 468.6 98.1382 469.3 97.4382C470 96.7382 470.5 95.7382 471 94.5382C471.5 93.3382 471.7 91.6382 471.7 89.6382C471.7 87.6382 471.5 86.0382 471 84.7382C470.5 83.4382 470 82.5382 469.3 81.8382C468.6 81.1382 467.9 80.6382 467.2 80.4382C466.5 80.2382 465.8 80.0382 465.3 80.0382C464.8 80.0382 464.1 80.1382 463.4 80.4382C462.7 80.6382 462 81.1382 461.3 81.8382C460.6 82.5382 460.1 83.5382 459.6 84.7382C459.1 86.0382 458.9 87.6382 458.9 89.6382C458.9 91.6382 459.1 93.2382 459.6 94.5382C460.1 95.7382 460.6 96.7382 461.3 97.4382C462 98.1382 462.7 98.6382 463.4 98.8382C464.1 99.0382 464.7 99.2382 465.3 99.2382Z" fill="white"/>
<path d="M418.7 89.8382C418.7 87.3382 419.3 84.9382 420.2 82.8382C419.5 81.5382 418.7 80.3382 417.7 79.2382C416.5 77.8382 415 76.7382 413.3 76.0382C411.6 75.2382 409.8 74.8382 407.8 74.8382C405.7 74.8382 403.8 75.2382 402 76.0382C400.3 76.8382 398.8 77.9382 397.6 79.2382C396.4 80.5382 395.5 82.1382 394.8 83.9382C394.2 85.7382 393.8 87.7382 393.8 89.7382C393.8 91.8382 394.2 93.7382 394.9 95.5382C395.6 97.3382 396.6 98.9382 397.9 100.238C399.2 101.638 400.7 102.738 402.4 103.438C404.1 104.238 405.9 104.638 407.8 104.638C409.9 104.638 411.8 104.238 413.6 103.438C415.3 102.638 416.8 101.538 418 100.238C418.9 99.2382 419.7 98.1382 420.3 96.8382C419.3 94.8382 418.7 92.4382 418.7 89.8382ZM413.5 94.7382C413 95.9382 412.5 96.9382 411.8 97.6382C411.1 98.3382 410.4 98.8382 409.7 99.0382C409 99.2382 408.3 99.4382 407.8 99.4382C407.3 99.4382 406.6 99.3382 405.9 99.0382C405.2 98.7382 404.5 98.3382 403.8 97.6382C403.1 96.9382 402.6 95.9382 402.1 94.7382C401.6 93.5382 401.4 91.8382 401.4 89.8382C401.4 87.8382 401.6 86.2382 402.1 84.9382C402.6 83.6382 403.1 82.7382 403.8 82.0382C404.5 81.3382 405.2 80.8382 405.9 80.6382C406.6 80.4382 407.3 80.2382 407.8 80.2382C408.3 80.2382 409 80.3382 409.7 80.6382C410.4 80.8382 411.1 81.3382 411.8 82.0382C412.5 82.7382 413 83.7382 413.5 84.9382C414 86.2382 414.2 87.8382 414.2 89.8382C414.2 91.8382 414 93.4382 413.5 94.7382Z" fill="white"/>
</svg>
